<?xml version="1.0" standalone="no"?>
<!DOCTYPE svg PUBLIC "-//W3C//DTD SVG 20010904//EN"
 "http://www.w3.org/TR/2001/REC-SVG-20010904/DTD/svg10.dtd">
<svg version="1.0" xmlns="http://www.w3.org/2000/svg"
 width="2160.000000pt" height="2488.000000pt" viewBox="0 0 2160.000000 2488.000000"
 preserveAspectRatio="xMidYMid meet">

<g transform="translate(0.000000,2488.000000) scale(0.100000,-0.100000)"
fill="#000000" stroke="none">
<path d="M8636 22894 c-8 -22 4 -40 15 -23 11 18 11 39 0 39 -5 0 -12 -7 -15
-16z"/>
<path d="M11995 22858 c8 -24 46 -133 85 -243 80 -225 171 -534 253 -860 50
-200 70 -285 151 -670 51 -243 86 -521 86 -690 0 -59 -2 -65 -22 -69 -13 -2
-102 -19 -198 -36 -173 -31 -233 -51 -212 -72 7 -7 77 -3 222 12 116 12 213
20 215 18 12 -12 16 -557 6 -763 -7 -126 -15 -342 -18 -478 -3 -136 -9 -244
-14 -240 -8 9 -268 588 -411 918 -194 445 -220 511 -235 579 -19 95 -89 273
-226 582 l-116 260 -41 200 c-52 252 -131 576 -174 719 -19 61 -37 123 -40
138 -8 36 -55 141 -60 136 -5 -5 14 -105 37 -194 8 -33 22 -91 30 -130 9 -38
28 -123 42 -188 15 -65 25 -127 22 -137 -3 -10 4 -76 14 -146 10 -70 30 -212
44 -317 23 -170 29 -193 52 -221 l26 -31 -6 30 c-4 17 -20 118 -37 225 -17
107 -35 217 -41 243 -22 96 0 56 44 -80 59 -181 148 -489 149 -516 4 -110 65
-614 88 -732 41 -212 84 -535 72 -547 -6 -6 -12 24 -17 84 -3 51 -11 110 -16
130 -17 65 -81 88 -132 48 -31 -25 -76 -154 -102 -295 -23 -125 -23 -124 -45
-90 -33 51 -83 67 -134 43 -35 -15 -52 -45 -76 -129 -11 -39 -21 -73 -22 -74
-10 -7 -125 -48 -183 -66 -68 -21 -70 -21 -144 -3 -72 17 -80 17 -161 0 -121
-24 -202 -66 -248 -127 -38 -51 -56 -60 -150 -75 -34 -5 -54 -1 -100 19 -121
54 -183 44 -300 -47 -47 -37 -66 -46 -111 -50 -45 -5 -61 -12 -90 -40 -39 -36
-103 -57 -302 -96 l-106 -21 -68 26 c-37 14 -75 25 -84 25 -25 0 -50 -22 -54
-47 -5 -35 -11 -35 -48 0 -70 66 -123 136 -196 260 -73 124 -104 156 -129 136
-17 -13 -24 0 -89 160 -50 123 -63 146 -86 154 -23 9 -31 24 -52 91 -36 115
-42 140 -81 341 -19 99 -42 243 -51 320 -9 77 -21 185 -27 240 -6 55 -12 266
-12 472 -1 204 -4 366 -8 360 -5 -7 -8 -1 -8 14 0 14 3 28 6 32 3 3 7 43 9 89
3 92 33 306 71 501 14 70 22 132 19 137 -4 6 -2 25 4 43 5 17 12 48 15 67 3
19 10 55 16 80 6 25 13 56 15 70 2 14 18 77 35 140 17 63 38 142 45 175 8 33
21 85 29 115 12 45 13 52 1 36 -34 -46 -107 -315 -155 -576 -12 -63 -39 -187
-60 -275 -95 -388 -134 -721 -134 -1150 0 -313 10 -452 49 -675 8 -46 13 -86
10 -88 -4 -4 -31 4 -77 23 -14 6 -18 2 -18 -17 0 -29 65 -355 110 -551 17 -76
30 -140 28 -141 -2 -2 -54 -20 -116 -40 -133 -43 -346 -133 -502 -211 l-108
-54 -32 82 c-18 45 -50 132 -73 192 l-40 110 -4 225 -5 225 51 295 c63 368 97
614 111 795 6 79 24 203 42 285 37 169 44 220 30 220 -16 0 -29 -22 -57 -95
-53 -141 -130 -457 -214 -882 -50 -248 -50 -253 -41 -355 22 -239 39 -602 41
-873 0 -159 1 -298 0 -307 -1 -10 -58 -51 -153 -107 -84 -51 -190 -116 -234
-145 l-81 -54 -7 52 c-3 28 -6 218 -7 421 -1 204 -4 384 -8 400 -5 19 -12 29
-22 26 -8 -2 -22 -3 -31 -3 -37 2 -48 -54 -69 -326 -30 -397 -11 -998 58
-1781 l6 -73 -24 7 c-32 10 -37 20 -45 84 -12 93 -71 121 -107 51 -16 -31 -18
-61 -15 -291 3 -252 3 -255 -16 -237 -25 23 -78 23 -107 0 -18 -16 -27 -17
-51 -8 -24 9 -36 7 -73 -13 -41 -22 -50 -23 -102 -13 -32 6 -82 13 -111 16
-30 3 -65 14 -81 26 -21 14 -45 20 -85 20 -53 0 -56 2 -62 28 -12 55 -15 60
-44 72 -25 10 -34 10 -54 -3 l-24 -16 -6 47 c-3 26 -8 71 -12 100 -7 60 -24
82 -63 82 -45 0 -54 33 -60 229 -4 122 -10 176 -18 178 -7 3 -10 10 -7 18 3 7
-4 18 -15 24 -17 9 -24 8 -41 -9 -33 -33 -41 -66 -55 -218 -8 -79 -15 -145
-17 -147 -2 -2 -24 -5 -49 -8 l-47 -5 -4 55 c-3 39 -11 60 -23 69 -29 21 -63
17 -91 -11 -21 -21 -29 -23 -46 -14 -20 11 -46 9 -80 -6 -13 -5 -21 3 -36 36
-18 38 -20 40 -30 23 -6 -10 -12 -15 -12 -9 0 23 -28 -34 -38 -80 -22 -98 -59
-769 -48 -858 5 -33 1 -71 -13 -125 -27 -103 -67 -290 -82 -379 -11 -69 -11
-73 12 -102 13 -16 27 -30 32 -30 4 -1 7 43 8 97 0 53 4 117 8 142 6 37 8 21
15 -85 4 -71 18 -215 31 -320 13 -104 33 -298 46 -430 18 -195 26 -249 44
-290 13 -27 26 -70 30 -95 18 -115 88 -446 120 -568 42 -158 80 -253 135 -334
22 -32 61 -104 86 -161 85 -192 240 -473 284 -512 20 -18 20 -18 20 7 0 14 6
31 14 37 11 10 16 8 21 -9 9 -27 40 -22 40 6 0 23 23 56 34 50 4 -3 13 -1 21
5 8 5 10 9 4 9 -6 0 -11 7 -11 15 0 18 -34 95 -42 96 -3 0 -15 2 -26 4 -11 2
-30 -3 -42 -11 -30 -19 -33 -18 -33 9 0 18 -5 23 -22 23 -14 -1 -23 5 -23 14
0 8 -5 18 -11 22 -6 4 -11 29 -12 55 0 26 -8 82 -17 123 -15 70 -15 76 2 87 9
7 20 13 25 13 4 0 26 -37 49 -82 23 -45 59 -110 81 -145 22 -35 42 -78 45 -95
6 -41 30 -80 113 -185 36 -46 82 -110 103 -143 34 -53 42 -60 65 -57 20 3 50
-12 114 -55 48 -32 91 -58 96 -58 5 0 44 -23 86 -50 42 -28 82 -50 89 -49 64
8 95 -2 161 -55 147 -117 340 -182 571 -193 114 -5 121 -7 147 -33 18 -18 50
-32 94 -43 65 -17 129 -51 234 -128 37 -27 61 -38 73 -33 14 5 15 9 6 20 -9
12 -5 14 28 14 26 0 44 -6 56 -20 9 -11 29 -20 45 -20 15 0 52 -16 82 -35 37
-23 67 -35 93 -35 20 0 37 2 37 3 0 2 -19 24 -42 48 l-42 44 54 3 c33 2 59 9
66 17 6 8 58 23 120 34 71 12 136 31 186 54 67 31 81 34 106 25 29 -11 62 -6
62 10 0 5 -16 17 -35 28 -24 12 -31 21 -22 26 8 6 3 15 -18 31 -253 188 -448
398 -628 673 -107 163 -150 250 -171 342 -17 76 -14 97 11 88 8 -4 61 -18 117
-32 55 -15 117 -37 136 -50 32 -23 36 -23 47 -7 7 9 14 15 16 12 2 -2 14 -19
26 -37 45 -65 354 -297 532 -399 58 -33 137 -67 205 -89 62 -19 117 -41 124
-49 6 -7 69 -33 138 -56 70 -23 141 -50 157 -60 36 -21 150 -48 258 -60 43 -5
115 -20 160 -34 196 -60 484 -92 618 -70 35 5 55 3 82 -10 30 -14 62 -16 249
-11 118 3 250 8 295 12 78 6 81 6 88 -16 5 -17 12 -20 32 -15 55 13 63 1 63
-90 0 -46 5 -87 10 -90 6 -3 10 -22 10 -42 0 -29 -7 -43 -37 -70 -64 -56 -114
-81 -200 -97 -46 -9 -104 -26 -130 -39 -71 -36 -193 -74 -323 -101 -63 -13
-169 -40 -235 -59 -196 -57 -296 -71 -505 -72 -160 0 -196 -3 -265 -22 -44
-13 -106 -28 -138 -34 -51 -9 -57 -12 -40 -23 19 -13 182 -89 228 -106 52 -20
17 -21 -117 -5 -183 23 -225 22 -273 -4 -44 -23 -60 -27 -49 -10 4 8 1 8 -12
1 -14 -7 -23 -6 -32 4 -11 13 -9 18 9 16 3 -1 6 6 6 14 0 9 -11 14 -34 14 -48
0 -40 16 20 38 79 29 85 33 47 27 -19 -4 -83 -8 -141 -11 -79 -3 -119 -10
-153 -25 -57 -25 -113 -40 -281 -74 -71 -15 -134 -31 -140 -37 -7 -6 -3 -15
11 -27 21 -17 21 -17 2 -40 -10 -13 -17 -25 -16 -26 2 -1 35 2 73 7 75 9 200
3 252 -13 23 -7 70 -6 161 5 164 20 167 20 180 -6 6 -13 11 -17 11 -10 1 6 8
12 17 12 8 0 13 -3 11 -7 -6 -10 75 -9 91 1 7 4 12 2 12 -3 0 -6 9 -20 21 -32
28 -28 94 -29 122 0 14 13 17 21 8 21 -24 0 -81 32 -81 46 0 11 19 14 78 15
79 1 119 3 229 14 59 5 103 -6 103 -27 0 -4 -27 -13 -60 -20 -72 -14 -62 -20
65 -36 266 -35 334 -41 361 -33 26 7 29 6 29 -13 -1 -11 -7 -32 -15 -46 -18
-35 -101 -132 -108 -126 -3 3 -11 -2 -18 -12 -12 -16 -13 -15 -8 4 4 16 0 23
-15 27 -12 3 -19 2 -16 -3 3 -4 -2 -11 -11 -14 -12 -5 -14 -13 -10 -32 5 -20
2 -30 -14 -41 -11 -8 -20 -23 -20 -33 0 -10 -5 -22 -11 -26 -6 -3 -20 -26 -31
-51 -37 -83 -9 -408 59 -693 19 -80 43 -161 53 -180 16 -30 19 -68 24 -280 5
-271 3 -286 -49 -285 -39 1 -53 -10 -50 -38 1 -12 0 -14 -2 -5 -9 38 -28 17
-30 -33 -2 -46 0 -51 18 -46 13 3 19 1 16 -6 -3 -11 -13 -12 -48 -8 -5 0 -8 5
-5 10 3 4 -5 18 -18 30 l-23 22 -1 -31 c0 -16 -4 -39 -7 -50 -6 -18 -2 -20 50
-20 53 0 56 -1 53 -22 -2 -13 -11 -24 -22 -26 -11 -3 -16 0 -12 7 5 7 -3 11
-21 12 -15 1 -39 3 -53 5 -14 3 -48 6 -76 7 -28 2 -56 7 -62 11 -7 4 -11 3
-10 -2 4 -14 -46 -56 -50 -43 -2 6 -17 11 -33 11 -16 0 -29 4 -29 9 0 17 -132
27 -210 16 -25 -4 -84 -6 -132 -6 -69 1 -92 -3 -108 -16 -10 -9 -31 -19 -46
-20 -34 -5 -63 -32 -45 -43 7 -4 11 -18 9 -31 -2 -17 1 -23 12 -21 9 1 5 -6
-10 -19 -19 -16 -33 -20 -60 -15 -19 3 -43 6 -52 6 -12 0 -16 6 -12 25 2 14 0
25 -6 25 -5 0 -10 7 -10 15 0 14 -12 20 -33 16 -5 -1 -6 3 -2 9 6 10 -10 13
-67 14 -16 0 -28 3 -28 7 0 3 -12 4 -26 1 -18 -3 -25 -1 -20 6 9 14 -44 25
-80 16 -28 -7 -62 -41 -56 -56 1 -5 -5 -8 -13 -8 -8 0 -15 -7 -15 -15 0 -9
-13 -42 -30 -75 -16 -33 -30 -64 -30 -69 0 -6 20 -8 50 -4 62 7 100 -9 92 -39
-2 -11 -16 -24 -30 -29 -23 -9 -24 -11 -8 -28 25 -27 20 -31 -35 -31 -49 0
-50 -1 -47 -27 2 -22 9 -29 31 -31 16 -2 31 -10 34 -18 3 -9 13 -12 24 -9 13
4 27 -3 46 -22 14 -15 23 -23 19 -16 -3 6 -2 14 3 17 5 3 11 -1 15 -9 5 -15
38 -22 34 -8 -2 5 12 29 31 55 l34 47 28 -36 c16 -20 29 -39 29 -42 0 -3 -20
-15 -43 -25 -50 -24 -65 -37 -59 -54 2 -6 0 -12 -5 -12 -5 0 -9 -8 -10 -17 -3
-59 -8 -73 -26 -73 -14 0 -17 -5 -12 -20 3 -10 2 -28 -4 -38 -6 -11 -13 -34
-16 -51 -7 -40 -26 -71 -42 -71 -7 0 -13 -9 -13 -19 0 -11 -4 -23 -10 -26 -15
-9 -5 -66 14 -80 20 -15 21 -41 0 -49 -8 -3 -12 -2 -9 4 3 6 -3 10 -13 10 -11
0 -33 3 -50 6 -31 6 -31 6 -25 -30 5 -32 3 -36 -16 -36 -24 0 -51 21 -51 39 0
6 9 11 20 11 25 0 38 29 19 40 -7 5 -34 12 -60 15 -32 5 -49 12 -52 23 -4 15
-5 15 -6 0 -1 -11 -6 -15 -16 -12 -12 5 -14 0 -9 -25 6 -29 5 -31 -36 -37 -41
-7 -42 -7 -19 -19 41 -22 188 -58 210 -52 25 7 59 -12 59 -32 0 -11 -4 -11
-18 2 -25 23 -47 22 -25 -1 19 -19 53 -27 53 -11 0 5 9 9 21 9 12 0 17 -4 14
-11 -11 -17 4 -59 21 -59 12 0 15 -6 10 -24 -7 -28 17 -42 49 -30 12 5 16 4
11 -4 -4 -7 3 -14 19 -18 37 -9 31 -21 -25 -49 -47 -24 -93 -36 -61 -16 10 6
4 11 -20 16 -19 4 -39 12 -46 17 -18 14 -53 -1 -53 -23 0 -14 -7 -19 -27 -19
-49 0 -60 -17 -14 -22 28 -2 41 0 41 9 0 9 10 11 32 6 20 -4 29 -2 25 4 -4 6
3 8 18 5 14 -2 25 -9 25 -15 0 -6 -3 -7 -7 -4 -3 4 -17 0 -30 -9 -35 -22 -94
-26 -142 -9 -40 14 -107 14 -191 -1 -14 -2 -52 -8 -85 -14 -96 -16 -389 -78
-418 -89 -20 -8 -27 -7 -33 7 -4 9 -6 20 -6 25 1 4 -5 7 -13 7 -8 0 -23 10
-34 22 -19 20 -19 22 -3 37 22 21 26 42 10 52 -10 7 -10 9 1 9 11 0 11 3 1 15
-7 8 -16 12 -21 9 -5 -3 -17 0 -26 5 -12 7 -14 10 -4 11 11 0 11 3 1 15 -9 11
-9 15 -1 15 8 0 6 8 -4 23 -8 13 -12 27 -8 30 3 4 1 7 -5 7 -9 0 -28 54 -25
70 1 3 -30 39 -69 80 -38 41 -68 68 -66 60 2 -8 -3 -14 -9 -13 -7 2 -13 -1
-13 -7 0 -5 -7 -7 -15 -4 -8 4 -15 2 -15 -3 0 -5 -6 -10 -12 -10 -35 -3 -79
-11 -85 -17 -3 -3 -13 -1 -20 6 -8 7 -23 12 -33 13 -15 1 -18 -5 -15 -36 4
-34 2 -37 -27 -43 -17 -3 -49 -1 -72 5 -45 12 -116 49 -116 60 0 4 -6 9 -12
12 -17 6 -22 -71 -7 -90 9 -10 6 -13 -17 -14 -16 0 -23 -3 -16 -6 20 -8 15
-43 -7 -43 -11 0 -23 -4 -26 -10 -8 -13 -27 -13 -62 2 -15 6 -30 11 -33 10 -3
0 -6 44 -6 99 0 89 1 99 18 99 10 0 18 7 18 16 0 8 -5 12 -10 9 -6 -3 -10 -1
-10 4 0 15 27 14 33 -1 3 -8 6 -6 6 5 1 10 9 17 21 17 11 0 20 6 20 14 0 17
-25 38 -34 29 -4 -4 -4 0 -1 10 5 12 -1 20 -19 28 -29 13 -36 54 -13 78 10 11
10 13 0 7 -15 -9 -15 -10 -2 79 35 240 32 279 -25 273 -25 -2 -35 -11 -51 -43
-11 -22 -24 -43 -28 -46 -5 -3 -8 -9 -7 -13 3 -11 -12 -71 -19 -76 -4 -3 -13
-32 -21 -64 -9 -35 -21 -61 -30 -64 -9 -2 -11 0 -5 5 6 4 10 28 10 53 0 25 4
48 9 52 6 4 9 25 8 48 -2 23 2 48 9 56 7 8 9 17 6 20 -6 6 34 159 50 189 6 11
33 69 60 129 26 61 66 135 87 165 51 73 76 128 76 171 1 111 111 435 191 560
9 14 40 63 70 109 69 109 142 182 239 242 39 24 48 34 38 41 -9 7 -7 8 10 5
12 -3 44 5 72 19 27 13 57 24 65 24 30 0 73 30 115 80 23 27 38 50 33 50 -5 0
-14 -5 -19 -10 -6 -6 -24 -12 -41 -13 -17 -1 -29 -5 -27 -9 6 -10 -38 -21 -45
-11 -8 11 -133 44 -126 33 3 -4 -9 -10 -26 -12 -16 -3 -32 -1 -35 4 -3 5 -8 6
-12 4 -11 -7 -8 48 3 60 44 45 309 191 342 187 9 0 10 4 2 18 -5 11 -15 19
-22 19 -7 0 -23 9 -35 20 -12 11 -28 20 -37 20 -10 0 -13 5 -9 12 7 11 -181
-85 -255 -130 -41 -25 -86 -16 -85 16 l0 21 -30 -22 c-51 -35 -158 -119 -215
-167 -49 -41 -177 -221 -265 -372 -15 -25 -42 -58 -61 -73 -19 -14 -35 -32
-35 -40 0 -25 -20 -27 -53 -6 -55 34 -68 56 -88 148 -11 48 -28 100 -38 114
-10 14 -32 52 -49 85 -16 32 -51 95 -77 138 -46 79 -47 80 -37 135 19 108 -12
219 -96 350 -56 86 -122 199 -122 208 0 4 -24 38 -54 77 -29 39 -86 119 -125
178 -185 276 -347 324 -621 182 -103 -53 -269 -176 -383 -284 l-83 -79 -64 52
c-34 29 -97 75 -138 102 -42 28 -81 59 -86 69 -29 52 -124 198 -164 251 -95
125 -144 176 -163 170 -11 -4 -39 7 -73 29 -40 25 -73 37 -123 45 -37 5 -120
19 -183 29 -375 65 -797 76 -1150 28 -313 -42 -427 -38 -484 19 -17 17 -24 18
-95 6 -298 -50 -526 -147 -856 -366 -252 -167 -402 -305 -570 -529 -238 -318
-382 -608 -467 -941 -16 -66 -43 -154 -58 -196 -34 -95 -63 -218 -87 -369 -14
-94 -18 -178 -18 -460 0 -340 0 -347 28 -470 15 -69 36 -174 47 -233 48 -255
156 -497 292 -652 l35 -40 -105 -110 c-90 -95 -249 -287 -415 -501 l-47 -61 2
-434 3 -434 31 50 c148 236 260 412 466 732 l240 372 81 -85 c160 -169 423
-304 750 -384 221 -54 446 -74 842 -75 208 0 403 5 480 13 72 6 186 17 255 23
179 15 350 44 545 94 243 63 297 84 447 172 73 44 213 126 311 184 222 129
364 234 488 358 84 85 103 110 143 194 25 53 46 100 46 104 0 4 -18 -11 -40
-32 -47 -46 -51 -40 -11 19 17 24 60 99 97 167 37 68 82 140 100 160 34 35 86
144 118 249 9 30 62 145 117 255 l100 200 9 117 c9 119 -9 589 -29 763 -32
270 -83 467 -175 668 l-26 57 43 47 c23 25 73 68 111 95 56 39 72 46 82 36 34
-35 107 -264 149 -466 35 -167 88 -371 120 -462 74 -203 199 -377 338 -471 78
-52 121 -52 217 -4 39 19 70 30 70 25 0 -6 -16 -59 -36 -118 -73 -220 -89
-315 -104 -644 -10 -209 -9 -243 5 -290 12 -40 14 -76 10 -148 -9 -134 12
-244 58 -308 73 -100 107 -205 108 -330 0 -76 -5 -95 -81 -287 -15 -38 -39
-65 -68 -76 -12 -5 -25 -17 -28 -26 -16 -53 -51 -120 -69 -136 -39 -34 -72
-47 -97 -38 -27 10 -64 -9 -140 -71 -30 -25 -49 -50 -54 -70 -9 -45 -97 -133
-240 -243 -167 -130 -174 -137 -229 -250 -72 -146 -188 -262 -449 -450 -16
-11 -29 -29 -30 -40 0 -11 -15 -45 -33 -75 -43 -76 -79 -168 -162 -425 -40
-121 -100 -299 -133 -395 -100 -284 -137 -408 -162 -540 -13 -69 -47 -199 -75
-290 -27 -91 -91 -311 -141 -490 -215 -770 -323 -1113 -457 -1450 -75 -189
-150 -435 -154 -505 -1 -11 -7 7 -14 40 -10 44 -12 112 -8 260 5 171 9 203 24
223 58 75 64 225 14 329 -57 115 -242 265 -690 558 -346 227 -523 316 -1330
668 -768 336 -899 399 -1180 575 -150 93 -397 266 -492 343 -40 33 -75 59 -78
59 -3 0 -5 -175 -5 -388 l0 -389 123 -80 c285 -187 577 -341 992 -524 584
-256 1016 -449 1070 -477 l60 -30 -32 -14 -33 -14 102 -23 c55 -12 135 -34
177 -48 114 -38 349 -154 437 -215 131 -90 251 -222 330 -364 l36 -64 -28 -56
c-36 -74 -41 -154 -20 -374 18 -195 32 -260 70 -324 40 -68 116 -124 193 -140
37 -8 40 -16 49 -100 8 -78 -14 -194 -57 -300 -17 -42 -28 -80 -24 -86 11 -19
89 -10 145 16 30 14 76 46 102 72 l48 46 0 -184 c0 -102 5 -214 11 -250 6 -36
12 -162 14 -280 5 -298 13 -431 35 -605 19 -143 50 -287 71 -327 9 -17 247
-18 6944 -18 6598 0 6935 1 6935 18 1 16 1 16 11 0 9 -17 37 -18 363 -18 l354
0 16 25 c51 77 106 327 106 479 0 54 5 100 13 112 96 164 133 333 116 530 -5
54 -31 211 -58 349 -28 137 -89 453 -136 700 -176 921 -226 1139 -279 1224
-30 49 -41 91 -94 336 -33 154 -66 312 -72 350 -7 39 -34 129 -60 200 -49 135
-192 567 -204 620 l-8 30 24 -21 c13 -12 129 -112 258 -224 191 -164 349 -318
845 -819 744 -752 843 -862 1052 -1176 111 -166 177 -284 228 -412 67 -163 72
-192 46 -292 -52 -200 -101 -308 -279 -621 -132 -231 -290 -554 -420 -860 -94
-222 -192 -484 -192 -516 0 -12 90 -14 620 -14 341 0 620 4 620 8 0 5 39 74
87 153 180 298 289 542 338 752 8 34 48 128 88 208 107 211 198 476 243 706
24 120 24 339 0 453 -51 244 -162 468 -369 745 -59 79 -71 93 -121 148 -14 15
-26 30 -26 33 0 3 -16 26 -37 50 -27 34 -39 42 -46 32 -6 -9 -7 -8 -3 5 6 18
-25 57 -45 57 -5 0 -8 4 -4 9 3 5 -5 17 -17 25 -12 9 -18 16 -13 16 5 0 -6 16
-25 35 -19 19 -39 35 -45 35 -5 0 -15 10 -20 23 -13 28 -31 23 -28 -9 1 -13
-2 -22 -8 -19 -13 8 -11 39 3 53 9 9 6 17 -12 37 -19 20 -26 23 -39 12 -14
-10 -14 -10 -4 3 10 13 0 27 -56 83 -63 62 -93 84 -75 55 4 -7 3 -8 -5 -4 -6
4 -9 11 -7 15 16 25 -644 616 -1149 1030 -64 52 -120 88 -300 196 -224 134
-574 365 -986 652 -278 193 -341 227 -385 208 -10 -5 -28 -9 -39 -11 -11 -1
-34 -5 -51 -9 -28 -6 -33 -3 -71 47 -195 257 -306 431 -430 673 l-114 220 21
128 c11 71 20 143 20 161 0 48 18 94 58 149 61 85 78 190 46 298 -24 79 -46
118 -134 234 l-80 105 45 11 c25 6 45 17 45 24 0 18 -80 50 -195 79 -53 14
-99 26 -100 28 -2 2 -17 20 -34 42 -29 36 -30 43 -30 125 0 74 -17 191 -35
241 -3 8 -19 96 -36 195 -28 168 -29 181 -13 192 9 7 24 13 33 13 22 0 262
123 390 200 211 127 424 273 480 329 98 97 130 190 105 297 -13 55 -13 60 4
74 51 42 53 101 7 195 -19 39 -39 89 -45 113 -16 60 -75 118 -135 134 -44 12
-55 21 -127 114 -70 90 -78 106 -81 150 -3 50 -10 56 -48 40 -11 -5 -48 37
-136 156 -67 90 -152 208 -189 263 -121 177 -112 167 -145 150 -16 -8 -33 -15
-38 -15 -9 0 -33 137 -67 370 -8 53 -19 109 -26 125 -7 17 -13 37 -13 45 -1
22 -24 42 -38 34 -7 -5 -9 -2 -6 8 5 11 0 14 -20 11 -22 -4 -24 -2 -12 7 12 9
10 10 -10 5 -40 -11 -72 -35 -66 -50 3 -8 0 -16 -7 -18 -9 -3 -12 -46 -11
-155 0 -84 -3 -152 -7 -152 -5 0 -6 -7 -3 -15 4 -8 2 -15 -4 -15 -5 0 -12 7
-16 15 -11 29 -33 16 -40 -23 -4 -28 0 -50 13 -78 31 -64 44 -158 36 -269 -8
-120 -36 -259 -64 -313 -27 -52 -85 -102 -119 -102 -32 0 -92 34 -92 52 -1 38
-22 -36 -55 -192 -27 -130 -45 -192 -70 -240 -41 -80 -54 -129 -109 -399 -43
-211 -44 -213 -50 -155 -10 98 -25 339 -31 514 -4 91 -8 188 -10 216 -3 53 1
68 23 75 9 3 8 10 -7 26 -25 26 -24 61 3 91 18 20 21 36 19 104 -1 88 -19 136
-64 181 -25 23 -36 55 -30 90 0 4 -6 7 -14 7 -9 0 -26 9 -38 21 -22 20 -22 20
-2 36 20 15 20 15 -3 8 -20 -6 -22 -3 -22 22 1 15 1 53 0 83 0 30 4 71 10 90
9 31 -1 67 -97 359 -60 179 -109 318 -111 310 -2 -9 6 -61 18 -117 27 -135 25
-142 -14 -42 -65 166 -145 304 -253 437 -39 47 -44 59 -34 74 17 28 14 43 -14
69 -14 13 -25 26 -25 29 0 3 21 14 46 25 63 26 135 99 163 166 l23 55 83 0
c47 0 89 5 95 11 8 8 8 24 0 60 -6 27 -12 67 -14 90 l-2 41 45 -9 c121 -25
176 -48 248 -106 193 -153 315 -256 320 -269 3 -8 39 -36 79 -64 40 -27 89
-70 109 -96 40 -53 73 -150 82 -242 5 -50 8 -59 16 -45 6 11 17 24 24 29 11 8
11 25 -2 100 -9 50 -25 125 -36 169 -11 43 -19 80 -17 81 2 2 35 -5 73 -15 39
-11 99 -19 135 -19 170 -1 266 132 198 275 -21 46 -21 47 -3 60 11 8 24 12 30
10 5 -3 34 -12 63 -21 65 -20 70 -31 74 -162 2 -54 8 -101 13 -105 6 -4 25 -8
43 -8 17 0 31 -3 30 -7 -2 -5 3 -21 10 -38 12 -29 14 -30 75 -27 75 4 167 -23
233 -69 50 -34 108 -106 126 -155 8 -23 17 -33 28 -29 86 26 153 37 216 33 43
-2 70 0 67 6 -15 23 120 -5 187 -39 172 -86 419 -117 774 -96 309 18 754 58
963 87 682 93 1514 263 1926 395 l127 41 0 338 0 339 -87 -30 c-126 -43 -401
-112 -598 -149 -93 -18 -187 -37 -209 -42 l-39 -10 6 -64 c4 -39 2 -64 -4 -64
-5 0 -2 -14 6 -30 10 -19 20 -28 28 -24 7 4 9 3 4 -1 -9 -10 21 -45 39 -45 7
0 14 -5 16 -10 4 -13 74 -39 108 -40 40 -1 8 -15 -125 -53 -137 -39 -308 -72
-331 -63 -8 3 -12 2 -9 -4 3 -6 -1 -10 -10 -10 -15 0 -37 38 -29 51 4 7 -107
19 -173 19 -33 0 -43 -4 -43 -17 0 -14 -2 -14 -21 3 -60 54 -93 167 -72 244
l10 35 -76 -3 c-42 -1 -170 -10 -286 -18 -295 -22 -1143 -61 -1370 -63 -305
-3 -441 -23 -527 -78 -46 -28 -46 -28 -193 12 -86 24 -122 28 -260 30 -88 2
-176 8 -195 14 -49 16 -134 14 -177 -4 -19 -8 -37 -15 -39 -15 -2 0 -4 26 -4
58 0 75 23 196 60 307 31 95 122 280 132 269 8 -7 32 40 41 77 4 14 37 77 73
140 37 63 78 133 91 157 14 23 48 67 75 98 28 30 59 71 69 91 24 47 35 103 20
103 -18 0 -13 18 7 24 12 4 25 27 36 64 27 86 57 164 62 159 2 -2 -7 -71 -20
-153 -26 -159 -37 -282 -24 -262 18 29 7 -21 -28 -122 -21 -64 -64 -156 -110
-236 -40 -72 -74 -133 -74 -137 0 -4 15 -7 33 -7 32 0 104 42 122 69 17 29 23
3 18 -81 -3 -56 -1 -116 6 -150 20 -93 81 -140 140 -108 33 17 50 86 66 257
28 297 56 432 100 484 14 18 66 75 115 128 171 185 274 324 359 482 44 83 50
103 55 171 5 67 12 91 52 170 63 125 99 221 84 226 -6 2 -33 19 -61 38 l-50
33 -16 -36 c-8 -20 -41 -80 -72 -132 -32 -53 -80 -150 -106 -216 -64 -162 -75
-182 -134 -240 -28 -27 -51 -54 -51 -60 0 -12 -61 -55 -78 -55 -7 0 -12 6 -13
13 -3 42 5 98 22 141 10 28 17 51 15 53 -1 2 -33 -10 -69 -27 -87 -39 -229
-80 -280 -80 -29 0 -56 -10 -101 -39 -115 -72 -145 -84 -226 -87 -52 -1 -112
-13 -195 -38 -166 -51 -280 -69 -393 -63 -80 4 -102 9 -155 37 -41 21 -82 34
-121 37 -42 4 -72 14 -102 35 -44 30 -54 45 -54 84 0 29 -6 29 -64 4 -39 -16
-47 -17 -60 -5 -12 13 -16 9 -29 -23 -34 -86 -59 -215 -53 -270 10 -81 19 -91
44 -51 11 19 34 47 51 63 17 17 31 35 31 42 0 6 10 14 23 18 31 8 34 8 49 -8
8 -7 69 -27 136 -45 132 -34 144 -36 122 -20 -11 7 8 9 67 7 63 -2 87 -7 100
-21 16 -16 16 -19 3 -28 -13 -10 -13 -10 0 -6 9 3 24 -1 35 -9 10 -8 28 -14
39 -14 16 0 17 -3 8 -12 -19 -19 -15 -59 8 -65 19 -5 18 -7 -9 -42 -15 -20
-33 -46 -40 -58 -6 -13 -18 -23 -26 -23 -8 0 -15 -4 -15 -8 0 -5 28 -7 63 -4
34 2 58 0 52 -5 -5 -4 -15 -22 -21 -39 -9 -24 -8 -31 2 -31 8 0 14 5 14 10 0
6 3 7 7 4 8 -9 120 54 190 105 28 20 76 49 105 63 30 14 80 51 111 82 54 53
58 56 82 43 33 -18 18 -43 -42 -70 -25 -11 -43 -23 -40 -26 3 -4 -13 -32 -37
-63 -62 -80 -244 -373 -287 -461 -58 -118 -109 -254 -125 -333 -8 -39 -17 -79
-20 -87 -9 -22 -34 80 -49 195 -10 84 -13 91 -14 46 -1 -50 -2 -53 -18 -39
-25 20 -92 39 -99 27 -4 -6 -10 -6 -18 0 -6 6 -21 10 -31 10 -11 0 -39 2 -62
5 -26 3 -43 1 -43 -5 0 -6 -6 -6 -18 0 -28 15 -59 2 -73 -30 -6 -16 -14 -28
-16 -26 -6 6 29 77 36 73 3 -2 7 12 9 31 1 19 7 44 13 55 7 14 7 18 0 14 -5
-4 -15 2 -21 13 -7 13 -16 18 -27 14 -11 -4 -14 -3 -9 5 4 7 1 12 -8 12 -24 0
-36 -34 -36 -101 0 -65 -8 -75 -15 -18 -3 18 -14 42 -25 53 l-20 20 0 -92 0
-93 29 20 c36 26 41 26 41 1 0 -11 4 -28 9 -38 5 -9 18 -68 30 -131 18 -95 33
-142 78 -248 3 -7 -31 0 -84 19 -69 24 -106 31 -171 32 l-82 1 -32 65 c-18 36
-52 89 -76 118 -29 35 -38 54 -30 57 10 4 14 56 16 214 l4 208 -27 7 c-15 4
-29 6 -30 4 -1 -2 -10 -18 -19 -36 l-17 -33 -29 25 c-25 20 -35 23 -67 16 -21
-4 -96 -14 -166 -21 -116 -11 -135 -11 -200 5 -40 10 -126 20 -193 23 -111 5
-129 3 -217 -22 -53 -15 -104 -25 -112 -21 -8 3 -15 1 -15 -5 0 -17 -52 -32
-62 -17 -5 8 -8 9 -8 2 0 -16 -38 -25 -44 -10 -3 6 -4 -2 -3 -18 2 -28 -3 -32
-83 -71 -59 -29 -143 -56 -275 -90 -104 -26 -192 -50 -194 -52 -3 -2 4 -9 14
-17 18 -13 18 -14 -4 -25 -18 -10 -29 -9 -62 8 -32 17 -58 21 -135 21 -81 0
-102 4 -143 24 -55 28 -104 80 -121 129 -14 38 -82 80 -115 71 -18 -5 -20 0
-22 63 -1 37 -3 115 -5 173 -3 92 0 111 20 155 19 40 22 59 16 102 -5 42 -10
53 -24 53 -10 0 -20 9 -23 20 -8 31 -39 24 -126 -30 -69 -43 -88 -50 -131 -50
-43 0 -77 -14 -262 -107 -117 -59 -276 -139 -354 -178 -181 -90 -282 -174
-191 -159 82 14 197 60 497 199 80 37 161 69 182 70 26 2 62 21 134 70 56 40
95 61 91 51 -30 -77 -51 -196 -56 -321 -4 -77 -5 -146 -3 -153 3 -8 15 -10 38
-6 l34 6 0 -44 c0 -40 -4 -49 -42 -81 -33 -29 -51 -37 -83 -38 -38 -1 -38 -2
-10 -8 30 -7 30 -7 -12 -15 -24 -4 -43 -12 -43 -17 0 -6 -4 -8 -8 -5 -4 2 -8
-4 -8 -15 0 -10 3 -19 7 -19 4 0 5 -9 2 -20 -4 -14 -14 -20 -37 -21 -17 -1
-42 -4 -55 -8 -29 -8 218 -66 266 -62 17 1 41 -3 52 -9 14 -7 21 -7 21 0 0 6
44 10 121 10 116 0 124 -1 204 -36 97 -42 113 -56 118 -109 3 -31 11 -44 38
-62 18 -13 41 -23 50 -23 26 0 49 -11 49 -22 0 -6 -9 -8 -19 -5 -13 3 -18 0
-17 -11 4 -22 19 -25 62 -13 21 6 40 9 42 6 2 -2 -15 -9 -37 -15 l-42 -11 61
-66 c33 -36 60 -71 60 -78 0 -6 14 -25 31 -43 25 -26 35 -30 50 -21 10 5 19
16 19 24 0 7 8 16 18 18 10 3 6 5 -10 6 -16 0 -28 6 -28 11 0 21 124 6 164
-20 28 -17 34 -25 24 -31 -10 -6 -9 -11 7 -23 11 -9 25 -16 30 -16 17 -1 83
-121 109 -200 23 -69 39 -150 49 -241 6 -48 3 -43 129 -191 103 -120 114 -138
201 -315 l91 -188 7 -125 c3 -69 15 -159 25 -200 14 -56 18 -112 18 -220 0
-172 -3 -201 -43 -345 -41 -149 -53 -182 -113 -299 -28 -56 -59 -115 -67 -132
-13 -25 -31 -38 -86 -59 -74 -29 -114 -54 -236 -146 -42 -32 -80 -55 -84 -51
-4 4 -5 2 -3 -3 2 -6 -31 -40 -72 -75 -41 -35 -94 -81 -117 -103 -26 -25 -46
-36 -54 -32 -7 5 -10 4 -6 -2 10 -16 -95 -111 -123 -112 -59 -2 -88 -6 -85
-12 2 -3 -21 -13 -52 -22 -30 -10 -78 -33 -107 -51 -46 -31 -63 -36 -185 -51
-74 -9 -153 -21 -175 -27 -54 -14 -137 -3 -129 18 3 7 11 14 19 14 8 0 14 6
14 13 0 8 3 9 8 1 10 -16 85 -5 78 11 -3 9 2 11 15 8 15 -4 18 -2 13 11 -9 22
12 45 36 39 10 -3 32 4 49 16 16 12 43 21 60 21 27 0 32 4 38 30 3 17 10 33
14 36 14 8 11 18 -11 42 -37 39 -5 23 34 -17 21 -22 49 -42 62 -45 13 -4 67 5
118 18 52 14 104 22 115 19 11 -3 38 4 58 14 21 11 44 18 51 16 6 -3 12 3 12
12 0 11 -5 15 -15 11 -11 -4 -15 1 -15 19 0 31 12 38 45 25 32 -12 65 -5 65
14 0 8 19 16 50 20 51 7 66 24 30 33 -15 4 -20 14 -20 40 0 27 -3 34 -15 29
-11 -4 -15 2 -15 24 0 23 4 30 20 30 13 0 20 7 20 19 0 14 10 21 38 26 20 4
43 11 49 17 7 6 19 8 27 5 8 -3 17 1 20 9 3 8 12 14 20 14 20 0 25 33 7 50
-10 10 -34 15 -66 14 -27 -1 -40 1 -27 3 14 3 22 10 19 18 -4 8 5 15 24 19 29
5 29 6 29 76 0 99 -10 114 -67 105 -45 -7 -46 -6 -41 20 3 16 0 32 -9 41 -14
13 -12 14 13 9 20 -5 25 -4 16 3 -8 5 -12 11 -11 13 7 10 -27 68 -43 72 -10 3
-18 13 -18 22 0 9 4 14 9 11 5 -4 17 -3 26 0 13 5 14 8 3 15 -21 14 -60 11
-52 -3 6 -10 4 -10 -7 -1 -7 7 -30 13 -52 13 -23 0 -36 4 -32 10 4 6 -7 13
-24 16 -17 4 -31 12 -31 19 0 21 -37 24 -54 4 -9 -11 -16 -24 -16 -29 0 -6 -5
-10 -11 -10 -6 0 -29 -18 -50 -40 -42 -43 -52 -49 -43 -25 14 34 -31 147 -50
128 -3 -4 -6 -1 -6 5 0 7 4 12 8 12 5 0 9 6 9 13 1 6 20 55 43 107 50 111 65
164 45 156 -8 -3 -18 7 -25 25 -7 16 -18 32 -24 36 -6 3 -8 3 -4 -2 8 -8 -28
-45 -44 -45 -5 0 -6 -5 -2 -11 5 -8 1 -8 -14 0 -26 14 -72 14 -72 0 0 -5 -6
-7 -12 -3 -7 4 -10 4 -6 -1 7 -7 -27 -85 -38 -85 -3 0 -3 4 0 9 4 5 -9 39 -26
75 -30 59 -36 66 -69 71 -39 7 -173 -27 -185 -46 -3 -6 -13 -8 -21 -5 -8 3
-11 1 -8 -4 3 -6 2 -10 -3 -10 -5 0 -13 9 -18 19 -5 11 -28 35 -51 54 -23 19
-39 38 -35 43 4 5 -1 3 -10 -5 -12 -9 -44 -11 -107 -9 -88 3 -90 2 -96 -21 -7
-25 -39 -102 -60 -141 -8 -14 -27 -28 -47 -33 -42 -11 -44 -13 -28 -32 11 -13
11 -16 -1 -13 -9 2 -13 -4 -12 -17 1 -11 -2 -31 -7 -45 -8 -21 -19 -85 -54
-320 -3 -14 -7 -63 -11 -110 -4 -47 -12 -91 -18 -98 -7 -9 -6 -11 5 -7 11 4
17 -2 20 -20 3 -14 1 -28 -4 -31 -4 -3 -6 -9 -3 -14 5 -8 -76 -32 -84 -25 -2
3 10 8 26 11 22 4 32 13 36 30 2 13 1 24 -3 24 -13 0 -30 -26 -23 -34 4 -4 0
-4 -8 -1 -9 3 -22 -1 -29 -10 -14 -17 -40 -20 -40 -4 0 6 7 9 14 6 10 -4 13
-1 10 8 -4 11 -15 7 -46 -15 -56 -41 -104 -56 -122 -38 -9 10 -11 20 -4 31 13
25 31 22 18 -3 -9 -17 -8 -20 8 -20 10 0 27 7 38 15 10 8 26 15 34 15 20 1
100 99 100 122 0 23 -19 23 -50 -2 -30 -24 -40 -25 -40 -5 0 8 -4 15 -10 15
-5 0 -6 -7 -3 -17 4 -10 2 -14 -4 -10 -5 4 -21 -5 -34 -19 -39 -42 -100 -72
-159 -78 l-55 -6 58 13 c31 8 61 18 66 23 12 13 1 95 -14 100 -7 3 -29 -5 -51
-18 -21 -12 -46 -24 -55 -25 -16 -2 -15 2 3 50 11 28 24 71 30 94 9 41 10 41
35 28 15 -8 30 -12 35 -9 4 3 8 1 8 -4 0 -9 18 -15 75 -28 11 -3 47 -7 80 -9
33 -2 51 -1 40 1 -21 5 -38 35 -51 87 -3 15 -10 30 -15 33 -5 3 -9 16 -9 29 0
15 -9 29 -21 36 -12 6 -19 7 -15 1 3 -6 -11 -12 -34 -14 -22 -2 -40 -1 -40 2
0 3 -15 23 -34 43 -18 20 -42 60 -53 89 -13 37 -24 53 -36 52 -12 -1 -17 6
-17 23 0 21 -3 23 -32 19 -117 -18 -131 -18 -124 -1 3 9 2 13 -4 10 -5 -3 -12
10 -15 29 -4 19 -13 37 -20 39 -7 3 -15 17 -19 31 -3 14 -11 38 -18 53 -6 15
-12 30 -13 33 -1 3 -12 28 -24 55 -12 28 -25 62 -28 78 -4 20 -11 27 -29 27
-16 0 -28 8 -35 23 -16 34 -73 56 -125 46 -34 -7 -54 -3 -103 16 -64 25 -70
23 -73 -19 -1 -14 -8 -28 -14 -30 -16 -6 -78 -207 -104 -336 -12 -58 -25 -151
-30 -208 -4 -57 -10 -106 -13 -108 -5 -5 -70 10 -115 27 -25 9 -24 10 29 42
29 18 55 40 57 49 8 39 -108 49 -257 23 -47 -8 -87 -13 -89 -10 -3 2 14 12 37
21 22 9 38 20 35 25 -3 5 1 6 8 4 8 -3 22 1 33 9 11 9 15 16 8 16 -6 0 -9 8
-7 18 5 16 -13 30 -58 48 -10 3 -18 10 -18 15 0 21 -37 6 -52 -22 -15 -26 -20
-29 -39 -19 -11 7 -23 9 -26 6 -3 -3 9 -13 28 -21 l34 -16 -47 3 c-36 2 -49
-1 -52 -12 -3 -12 -4 -12 -5 1 -1 17 -58 32 -66 18 -3 -4 -22 -3 -42 2 -21 5
-61 9 -89 9 -28 0 -59 6 -70 15 -10 8 -23 14 -29 15 -5 0 -3 -5 5 -11 11 -7
-2 -8 -45 -3 -33 4 -68 7 -78 6 -10 0 -22 9 -27 21 -6 15 -9 17 -9 6 -1 -19
-35 -31 -49 -17 -6 6 -12 6 -16 -1 -4 -6 -12 -11 -17 -11 -6 0 -7 5 -4 10 5 9
-7 14 -26 12 -4 -1 -6 4 -6 11 1 39 -5 57 -18 57 -8 0 -15 -9 -15 -20 0 -23
-32 -43 -55 -34 -13 5 -15 14 -11 36 3 16 2 27 -2 24 -4 -2 -8 28 -9 67 -2 40
-5 90 -7 112 -3 22 -5 43 -5 48 -1 4 -12 7 -26 7 -24 0 -24 -2 -25 -77 -1 -43
-1 -89 -1 -101 1 -13 -9 -33 -22 -43 l-22 -20 25 13 c27 14 41 29 35 38 -2 3
5 6 16 6 23 0 23 2 0 -25 -11 -13 -17 -30 -14 -38 6 -14 0 -15 -42 -10 -26 4
-56 7 -67 7 -11 0 -16 4 -13 10 3 5 0 7 -9 4 -24 -9 -29 66 -23 320 7 246 14
305 42 336 18 20 18 20 53 -1 24 -13 37 -17 42 -9 11 18 -1 223 -16 258 -7 18
-19 31 -26 30 -10 -2 -12 13 -9 62 4 73 11 94 107 300 37 80 75 170 86 200 11
30 25 60 31 66 31 30 353 183 417 199 66 16 101 35 66 35 -17 0 -21 18 -8 35
4 6 75 32 157 59 83 27 191 66 240 88 50 22 189 73 310 115 121 42 231 80 245
86 27 11 36 13 63 15 10 1 15 6 12 12 -3 5 0 7 9 4 8 -3 21 -2 28 2 7 4 19 9
28 9 57 5 307 81 297 91 -2 2 -27 -4 -57 -12 -30 -8 -68 -17 -84 -19 -15 -2
-37 -7 -47 -10 -10 -3 -29 -8 -40 -11 -13 -4 -19 -2 -15 4 4 7 202 93 226 98
3 0 19 6 35 13 17 6 50 19 75 28 25 9 51 22 59 29 12 11 5 12 -40 7 -30 -3
-63 -5 -74 -5 -11 0 -60 -7 -110 -15 -49 -8 -126 -19 -170 -24 -44 -5 -172
-27 -285 -49 -224 -44 -223 -44 -216 -32 3 4 -8 13 -25 19 -21 8 -31 8 -36 0
-4 -7 -9 -2 -13 13 -6 23 -7 22 -19 -15 -23 -71 -37 -85 -74 -78 -17 3 -33 7
-34 7 -1 1 4 20 12 41 8 22 14 56 15 76 0 44 -19 101 -31 93 -5 -3 -9 0 -9 5
0 6 -6 11 -14 11 -11 0 -32 41 -23 45 1 1 52 9 112 18 132 20 235 43 246 54 4
4 11 20 14 35 11 44 -29 62 -154 68 -103 5 -149 -1 -311 -39 -25 -6 -227 -16
-449 -23 -352 -10 -401 -14 -385 -26 17 -13 12 -13 -44 -8 -35 4 -74 11 -85
15 -12 5 -69 12 -127 15 -141 10 -298 35 -334 53 -16 9 -79 22 -140 30 -371
47 -806 240 -1156 512 -214 167 -372 362 -607 751 -173 285 -413 663 -459 723
-57 74 -61 84 -73 187 -12 95 -71 428 -136 775 -86 455 -83 399 -45 690 11 83
31 268 46 413 14 145 32 282 40 305 33 91 87 481 129 927 14 151 32 302 39
335 13 59 13 60 25 31 51 -126 74 -176 86 -186 29 -24 25 13 -14 134 -69 215
-61 219 42 21 258 -496 476 -812 677 -980 104 -86 150 -113 223 -129 72 -16
167 -26 167 -17 0 4 -24 21 -52 38 -202 122 -547 457 -672 652 -45 70 -121
203 -121 211 0 3 -51 103 -112 222 -62 119 -113 221 -113 228 0 18 233 125
629 289 41 17 76 29 78 28 1 -2 21 -64 42 -138 74 -250 199 -581 330 -874 161
-357 188 -414 244 -520 33 -60 74 -136 91 -170 17 -33 40 -73 51 -89 23 -35
29 -36 -107 14 l-87 33 -31 -33 c-17 -18 -27 -36 -23 -40 8 -6 56 -22 151 -50
23 -7 40 -15 38 -17 -2 -2 -48 -14 -102 -28 -281 -68 -426 -124 -839 -326
-322 -157 -605 -344 -605 -400 0 -11 4 -19 10 -19 5 0 -39 -47 -97 -105 -85
-84 -104 -107 -94 -118 8 -11 8 -21 -3 -42 -16 -31 -10 -59 10 -51 8 3 20 -3
26 -14 16 -25 43 -25 133 -1 174 47 265 85 418 175 104 61 257 138 257 129 0
-5 -18 -40 -39 -79 -22 -40 -52 -112 -67 -160 -26 -81 -29 -100 -26 -214 3
-147 13 -188 87 -345 50 -107 62 -123 142 -202 48 -46 99 -91 114 -98 86 -45
306 -45 429 0 278 102 780 385 755 426 -3 5 5 21 19 36 29 31 105 199 113 250
6 33 5 35 -14 24 -12 -6 -24 -23 -28 -38 -3 -15 -14 -38 -24 -52 -10 -14 -28
-54 -40 -87 -19 -51 -34 -72 -88 -120 -74 -66 -160 -129 -277 -203 -73 -47
-162 -85 -326 -141 -36 -12 -103 -35 -149 -52 -58 -20 -102 -30 -146 -30 -94
0 -207 41 -272 99 -17 15 -51 42 -76 59 -57 40 -101 104 -122 178 -14 47 -15
60 -4 66 7 5 18 2 26 -6 15 -15 71 -16 79 -2 3 5 10 6 15 2 6 -3 35 6 65 21
31 15 65 27 77 27 48 0 113 -8 125 -16 8 -5 20 -2 31 8 10 9 21 13 25 9 4 -5
6 -2 4 6 -2 9 10 17 36 23 21 4 51 17 67 29 16 11 29 17 29 12 0 -4 5 0 11 10
5 9 17 17 25 17 8 0 20 12 27 28 15 35 63 79 109 99 l36 17 -13 35 c-18 47
-27 113 -14 106 5 -4 9 -1 9 6 0 7 3 10 6 6 3 -3 26 3 51 14 51 22 57 23 48 9
-3 -5 -2 -10 4 -10 5 0 21 -36 36 -79 14 -44 33 -82 41 -85 9 -3 28 8 49 29
29 31 35 33 48 21 16 -16 58 -10 56 8 -3 28 2 47 12 41 6 -4 9 0 7 11 -2 15 3
19 29 19 17 0 30 3 27 6 -2 3 13 6 32 7 20 1 32 -3 29 -8 -3 -6 -1 -10 4 -10
6 0 11 7 11 15 0 8 5 15 11 15 5 0 7 -4 4 -10 -10 -16 9 -12 66 14 30 14 97
37 149 52 52 15 96 28 97 29 2 1 -2 17 -7 36 -6 19 -15 63 -21 99 -17 105 -57
176 -152 267 -60 57 -105 91 -158 116 -74 36 -196 67 -264 67 -22 0 -34 4 -30
10 12 19 160 87 240 110 132 38 176 67 190 122 6 24 3 29 -20 38 -15 6 -49 7
-76 4 -27 -4 -49 -4 -49 -1 0 3 29 22 65 42 36 20 67 41 70 46 7 10 -27 19
-75 19 -19 0 -68 1 -109 3 -84 4 -69 -9 -164 138 -176 272 -488 988 -600 1374
-35 120 -90 430 -74 415 3 -3 32 -73 65 -156 108 -271 214 -469 417 -774 126
-189 348 -465 366 -454 6 3 2 18 -9 37 -22 35 -132 222 -165 277 -31 54 -9 27
106 -127 146 -194 241 -308 372 -441 170 -175 306 -278 400 -303 22 -6 54 -23
70 -38 34 -31 76 -51 108 -51 l21 0 -22 16 c-12 8 -22 22 -22 31 0 8 -49 77
-108 152 -60 75 -112 143 -117 151 -4 8 29 -21 73 -64 45 -44 84 -77 88 -73 3
3 -23 43 -58 89 -85 111 -131 178 -120 178 4 0 35 -21 68 -48 32 -26 82 -63
109 -83 46 -33 61 -41 90 -49 6 -2 15 -10 22 -19 11 -14 12 -14 13 2 0 9 -4
18 -10 18 -5 1 -14 3 -20 4 -5 1 -13 3 -16 4 -4 0 -1 7 5 15 10 11 8 17 -6 26
-21 13 -19 13 75 -13 32 -10 52 -11 52 -5 0 6 13 8 30 6 33 -5 38 3 15 26 -48
48 33 27 179 -46 67 -33 186 -90 266 -125 80 -35 161 -75 181 -89 20 -14 83
-45 140 -70 57 -25 151 -76 209 -114 58 -38 120 -72 138 -76 24 -5 45 -22 77
-63 24 -31 78 -86 119 -123 77 -70 100 -114 76 -143 -9 -11 -1 -40 41 -137 60
-141 65 -150 90 -143 12 4 19 -1 24 -15 7 -21 30 -27 40 -10 3 5 10 103 15
217 5 115 16 244 25 288 13 61 17 141 17 335 2 604 -92 1583 -262 2734 -27
187 -50 347 -49 355 0 9 45 -137 99 -324 90 -312 143 -457 184 -510 15 -19 15
-19 16 15 0 19 -4 51 -10 69 -19 68 -2 40 49 -79 173 -404 328 -734 421 -895
68 -116 67 -112 28 -120 -52 -10 -68 -16 -68 -23 0 -9 133 -8 147 1 24 15 157
28 253 26 157 -5 292 0 286 10 -3 4 76 7 177 6 175 -2 179 -1 107 11 -41 7
-187 13 -325 15 -204 2 -273 -1 -377 -16 -70 -10 -130 -17 -133 -14 -3 3 4 32
16 65 11 32 29 100 39 149 18 84 20 137 20 751 l0 661 78 7 c42 3 140 9 218
12 l141 7 163 -219 c90 -121 175 -230 190 -244 14 -14 96 -113 182 -220 190
-238 288 -347 416 -465 55 -49 181 -171 282 -270 100 -99 188 -182 194 -185
27 -12 86 -63 91 -81 4 -10 12 -19 19 -19 19 0 49 -37 41 -49 -3 -6 8 -23 25
-38 35 -29 48 -55 61 -122 10 -47 2 -121 -12 -121 -5 0 -22 21 -38 48 -16 26
-40 65 -54 87 -17 28 -25 56 -26 94 -1 29 -5 61 -10 70 -8 13 -11 11 -22 -11
-6 -15 -15 -26 -19 -23 -3 2 -7 -38 -8 -90 -1 -52 3 -97 8 -100 4 -3 16 -29
26 -57 9 -29 28 -75 41 -103 l24 -50 -6 45 c-3 25 -8 60 -12 79 l-6 34 30 -21
c24 -17 32 -32 37 -67 5 -29 12 -45 21 -45 21 0 42 -84 76 -306 45 -297 55
-476 40 -739 -12 -224 -39 -474 -66 -594 -8 -36 -26 -115 -40 -176 -14 -60
-37 -159 -50 -220 -48 -221 -141 -479 -215 -595 -29 -46 -48 -100 -34 -100 10
0 149 105 199 151 22 20 50 41 63 48 13 7 22 21 22 35 0 13 7 26 15 30 8 3 15
14 15 25 0 28 37 34 56 8 l15 -22 22 28 c15 17 32 27 50 27 21 0 37 14 80 73
30 39 67 95 83 122 l29 50 3 -59 c2 -32 -2 -90 -7 -127 -6 -37 -11 -100 -11
-139 0 -143 -47 -305 -151 -518 -75 -154 -105 -193 -229 -299 -81 -70 -157
-161 -143 -173 4 -4 33 -4 63 0 30 4 57 6 59 4 2 -2 -23 -31 -55 -66 -45 -49
-38 -43 31 23 50 47 120 109 157 137 l67 52 -36 -103 c-20 -56 -35 -118 -34
-137 2 -46 -20 -109 -59 -165 -17 -25 -37 -62 -44 -83 -23 -63 -114 -241 -155
-301 -21 -31 -61 -94 -89 -141 -38 -63 -82 -115 -171 -203 -109 -107 -171
-188 -171 -223 0 -7 -15 -23 -32 -35 -69 -47 -153 -138 -113 -123 10 4 15 0
15 -10 0 -25 22 -29 87 -16 82 16 515 156 593 192 105 48 267 117 333 142 72
27 228 104 340 169 l79 45 41 -24 c23 -13 61 -26 85 -30 26 -4 42 -11 42 -20
0 -8 11 -14 28 -15 97 -4 132 -9 163 -22 l34 -14 0 111 c0 103 3 117 35 196
19 47 35 90 36 95 15 68 16 75 4 75 -9 0 -8 5 3 18 26 28 21 32 -33 32 -59 0
-59 16 0 44 22 11 40 23 40 28 0 5 19 8 43 7 23 -1 52 3 65 10 42 23 380 499
423 597 11 24 21 44 23 44 2 0 11 -33 21 -72 25 -108 68 -191 119 -233 39 -32
45 -42 55 -97 6 -33 8 -65 5 -70 -20 -32 -291 -133 -412 -153 -33 -5 -46 -13
-58 -36 -8 -16 -12 -35 -8 -41 4 -7 3 -8 -4 -4 -9 5 -32 -21 -32 -37 0 -3 34
-3 75 -2 41 2 77 -1 81 -6 7 -12 74 -12 74 1 0 5 6 7 14 4 8 -3 16 4 19 18 13
51 77 91 77 49 0 -47 8 -51 64 -31 28 9 70 26 91 37 35 18 85 35 108 37 4 1
11 6 15 12 4 6 16 14 27 18 11 3 35 28 52 55 35 53 89 86 129 78 13 -2 24 0
24 5 0 5 4 7 9 3 6 -3 24 8 41 25 17 16 34 30 38 31 4 1 22 2 39 4 18 1 44 10
57 18 27 18 92 97 79 97 -4 0 -32 -13 -61 -29 -47 -26 -53 -28 -61 -13 -7 13
0 27 25 57 19 22 48 57 65 77 l30 37 -31 16 c-17 9 -36 27 -42 41 l-11 25 -31
-29 c-17 -15 -41 -36 -53 -46 -23 -19 -23 -19 -23 5 0 14 18 48 40 78 22 29
40 60 40 70 -1 17 -5 13 -77 -77 -22 -27 -48 -45 -79 -56 -26 -9 -48 -15 -50
-13 -1 1 5 79 15 172 16 164 18 172 53 230 51 85 85 157 168 350 69 160 74
177 86 285 7 63 28 176 48 250 114 438 151 939 100 1354 -8 66 -19 140 -25
165 -6 25 -11 161 -13 301 -2 228 -6 275 -33 445 -17 105 -34 213 -38 240 -9
75 -37 173 -130 460 -46 143 -102 321 -124 395 -22 74 -43 144 -47 155 -3 11
8 1 26 -22 17 -24 34 -43 36 -43 2 0 -38 84 -90 188 -51 103 -103 222 -115
265 -65 230 -166 498 -256 677 -186 370 -660 1070 -725 1070 -11 0 -19 -6 -17
-12 1 -7 -4 -12 -10 -11 -7 2 -13 -2 -13 -7 0 -6 -4 -10 -10 -10 -5 0 -10 13
-10 29 0 17 -28 77 -71 152 -150 259 -216 329 -309 329 l-28 0 19 -50 c10 -28
19 -59 19 -69 0 -11 54 -87 120 -170 67 -83 182 -235 256 -338 74 -104 161
-224 193 -268 50 -69 191 -307 191 -322 0 -3 -14 -21 -31 -41 l-31 -35 5 -296
c3 -175 12 -351 22 -431 8 -74 19 -198 24 -275 7 -136 7 -140 -16 -174 -14
-21 -23 -49 -23 -73 0 -31 -4 -40 -24 -48 -13 -5 -33 -18 -44 -30 l-19 -21
-12 63 c-25 132 -51 178 -102 178 -82 0 -92 -28 -97 -278 -4 -180 8 -473 25
-602 5 -37 3 -43 -8 -32 -7 6 -30 12 -51 12 -23 0 -51 9 -74 25 -46 31 -71 31
-115 2 -47 -31 -81 -99 -130 -262 -45 -150 -72 -195 -119 -195 -36 0 -85 -33
-99 -67 -10 -25 -16 -28 -49 -25 -28 3 -43 -2 -61 -19 -23 -22 -25 -22 -35 -5
-52 87 -87 116 -141 116 -28 0 -28 0 -55 155 -82 466 -145 750 -202 903 -24
63 -56 82 -95 57 -13 -9 -21 -20 -18 -25 4 -6 2 -10 -4 -10 -6 0 -20 35 -33
78 -36 125 -259 787 -353 1047 -113 312 -182 482 -211 522 -13 17 -42 72 -64
122 -22 50 -58 133 -81 184 -119 270 -302 612 -419 787 -112 167 -271 344
-303 337 -30 -5 -34 -35 -9 -63 42 -46 194 -257 254 -354 89 -142 217 -381
299 -559 38 -80 69 -149 69 -153 0 -5 -9 1 -21 13 -27 27 -33 20 -15 -17 55
-114 435 -1209 423 -1220 -1 -1 -33 6 -72 16 -118 30 -288 50 -468 56 -95 3
-183 7 -197 9 -14 2 -73 4 -131 4 l-107 1 -79 123 c-44 67 -119 187 -168 267
-142 233 -137 227 -145 206 -4 -14 -14 0 -40 55 -18 40 -43 88 -55 105 -12 18
-45 92 -74 165 -77 196 -84 210 -98 205 -13 -5 -33 50 -33 91 0 26 -77 364
-91 401 -17 43 9 13 56 -68 71 -122 76 -108 7 22 -64 120 -227 477 -269 588
-13 35 -28 69 -32 75 -5 5 -30 53 -57 105 -54 106 -100 180 -114 180 -5 0 -3
-19 5 -42z m590 -1583 c25 -61 63 -139 84 -175 21 -36 71 -128 109 -205 39
-77 90 -174 113 -215 48 -86 41 -80 -61 48 -40 50 -75 90 -77 88 -7 -6 68
-130 173 -283 58 -85 103 -157 101 -159 -10 -11 -362 -33 -367 -23 -4 5 -8 78
-9 161 -2 108 -9 190 -26 282 -13 72 -36 212 -50 311 -14 99 -30 198 -35 220
-23 99 -13 87 45 -50z m1488 -440 c31 -77 61 -162 68 -190 16 -72 89 -354 96
-373 4 -11 3 -14 -4 -7 -5 6 -31 87 -57 180 -38 135 -132 428 -180 560 -26 71
31 -54 77 -170z m2343 -551 c-6 -15 -42 -19 -49 -6 -3 4 -8 41 -11 82 l-6 75
35 -69 c20 -37 34 -74 31 -82z m-2571 -28 c77 -8 184 -20 238 -27 l98 -13 34
-111 c19 -60 63 -209 99 -330 36 -121 90 -283 121 -360 57 -141 207 -581 220
-644 l7 -34 -45 38 c-25 21 -77 73 -117 116 -44 48 -83 82 -100 86 -32 9 -373
320 -398 363 -9 15 -25 31 -36 36 -36 16 -262 270 -384 432 -99 131 -296 409
-327 461 -7 12 25 13 221 8 126 -4 292 -13 369 -21z m-5478 -398 c-3 -8 -6 -5
-6 6 -1 11 2 17 5 13 3 -3 4 -12 1 -19z m78 -316 c-11 -12 -40 76 -56 166 -29
159 -21 154 21 -13 21 -82 36 -152 35 -153z m3354 -70 c1 -18 -3 -31 -8 -28
-11 7 -20 66 -13 85 8 20 20 -14 21 -57z m-4364 -644 c-2 -13 -20 -100 -40
-195 -28 -142 -39 -176 -59 -196 -27 -27 -70 -155 -84 -250 l-9 -58 28 6 c16
4 29 3 29 -2 0 -4 -6 -64 -14 -133 -8 -69 -26 -244 -41 -390 -27 -283 -63
-522 -77 -514 -4 3 -8 12 -8 20 0 8 -9 23 -19 33 -11 11 -24 37 -30 58 -24 89
-49 456 -66 950 -7 199 -13 239 -38 237 -12 -1 -17 15 -22 81 -4 45 -5 90 -3
101 2 11 43 42 103 77 147 88 339 196 348 196 4 1 5 -9 2 -21z m4412 -213 l0
-60 -7 55 c-5 30 -8 91 -7 135 l0 80 7 -75 c4 -41 7 -102 7 -135z m3873 78 c0
-6 -18 -26 -40 -43 -22 -17 -40 -28 -40 -23 0 4 10 41 22 82 l22 75 18 -40
c10 -21 18 -44 18 -51z m-5865 -653 c3 -5 2 -10 -4 -10 -5 0 -13 5 -16 10 -3
6 -2 10 4 10 5 0 13 -4 16 -10z m7 -328 c15 -14 46 -52 70 -86 l42 -61 -49 42
c-28 23 -72 64 -98 91 -47 48 -48 49 -20 45 15 -3 40 -17 55 -31z m1583 -430
c-3 -3 -11 0 -18 7 -9 10 -8 11 6 5 10 -3 15 -9 12 -12z m462 -514 c-3 -7 -5
-2 -5 12 0 14 2 19 5 13 2 -7 2 -19 0 -25z m3673 -303 l23 -24 -23 -61 c-12
-33 -24 -59 -25 -58 -8 9 -15 168 -7 168 4 0 19 -11 32 -25z m-487 -172 c-26
-79 -45 -123 -59 -133 -11 -10 16 67 51 148 22 48 26 39 8 -15z m2101 -124
c-35 -138 -128 -421 -178 -543 l-23 -58 -5 64 c-7 82 -37 150 -88 197 l-40 37
36 161 37 161 56 7 c69 8 144 41 196 88 22 19 41 34 43 32 2 -2 -13 -68 -34
-146z m-2259 -146 c-18 -27 -146 -193 -150 -193 -5 0 65 194 74 203 6 6 26 10
46 9 20 -1 35 3 35 10 0 6 3 8 6 5 4 -4 -1 -19 -11 -34z m597 -839 l19 -56
-37 -44 c-20 -25 -37 -44 -39 -42 -2 2 3 46 11 98 7 52 13 99 14 104 0 19 14
-5 32 -60z m1121 -29 c41 -17 123 -20 161 -5 14 5 26 7 26 4 0 -4 -20 -39 -44
-79 -43 -70 -44 -75 -39 -134 4 -46 2 -66 -11 -85 -9 -14 -16 -36 -16 -48 0
-19 -2 -20 -10 -8 -6 10 -10 11 -10 3 0 -7 -4 -13 -10 -13 -5 0 -6 7 -3 17 4
11 3 14 -5 9 -7 -4 -12 -3 -12 2 0 5 -16 29 -35 53 -43 54 -65 123 -65 205 0
99 7 107 73 79z m-483 -362 c-99 -147 -304 -396 -418 -507 l-51 -49 -79 2
c-98 2 -111 -9 -59 -54 20 -18 37 -35 37 -38 0 -3 -42 -41 -93 -86 -116 -99
-292 -226 -412 -296 -90 -52 -223 -111 -232 -102 -2 3 98 119 224 259 125 140
325 364 443 498 118 135 254 286 302 336 l88 91 103 1 c58 0 122 7 147 15 25
8 47 13 48 11 2 -1 -20 -38 -48 -81z m-8440 -168 c73 -121 192 -314 265 -430
73 -115 136 -216 140 -224 15 -26 -93 -2 -174 39 -76 38 -77 38 -95 97 -10 32
-58 159 -106 283 -146 377 -183 477 -166 459 2 -2 63 -103 136 -224z m8450
-389 c0 -3 -4 -8 -10 -11 -5 -3 -10 -1 -10 4 0 6 5 11 10 11 6 0 10 -2 10 -4z
m164 -17 c3 -3 -6 -6 -20 -7 -14 -1 -23 2 -20 7 6 9 31 9 40 0z m-546 -151
c16 -44 -6 -58 -65 -42 -20 5 -20 8 -8 21 8 8 15 23 15 33 0 19 17 30 35 23 6
-2 16 -18 23 -35z m-9785 -147 c20 -26 37 -56 37 -67 0 -11 -3 -14 -9 -8 -12
12 -74 124 -69 124 2 0 21 -22 41 -49z m11087 -201 c0 -5 -5 -10 -11 -10 -5 0
-7 5 -4 10 3 6 8 10 11 10 2 0 4 -4 4 -10z m-110 -4 c0 -3 -4 -8 -10 -11 -5
-3 -10 -1 -10 4 0 6 5 11 10 11 6 0 10 -2 10 -4z m-26 -13 c8 -8 13 -10 43
-12 22 -1 11 -11 -18 -15 -13 -2 -37 -8 -52 -15 -52 -20 -61 -10 -27 27 21 23
41 28 54 15z m-183 -68 c23 7 23 6 4 -8 -11 -7 -30 -16 -42 -19 -20 -5 -21 -4
-11 18 7 16 14 20 18 13 5 -7 17 -8 31 -4z m99 11 c0 -2 -9 -6 -20 -9 -11 -3
-18 -1 -14 4 5 9 34 13 34 5z m62 -28 c-6 -7 -24 -21 -40 -30 -28 -17 -30 -17
-28 0 0 9 15 22 31 29 40 15 50 16 37 1z m-119 -38 c-10 -11 -19 -20 -21 -20
-1 0 2 9 8 20 6 11 15 20 20 20 6 0 2 -9 -7 -20z m-8876 -135 c68 -79 122
-153 143 -197 28 -57 -145 155 -205 252 -32 52 -30 51 62 -55z m-896 -435 c38
-20 45 -40 13 -40 -25 0 -95 40 -89 50 9 15 32 12 76 -10z m8764 -101 c35 -37
36 -40 11 -25 -16 10 -44 27 -63 38 -33 20 -39 29 -27 41 10 10 35 -8 79 -54z
m846 44 c13 -16 12 -17 -3 -4 -17 13 -22 21 -14 21 2 0 10 -8 17 -17z m-9344
-54 c73 -27 165 -57 205 -66 40 -9 67 -18 59 -21 -32 -11 -277 61 -373 109
-54 27 -80 50 -41 35 9 -4 77 -29 150 -57z m1069 -24 c18 -14 65 -43 106 -65
l73 -40 -77 0 -77 0 -19 43 c-10 23 -26 48 -35 56 -17 14 -23 31 -10 31 3 0
21 -11 39 -25z m5322 -15 c12 -7 -19 -9 -110 -9 -71 0 -128 4 -128 8 0 4 33
14 73 22 73 16 112 11 165 -21z m-421 8 c-3 -8 -6 -5 -6 6 -1 11 2 17 5 13 3
-3 4 -12 1 -19z m-5451 -54 c46 -27 58 -54 23 -54 -11 0 -18 4 -15 9 6 10 -25
16 -139 27 l-70 6 65 18 c88 23 86 23 136 -6z m3654 -20 c0 -22 -2 -24 -15
-14 -11 9 -12 15 -2 25 16 19 17 19 17 -11z m2730 -493 c0 -13 -12 -20 -26
-14 -20 8 -17 19 6 20 11 1 20 -2 20 -6z m1147 -1073 c-3 -8 -6 -5 -6 6 -1 11
2 17 5 13 3 -3 4 -12 1 -19z m-5041 -90 c1 -21 -4 -28 -17 -28 -25 0 -32 16
-18 38 17 27 34 23 35 -10z m-303 -1125 c-4 -10 -2 -14 4 -10 5 3 10 0 10 -8
0 -8 -5 -15 -11 -15 -6 0 -6 -4 2 -8 18 -12 24 -52 7 -52 -19 0 -29 -20 -16
-33 7 -7 7 -14 0 -24 -9 -10 -8 -13 4 -13 20 0 42 26 27 33 -6 3 -5 4 2 3 14
-3 35 -83 24 -93 -9 -9 -62 24 -58 37 1 5 -4 9 -10 8 -9 -2 -12 9 -10 35 3 30
0 37 -15 38 -13 1 -14 2 -3 5 11 3 16 19 18 51 1 26 7 50 14 55 18 11 18 10
11 -9z m-83 -28 c10 -12 10 -15 -4 -15 -9 0 -16 7 -16 15 0 8 2 15 4 15 2 0 9
-7 16 -15z m2706 -7 c0 -10 -1 -18 -3 -18 -1 0 -7 8 -12 18 -7 13 -6 19 2 19
7 0 13 -9 13 -19z m-1996 -42 c0 -13 -72 -46 -100 -46 -43 0 -32 11 33 32 58
18 67 20 67 14z m-593 -32 c-3 -3 -12 -4 -19 -1 -8 3 -5 6 6 6 11 1 17 -2 13
-5z m6088 -153 c-2 -2 5 -11 16 -20 20 -16 20 -17 2 -101 -16 -74 -18 -132
-17 -450 0 -268 5 -400 16 -495 12 -97 13 -132 4 -137 -21 -14 -51 -8 -64 13
-23 37 -31 7 -23 -86 13 -153 1 -138 -85 103 -117 327 -115 395 22 887 82 296
81 293 109 291 13 0 22 -3 20 -5z m-1834 -66 c-1 -15 -24 -12 -29 3 -3 9 2 13
12 10 10 -1 17 -7 17 -13z m-1538 -30 c-3 -9 -8 -14 -10 -11 -3 3 -2 9 2 15 9
16 15 13 8 -4z m665 -450 c-3 -3 -9 2 -12 12 -6 14 -5 15 5 6 7 -7 10 -15 7
-18z m-8 -19 c0 -2 -7 -7 -16 -10 -8 -3 -12 -2 -9 4 6 10 25 14 25 6z m2175
-234 c1 -189 9 -231 58 -285 33 -35 34 -40 39 -134 5 -92 8 -104 56 -205 47
-100 110 -203 155 -255 12 -13 17 -29 13 -39 -4 -10 1 -22 11 -30 19 -14 22
-13 -39 -18 -21 -2 -78 -58 -71 -69 3 -6 1 -7 -4 -4 -6 4 -18 -2 -28 -13 -10
-11 -15 -20 -12 -20 3 0 -1 -16 -9 -36 -40 -96 -22 -193 48 -263 36 -35 125
-81 158 -81 6 0 8 -24 5 -55 -3 -30 -1 -55 4 -55 12 0 35 -59 26 -68 -4 -4
-17 6 -30 22 l-24 30 22 -70 c19 -63 24 -70 44 -66 44 8 75 -10 162 -96 48
-48 100 -95 114 -105 15 -10 50 -50 77 -88 l49 -71 -37 -49 c-20 -27 -40 -49
-44 -49 -5 0 -28 -20 -52 -45 -59 -59 -73 -121 -52 -223 7 -32 16 -43 28 -36
6 4 8 2 4 -4 -8 -14 52 -60 90 -68 23 -4 34 0 53 20 19 20 27 23 38 15 9 -8
13 -8 13 0 0 6 -5 11 -12 11 -6 0 -3 10 8 23 10 12 2 6 -19 -12 -20 -19 -37
-30 -37 -25 0 22 52 59 88 62 81 9 97 7 94 -7 -3 -12 0 -12 12 -1 12 9 16 9
16 1 0 -7 4 -10 9 -7 5 3 14 -1 20 -8 16 -19 -22 -46 -62 -46 -67 0 -127 -58
-141 -134 -3 -16 -7 -31 -10 -33 -7 -7 74 -165 184 -363 51 -91 131 -235 178
-320 396 -723 377 -692 505 -832 105 -114 121 -128 151 -128 38 0 97 36 111
68 5 12 13 22 16 22 9 0 75 -157 96 -229 9 -31 29 -108 44 -171 15 -63 43
-160 62 -215 43 -122 79 -307 111 -566 26 -204 32 -236 72 -379 13 -47 30
-132 37 -188 12 -93 12 -102 -2 -96 -9 3 -38 9 -65 12 -44 4 -48 3 -43 -14 3
-11 12 -55 21 -99 8 -44 26 -141 40 -215 36 -190 36 -188 43 -264 6 -66 5 -69
-13 -61 -10 4 -29 10 -41 12 -13 3 -23 9 -23 14 0 4 -24 9 -52 11 -38 2 -52 7
-50 16 1 8 -2 11 -9 7 -11 -7 -69 48 -69 66 0 5 -8 9 -18 9 -20 0 -46 49 -58
110 -3 19 -15 50 -26 67 -19 33 -55 209 -114 573 -38 229 -43 165 -10 -110 14
-120 33 -229 45 -264 25 -71 26 -86 5 -86 -11 0 -14 5 -10 16 6 15 4 15 -10 3
-11 -9 -19 -10 -21 -4 -2 6 -22 9 -44 7 -25 -3 -39 0 -36 5 4 5 -9 9 -29 8
-24 0 -44 -10 -67 -33 -31 -31 -32 -36 -31 -108 l1 -75 -57 173 c-62 190 -94
263 -112 252 -6 -4 -8 -3 -5 3 8 12 -51 43 -81 43 -12 0 -33 -5 -49 -11 -15
-7 -41 -12 -58 -13 l-30 -1 1 -75 c1 -75 31 -239 84 -465 16 -66 28 -121 26
-122 -2 -2 -20 43 -41 99 -20 57 -50 130 -65 163 -15 33 -37 81 -48 106 -23
54 -33 67 -119 152 -35 34 -63 70 -63 80 0 9 -5 17 -11 17 -5 0 -8 3 -6 7 3 5
-14 9 -36 11 -23 2 -52 9 -64 17 -12 8 -31 15 -41 15 -11 0 -31 9 -45 20 -14
12 -40 20 -61 20 -30 0 -36 -4 -36 -21 0 -12 -4 -17 -11 -13 -6 3 -8 15 -6 26
7 27 -6 59 -37 93 -14 15 -26 33 -26 39 0 14 -106 40 -122 30 -6 -4 -8 -3 -4
4 3 6 -2 13 -12 16 -11 4 -25 24 -32 47 -8 23 -20 43 -27 46 -7 3 -10 9 -7 14
3 5 -2 6 -10 3 -9 -3 -16 -1 -16 6 0 6 -4 9 -8 6 -10 -6 -153 -7 -259 -2 l-71
3 -52 -50 c-29 -28 -49 -55 -46 -63 3 -8 1 -13 -3 -11 -5 1 -9 -2 -9 -7 0 -5
-7 -13 -16 -18 -9 -5 -14 -13 -11 -19 4 -5 0 -9 -7 -9 -8 0 -14 -10 -15 -22 0
-13 -4 -88 -9 -168 l-8 -145 -22 255 c-19 232 -20 260 -6 311 15 59 10 129
-10 129 -5 0 -7 7 -4 16 3 8 2 13 -2 10 -5 -3 -16 8 -26 25 -14 24 -23 29 -57
29 -22 0 -38 -4 -35 -9 4 -5 -2 -8 -11 -7 -12 2 -22 23 -35 72 -10 38 -18 79
-18 92 0 12 -4 22 -8 22 -14 0 -84 560 -81 645 2 57 -70 772 -91 900 -10 66
-24 172 -30 235 -26 284 -122 747 -165 798 -20 24 -27 61 -63 357 -23 182 -46
384 -52 450 -46 500 -63 564 -154 555 -10 -1 -29 1 -41 4 -22 6 -23 8 -10 33
12 24 12 38 0 93 -18 84 -18 83 5 77 14 -4 20 0 20 11 0 13 3 12 15 -4 19 -25
19 -10 -1 46 -21 60 -81 139 -143 186 -28 22 -50 44 -51 51 0 6 -12 21 -27 34
l-28 22 80 -7 c300 -26 684 -121 875 -216 60 -30 91 -38 156 -44 72 -5 83 -4
98 13 11 12 15 27 12 38 -7 23 -122 134 -164 159 -26 15 -31 26 -42 89 -14 84
0 216 50 450 16 77 44 211 61 298 18 86 32 157 33 157 1 0 1 -75 1 -168z
m-8057 -402 l-3 -60 -32 5 c-18 3 -49 7 -68 10 -19 3 -35 9 -35 14 0 4 13 6
28 3 34 -5 61 20 43 41 -6 8 -8 17 -4 20 3 4 -2 7 -13 8 -18 0 -18 1 1 9 11 5
35 9 53 9 l32 1 -2 -60z m-313 20 c-3 -5 -14 -10 -23 -9 -14 0 -13 2 3 9 27
11 27 11 20 0z m-305 -40 c0 -5 -2 -10 -4 -10 -3 0 -8 5 -11 10 -3 6 -1 10 4
10 6 0 11 -4 11 -10z m690 -31 c0 -5 -7 -9 -15 -9 -15 0 -20 12 -9 23 8 8 24
-1 24 -14z m7020 -59 l-40 -80 -64 0 c-96 0 -107 9 -42 35 53 22 141 80 166
110 24 29 20 14 -20 -65z m-7696 2 c2 -4 -5 -9 -17 -9 -17 -2 -19 0 -7 7 18
12 18 12 24 2z m2531 -234 c-20 -35 -43 -78 -51 -97 l-16 -34 -23 29 c-14 16
-23 32 -22 36 2 7 139 127 145 128 2 0 -13 -28 -33 -62z m2116 -79 c24 -12 16
-29 -14 -29 -21 0 -102 -19 -152 -35 -20 -7 -20 -6 -1 9 11 9 16 19 13 23 -4
3 5 15 20 25 31 20 103 24 134 7z m2109 -5 c141 -3 288 -2 328 3 l74 10 90
-106 c50 -58 97 -112 103 -119 9 -10 20 -10 58 0 45 12 48 11 73 -14 22 -21
24 -29 15 -46 -19 -35 -13 -84 34 -264 92 -356 105 -426 115 -637 6 -108 15
-245 20 -306 14 -161 16 -152 -22 -148 -114 14 -255 38 -356 63 -83 20 -157
30 -252 35 -341 16 -883 79 -1045 120 -54 13 -99 26 -101 28 -2 2 -16 52 -32
113 -29 110 -80 276 -192 633 -58 185 -80 291 -60 291 6 0 21 18 35 40 21 33
31 40 58 41 31 0 31 1 7 10 -14 6 -40 9 -58 7 -33 -3 -35 -1 -58 60 l-23 62
107 -1 c59 0 168 -4 242 -8 135 -8 275 -1 404 20 82 13 116 41 116 97 0 33 1
34 33 28 17 -3 147 -8 287 -12z m-1340 -156 c0 -17 7 -57 16 -90 15 -60 15
-60 -10 -83 -19 -17 -22 -25 -13 -35 8 -9 9 -11 1 -7 -7 4 -15 -3 -19 -16 -6
-19 -9 -16 -21 23 -17 52 -53 208 -54 230 0 12 11 14 50 12 48 -4 50 -5 50
-34z m-2294 -155 c-4 -38 -14 -119 -22 -182 -10 -71 -13 -145 -10 -195 6 -71
4 -86 -16 -125 -17 -33 -29 -45 -47 -46 -22 -2 -23 1 -17 44 8 66 109 571 114
571 2 0 1 -30 -2 -67z m1958 15 c10 -61 56 -437 56 -455 -1 -16 -1 -17 -10 -1
-9 15 -13 15 -40 1 -17 -8 -30 -21 -30 -29 0 -42 -42 -103 -95 -138 -30 -21
-55 -42 -55 -47 0 -6 -9 -24 -20 -40 -12 -16 -20 -36 -18 -46 2 -13 -23 -32
-97 -73 -55 -30 -116 -72 -136 -92 -20 -20 -49 -40 -65 -44 -16 -3 -49 -19
-74 -34 -25 -15 -58 -31 -75 -34 -16 -4 -96 -40 -176 -81 -80 -41 -149 -72
-152 -69 -3 4 -24 -9 -46 -28 -45 -38 -98 -58 -157 -58 -35 -1 -37 -2 -21 -14
15 -12 11 -16 -42 -40 -68 -30 -71 -31 -71 -11 0 23 -23 28 -69 15 -44 -12
-34 -15 -249 100 -70 37 -151 117 -128 126 11 4 16 19 16 46 0 91 71 153 312
270 73 36 89 48 98 74 21 63 60 84 415 229 252 103 413 191 401 220 -3 8 -1
15 5 15 6 0 8 9 4 20 -4 13 -1 22 9 26 8 3 20 21 26 39 9 27 20 36 54 48 25 9
49 11 57 6 7 -4 16 -5 19 -1 27 37 260 132 322 132 23 0 28 -5 32 -32z m-987
-60 c-3 -7 -5 -2 -5 12 0 14 2 19 5 13 2 -7 2 -19 0 -25z m46 -11 c7 4 6 -1
-2 -10 -14 -18 -14 -18 28 -21 8 -1 22 -15 32 -33 16 -28 16 -32 2 -37 -8 -3
-18 -4 -22 -1 -13 8 -33 -40 -29 -71 4 -40 18 -37 169 29 176 78 202 81 94 12
-151 -97 -173 -108 -208 -102 -26 4 -54 -8 -154 -65 -67 -38 -184 -98 -259
-134 -76 -36 -156 -81 -178 -100 -38 -33 -310 -174 -335 -174 -13 0 -14 30 -2
49 5 8 18 16 28 17 38 6 371 167 482 234 64 37 129 74 144 81 18 8 38 32 53
61 38 75 93 158 106 158 7 0 7 4 -1 14 -9 11 -9 15 1 19 8 4 7 6 -4 6 -11 1
-15 6 -12 16 4 8 11 12 17 8 5 -3 7 -1 4 4 -4 6 1 26 11 44 15 31 17 32 20 11
2 -14 8 -20 15 -15z m-2713 -163 c0 -13 -7 -15 -37 -9 -66 12 -73 24 -15 25
41 0 52 -3 52 -16z m-1877 -73 c35 -17 76 -31 91 -31 14 0 42 -7 61 -14 19 -8
35 -12 35 -9 0 3 8 -1 18 -10 32 -28 96 -36 372 -42 246 -5 405 -17 419 -31 2
-2 -4 -11 -15 -18 -18 -14 -18 -15 6 -24 69 -26 210 -128 210 -152 0 -5 4 -10
8 -10 5 0 9 -6 10 -12 14 -134 14 -148 -2 -194 -19 -57 -19 -57 -3 -48 6 4 1
-4 -13 -18 -123 -125 -126 -129 -161 -238 -22 -70 -42 -113 -59 -129 -14 -13
-37 -35 -51 -48 l-25 -23 -56 19 c-30 10 -69 26 -86 35 -18 9 -32 15 -32 14 0
-2 7 -28 15 -58 8 -30 15 -81 15 -112 0 -32 3 -58 8 -58 4 0 16 -3 27 -6 16
-4 23 2 33 29 7 19 19 40 26 46 8 6 -15 -76 -50 -183 -34 -107 -68 -214 -74
-237 l-12 -42 -22 55 c-40 98 -100 167 -197 226 -20 12 -64 57 -97 100 -70 90
-126 128 -257 172 -115 39 -250 60 -391 60 l-111 0 -5 64 c-10 118 -76 214
-179 261 -55 24 -71 27 -138 23 -89 -5 -145 -30 -209 -92 -37 -35 -42 -37 -34
-16 45 118 129 239 262 377 295 303 449 415 562 407 21 -1 66 -16 101 -33z
m3036 -210 c1 -29 -1 -32 -14 -21 -11 9 -15 30 -14 74 l1 61 13 -40 c8 -22 14
-55 14 -74z m2609 -126 c22 -47 15 -98 -19 -146 -17 -24 -26 -38 -18 -31 24
22 94 15 128 -14 17 -14 31 -31 31 -38 0 -7 13 -33 30 -57 38 -57 46 -109 26
-184 l-15 -60 30 -32 c23 -23 33 -44 37 -79 3 -34 2 -45 -7 -40 -6 4 -11 22
-12 39 l0 32 -34 -40 c-50 -58 -244 -334 -316 -449 -34 -54 -79 -115 -101
-135 -22 -20 -65 -62 -96 -93 -31 -32 -77 -67 -102 -78 -25 -12 -65 -33 -90
-46 -53 -29 -82 -27 -138 13 -64 46 -77 69 -77 143 0 87 19 184 45 224 11 18
20 44 20 57 0 32 58 152 111 231 24 35 99 137 167 228 69 91 130 181 135 200
15 52 227 380 246 380 4 0 13 -11 19 -25z m-3893 -65 c14 -5 70 -47 123 -93
118 -102 219 -176 517 -382 519 -358 653 -528 554 -702 -35 -61 -64 -84 -117
-93 -37 -6 -42 -16 -27 -52 5 -13 -24 -4 -112 36 -123 56 -203 86 -229 86 -8
0 -69 20 -136 45 -67 25 -131 45 -143 45 -12 0 -39 14 -62 30 -45 33 -215 90
-272 90 -41 0 -103 27 -142 62 -32 28 -88 114 -118 182 -12 28 -45 75 -75 105
-29 31 -58 72 -65 92 -7 22 -10 83 -9 156 l3 121 53 61 53 61 -20 26 c-28 36
-27 41 13 54 18 6 42 20 52 32 38 42 106 58 159 38z m1344 -633 c5 -18 15 -51
21 -75 8 -31 18 -46 36 -52 21 -8 24 -15 24 -63 0 -30 -3 -57 -7 -61 -5 -4 -6
-86 -4 -182 3 -150 1 -174 -12 -174 -17 0 -29 47 -32 125 -1 28 -18 115 -38
195 -19 80 -43 186 -52 235 -9 50 -29 119 -46 154 -16 35 -29 67 -29 72 0 4
19 21 43 37 l42 30 22 -105 c12 -57 26 -118 32 -136z m1993 70 c-17 -23 -65
-91 -107 -152 -41 -60 -86 -123 -99 -140 l-24 -30 -7 28 c-11 43 2 75 44 105
46 32 73 73 75 113 1 24 14 38 71 79 38 27 71 47 74 45 2 -3 -10 -24 -27 -48z
m-3706 -241 c18 -71 19 -86 7 -101 -34 -47 -2 -157 60 -208 23 -19 51 -37 62
-41 37 -12 63 -68 90 -196 14 -69 37 -161 50 -205 14 -44 32 -125 40 -180 9
-55 44 -192 79 -305 150 -481 162 -528 146 -612 -6 -29 -15 -65 -21 -80 -8
-19 -8 -32 1 -47 9 -18 8 -21 -9 -21 -11 0 -25 -8 -30 -19 -6 -10 -24 -24 -41
-31 -35 -15 -109 -8 -121 11 -6 10 -13 10 -36 0 -57 -27 -84 -30 -124 -17 -41
14 -49 11 -63 -28 -7 -19 -7 -19 -26 0 -33 33 -108 198 -160 349 -49 145 -120
409 -120 448 0 11 -23 65 -51 120 -68 133 -89 197 -89 272 0 49 -4 66 -20 80
-11 10 -20 30 -20 44 1 50 49 286 60 289 5 2 10 9 10 15 0 7 9 29 20 50 15 28
20 56 20 113 0 73 1 77 34 108 18 17 40 36 49 43 8 7 18 36 22 65 9 69 34 123
81 177 l38 44 21 -27 c11 -15 29 -65 41 -110z m2025 -169 c13 -7 26 -19 28
-27 11 -48 10 -69 -4 -83 -13 -14 -12 -18 10 -45 l25 -30 -32 -27 c-29 -25
-32 -26 -39 -8 -8 22 -22 233 -16 233 3 0 15 -6 28 -13z m2258 -339 c1 -26 0
-27 -26 -16 -54 23 -56 30 -21 79 l32 44 8 -40 c4 -22 7 -52 7 -67z m-394
-228 c-15 -29 -34 -38 -49 -23 -6 7 42 52 57 53 4 0 1 -13 -8 -30z m-3223
-692 c6 -16 14 -28 19 -28 13 0 119 -372 119 -417 0 -9 -60 -38 -65 -31 -1 2
-18 68 -38 148 -34 136 -62 292 -73 405 l-4 50 15 -50 c9 -27 21 -62 27 -77z
m2799 -8 c19 -6 46 -10 62 -10 50 0 185 -77 323 -183 42 -32 77 -57 79 -55 8
10 35 69 35 78 0 6 -15 19 -33 30 l-33 20 55 58 c50 52 59 57 79 48 18 -7 22
-15 17 -30 -21 -67 -35 -137 -35 -179 0 -27 -5 -58 -11 -69 -6 -12 -19 -60
-29 -107 l-18 -86 -17 40 c-27 64 -102 162 -156 205 -28 22 -79 54 -115 71
-36 17 -97 59 -136 95 -40 35 -86 69 -104 76 -18 6 -35 20 -38 31 -4 18 -3 18
18 -2 13 -12 38 -26 57 -31z m-2288 -407 c-7 -2 -19 -2 -25 0 -7 3 -2 5 12 5
14 0 19 -2 13 -5z m-908 -510 c-3 -10 -12 -38 -18 -62 l-12 -43 -47 5 c-46 6
-46 6 -62 -32 -23 -58 -44 -189 -56 -345 -6 -76 -13 -143 -17 -148 -3 -6 -14
3 -25 19 -15 23 -18 39 -13 93 3 36 10 148 15 249 12 204 7 192 88 232 37 18
118 45 146 48 4 1 5 -7 1 -16z m12355 -363 c0 -5 -2 -10 -4 -10 -3 0 -8 5 -11
10 -3 6 -1 10 4 10 6 0 11 -4 11 -10z m390 -444 c0 -3 -4 -8 -10 -11 -5 -3
-10 -1 -10 4 0 6 5 11 10 11 6 0 10 -2 10 -4z m-8951 -215 c7 -23 15 -49 18
-57 3 -8 -1 -14 -10 -14 -10 0 -17 15 -21 48 -4 26 -10 56 -13 67 -3 13 -2 16
4 10 5 -5 15 -30 22 -54z m6361 -2155 c-12 -12 -13 33 -2 114 l7 55 3 -79 c2
-46 -2 -84 -8 -90z"/>
<path d="M7320 18626 c0 -8 -3 -23 -6 -33 -3 -10 2 -7 10 7 18 30 20 40 6 40
-5 0 -10 -6 -10 -14z"/>
<path d="M15760 8099 c0 -8 -3 -23 -6 -35 -5 -18 1 -23 40 -33 58 -14 66 -14
66 4 0 8 -15 22 -32 31 -18 9 -41 23 -50 32 -15 12 -18 13 -18 1z"/>
<path d="M15737 6505 c-5 -11 5 -27 30 -52 23 -21 39 -30 41 -23 3 7 -7 22
-21 34 -14 11 -29 29 -34 40 -9 17 -11 17 -16 1z"/>
<path d="M15821 5746 c-1 -5 17 -66 39 -137 35 -111 50 -143 115 -239 77 -115
83 -116 62 -17 -11 52 -16 60 -52 80 -37 21 -44 32 -97 162 -68 166 -66 162
-67 151z"/>
<path d="M17482 3310 c0 -14 2 -19 5 -12 2 6 2 18 0 25 -3 6 -5 1 -5 -13z"/>
<path d="M17985 2900 c3 -5 8 -10 11 -10 2 0 4 5 4 10 0 6 -5 10 -11 10 -5 0
-7 -4 -4 -10z"/>
<path d="M11668 7698 c11 -14 9 -19 -10 -32 -32 -23 -15 -20 24 4 29 17 30 20
12 26 -10 4 -23 10 -29 12 -5 3 -4 -1 3 -10z"/>
<path d="M11028 7633 c7 -3 16 -2 19 1 4 3 -2 6 -13 5 -11 0 -14 -3 -6 -6z"/>
<path d="M7360 7386 c0 -2 9 -6 20 -9 11 -3 20 -1 20 4 0 5 -9 9 -20 9 -11 0
-20 -2 -20 -4z"/>
<path d="M13120 22670 c0 -5 10 -10 23 -10 18 0 19 2 7 10 -19 13 -30 13 -30
0z"/>
<path d="M12535 21800 c9 -16 18 -30 21 -30 2 0 -2 14 -11 30 -9 17 -18 30
-21 30 -2 0 2 -13 11 -30z"/>
<path d="M3425 21779 c-220 -73 -576 -284 -810 -478 -134 -112 -360 -334 -463
-456 -292 -346 -559 -801 -673 -1146 -49 -150 -77 -299 -92 -481 -13 -174 -3
-270 37 -350 49 -100 138 -128 201 -65 45 45 52 78 29 130 -16 34 -19 63 -17
157 5 253 71 496 212 773 305 603 741 1099 1245 1417 166 104 441 235 472 223
17 -6 32 -51 39 -121 7 -64 -12 -199 -47 -331 l-23 -84 -118 -47 c-406 -165
-718 -433 -1060 -911 -232 -323 -342 -580 -413 -959 -48 -256 -30 -398 61
-486 105 -102 229 -80 392 70 330 306 1085 1399 1269 1838 21 50 40 86 42 80
2 -7 -8 -60 -23 -119 -90 -362 -226 -648 -458 -966 -122 -167 -137 -194 -137
-253 0 -111 99 -180 216 -151 31 8 31 7 38 -33 10 -62 59 -111 119 -117 98
-11 136 30 211 226 60 156 65 201 34 261 -13 25 -37 54 -55 65 -18 11 -32 24
-33 29 0 4 29 56 64 115 135 226 195 359 259 571 52 172 70 279 65 380 -5 110
-35 176 -124 270 l-63 67 19 69 c76 264 80 518 9 656 -31 61 -108 138 -164
164 -71 34 -146 32 -260 -7z m-46 -1236 c-18 -48 -119 -232 -212 -387 -264
-442 -730 -1083 -912 -1256 l-37 -35 7 40 c75 436 185 678 485 1067 107 139
353 391 448 458 70 51 213 139 224 140 4 0 3 -12 -3 -27z"/>
<path d="M6490 21370 c-6 -11 -8 -20 -6 -20 3 0 10 9 16 20 6 11 8 20 6 20 -3
0 -10 -9 -16 -20z"/>
<path d="M6392 21213 c-225 -363 -441 -792 -507 -1009 -15 -49 -3 -83 17 -49
6 11 30 40 53 65 29 31 49 66 65 113 15 45 34 80 57 103 27 27 50 73 98 197
92 239 197 482 272 631 19 37 32 70 30 73 -3 2 -41 -53 -85 -124z"/>
<path d="M12105 20220 c-3 -5 -1 -10 4 -10 6 0 11 5 11 10 0 6 -2 10 -4 10 -3
0 -8 -4 -11 -10z"/>
<path d="M20980 19840 c-52 -11 -162 -24 -245 -29 -224 -16 -253 -19 -600 -62
-713 -89 -1073 -155 -1591 -293 -239 -64 -563 -162 -576 -174 -3 -4 11 -36 32
-72 22 -36 39 -68 40 -73 0 -15 -55 5 -74 27 -10 11 -32 47 -48 79 -16 33 -31
57 -33 55 -2 -2 36 -125 85 -273 101 -307 137 -456 149 -618 5 -61 21 -159 35
-217 14 -58 41 -193 61 -300 40 -221 57 -295 84 -354 20 -45 124 -187 166
-226 26 -24 25 -23 -10 55 -20 44 -46 100 -57 125 -17 37 -21 70 -23 190 -6
275 -64 577 -177 915 -70 211 -152 504 -144 513 3 2 20 -25 38 -62 18 -36 35
-66 39 -66 4 0 53 29 110 65 262 165 743 365 1093 455 406 104 988 130 1279
56 173 -44 346 -130 449 -225 131 -120 176 -308 128 -542 -38 -187 -120 -367
-264 -583 -138 -206 -258 -350 -559 -667 l-157 -166 -70 5 c-87 6 -141 -13
-194 -67 -50 -51 -70 -121 -55 -193 6 -27 9 -51 7 -52 -1 -2 -111 -58 -243
-126 -132 -67 -289 -150 -348 -183 l-109 -61 -86 12 c-188 26 -440 32 -551 12
-30 -6 -81 -10 -114 -10 -52 0 -58 -2 -52 -17 8 -21 55 -157 55 -160 0 -2 4
-3 9 -3 5 0 11 9 14 20 5 21 40 27 65 11 18 -11 241 49 344 93 76 33 87 35
123 25 23 -7 67 -9 105 -5 l65 6 -75 -49 c-41 -27 -119 -76 -172 -110 -155
-99 -208 -169 -208 -276 0 -133 117 -245 257 -245 19 0 63 -8 97 -17 76 -21
317 -23 426 -4 335 58 460 139 615 397 l78 131 262 -128 c144 -70 276 -136
292 -146 17 -10 117 -100 224 -200 107 -100 230 -211 274 -248 95 -79 305
-239 334 -255 l21 -11 0 419 0 419 -177 97 c-98 53 -319 168 -491 254 -233
116 -326 168 -365 203 l-52 46 27 34 c14 19 95 111 178 204 460 513 722 886
849 1208 l31 78 0 455 0 455 -26 52 c-68 135 -180 253 -338 358 -102 67 -106
68 -256 39z"/>
<path d="M5566 19245 c-3 -8 -1 -15 4 -15 5 0 11 -8 13 -17 3 -10 5 -3 6 15 1
33 -12 44 -23 17z"/>
<path d="M17277 19119 c4 -13 8 -18 11 -10 2 7 -1 18 -6 23 -8 8 -9 4 -5 -13z"/>
<path d="M5529 19108 c0 -2 -9 -34 -20 -73 -33 -119 -70 -269 -73 -300 -2 -16
-8 -41 -14 -55 -13 -29 -39 -128 -47 -182 -3 -21 -17 -88 -31 -150 -31 -142
-94 -496 -93 -523 0 -18 141 593 154 670 2 17 14 66 25 109 10 44 22 91 24
105 3 14 26 105 51 201 30 111 42 176 36 178 -6 2 -9 8 -5 13 3 5 3 9 0 9 -3
0 -6 -1 -7 -2z"/>
<path d="M12590 18543 c0 -61 16 -74 30 -24 12 44 8 61 -16 61 -10 0 -14 -11
-14 -37z"/>
<path d="M17524 18515 c16 -70 28 -107 32 -103 5 5 -24 120 -33 128 -3 3 -3
-8 1 -25z"/>
<path d="M13170 18519 c-149 -11 -288 -36 -383 -68 -45 -16 -116 -36 -157 -45
-162 -38 -265 -71 -353 -115 -92 -46 -92 -46 -99 -91 -5 -26 -4 -48 2 -54 20
-20 9 -33 -37 -47 -31 -9 -49 -20 -51 -31 -4 -23 48 -24 150 -2 40 8 87 12
104 9 29 -5 78 -1 254 21 l55 7 -48 -56 c-51 -60 -126 -188 -145 -247 -20 -63
-24 -93 -29 -255 -8 -259 24 -364 149 -489 92 -92 159 -136 273 -180 143 -55
236 -70 390 -62 71 3 235 11 363 16 223 10 359 30 395 57 7 5 33 17 59 27 51
19 126 101 191 209 37 61 83 174 75 183 -3 3 -17 2 -32 -2 -19 -4 -26 -13 -26
-30 0 -58 -45 -127 -164 -252 -72 -76 -115 -104 -175 -113 -26 -4 -66 -12 -91
-18 -66 -15 -529 -34 -637 -27 -95 7 -123 11 -282 46 -102 22 -163 54 -223
118 -20 20 -51 49 -69 63 -19 14 -47 49 -62 77 -29 53 -67 186 -67 234 0 28
15 38 23 16 3 -10 9 -10 26 0 18 10 25 10 39 0 9 -7 18 -20 20 -28 2 -8 8 -19
14 -25 8 -7 8 -5 3 5 -8 13 -7 13 8 1 13 -10 20 -11 31 -2 10 9 16 8 26 -4 7
-8 16 -15 21 -15 4 0 18 -4 31 -9 13 -5 26 -9 30 -10 4 -1 22 -8 40 -15 23
-10 38 -11 51 -4 10 5 37 11 59 14 23 3 46 6 52 7 10 2 38 22 61 44 7 6 21 9
32 7 13 -4 23 0 27 11 3 9 10 13 16 10 6 -4 8 -10 5 -15 -2 -4 7 -10 21 -13
17 -3 28 1 31 10 4 10 8 11 13 4 3 -6 4 16 2 49 -4 49 -2 60 11 60 8 0 17 7
21 15 3 8 11 15 18 15 8 0 25 13 39 29 41 47 53 29 57 -88 4 -94 5 -99 23 -88
15 9 22 7 41 -10 21 -19 46 -20 58 -2 9 13 59 -2 54 -16 -9 -23 25 -25 41 -2
8 12 15 16 15 9 0 -6 8 -12 17 -12 9 0 25 -8 35 -17 23 -20 41 -7 41 31 0 14
3 23 8 20 5 -3 9 0 9 6 0 11 32 26 78 36 18 4 23 2 14 -4 -10 -7 -10 -11 3
-22 14 -12 18 -12 25 0 11 18 40 22 40 5 0 -14 35 -27 45 -16 4 3 12 6 18 6 7
0 13 12 15 26 2 15 11 34 20 42 24 21 151 37 301 37 l128 0 -7 43 c-14 85 -50
199 -88 280 -44 93 -132 196 -237 275 -33 25 -64 49 -70 55 -6 5 45 6 135 2
152 -7 312 6 339 28 7 7 30 17 50 23 l36 12 -45 2 -45 2 57 12 c68 13 87 28
68 51 -7 8 -21 15 -32 15 -14 0 -18 5 -14 15 8 22 -39 42 -164 70 -61 13 -143
38 -184 54 -186 74 -609 109 -986 80z"/>
<path d="M8835 17594 c-178 -38 -388 -110 -552 -190 -194 -93 -282 -148 -283
-176 0 -4 51 17 113 47 222 105 612 246 775 281 54 11 79 20 70 26 -10 7 -9
12 6 23 20 15 20 15 0 14 -10 -1 -68 -12 -129 -25z"/>
<path d="M17535 17493 c-13 -55 -19 -130 -21 -253 -4 -206 11 -182 21 35 4 77
13 172 21 210 16 82 17 85 6 85 -5 0 -17 -35 -27 -77z"/>
<path d="M17701 17293 c-8 -54 -10 -103 -6 -120 7 -23 10 -13 17 52 4 44 7 98
6 120 -2 30 -6 18 -17 -52z"/>
<path d="M17472 16725 c-18 -112 -42 -386 -42 -470 0 -102 29 -319 46 -347 16
-25 21 31 17 167 -3 77 -8 257 -12 400 -4 143 -9 255 -9 250z"/>
<path d="M18430 16476 c0 -2 7 -6 15 -10 8 -3 15 -1 15 4 0 6 -7 10 -15 10 -8
0 -15 -2 -15 -4z"/>
<path d="M18430 16365 c7 -8 17 -15 22 -15 6 0 5 7 -2 15 -7 8 -17 15 -22 15
-6 0 -5 -7 2 -15z"/>
<path d="M18547 16158 c-5 -45 17 -176 32 -191 13 -13 25 112 16 164 -13 77
-40 92 -48 27z"/>
<path d="M17360 15080 c-9 -16 -8 -18 5 -14 8 4 15 12 15 20 0 20 -7 17 -20
-6z"/>
<path d="M11285 14553 c-27 -8 -57 -21 -66 -29 -24 -22 -61 -140 -66 -215 -11
-143 64 -269 162 -269 l26 0 -40 48 c-38 45 -61 96 -76 170 -9 41 3 56 74 92
108 54 261 87 381 81 53 -2 161 -42 219 -80 14 -9 32 -15 41 -13 9 1 36 -15
61 -36 34 -30 55 -40 92 -44 26 -3 47 -2 47 1 0 15 -74 93 -113 120 -23 15
-107 54 -187 86 -231 92 -436 125 -555 88z m352 -39 c23 -3 47 -12 53 -19 11
-13 7 -15 -21 -15 -69 0 -266 -48 -351 -85 -49 -21 -90 -36 -92 -34 -8 7 15
103 28 116 6 7 36 21 66 32 46 16 74 18 165 15 61 -3 129 -7 152 -10z"/>
<path d="M15920 14226 c0 -2 7 -7 16 -10 8 -3 12 -2 9 4 -6 10 -25 14 -25 6z"/>
<path d="M4643 13833 c-48 -36 -135 -88 -193 -115 -110 -53 -160 -83 -160 -98
0 -5 24 -14 53 -20 46 -9 62 -8 122 11 39 12 102 42 140 67 77 51 170 139 180
171 3 12 10 21 15 21 5 0 7 6 4 13 -2 7 -20 13 -38 14 -27 1 -53 -13 -123 -64z"/>
<path d="M16530 13860 c0 -9 69 -24 76 -17 3 2 -13 9 -36 15 -22 5 -40 6 -40
2z"/>
<path d="M16628 13833 c7 -3 16 -2 19 1 4 3 -2 6 -13 5 -11 0 -14 -3 -6 -6z"/>
<path d="M4137 13613 c-24 -6 -19 -51 9 -69 19 -13 22 -11 41 31 l21 45 -27
-1 c-14 -1 -34 -3 -44 -6z"/>
<path d="M16177 13272 c6 -121 3 -116 40 -90 31 23 32 24 26 88 -6 73 -8 75
-44 83 l-25 6 3 -87z"/>
<path d="M14780 13234 c0 -8 5 -12 10 -9 6 3 10 10 10 16 0 5 -4 9 -10 9 -5 0
-10 -7 -10 -16z"/>
<path d="M14695 13220 c3 -5 10 -10 16 -10 5 0 9 5 9 10 0 6 -7 10 -16 10 -8
0 -12 -4 -9 -10z"/>
<path d="M5870 12580 c0 -10 116 -110 129 -110 4 0 36 -25 72 -56 35 -31 83
-67 107 -81 81 -48 351 -143 405 -143 29 0 27 3 -27 25 -74 30 -136 88 -136
127 0 32 -32 52 -145 87 -38 13 -99 39 -135 58 -60 32 -238 103 -260 103 -6 0
-10 -4 -10 -10z"/>
<path d="M7640 12556 c0 -8 39 -34 88 -60 l87 -45 -52 -1 c-28 0 -63 -4 -77
-10 -14 -5 -78 -19 -144 -30 l-119 -22 -119 42 c-65 23 -130 42 -144 42 -14 1
-79 -13 -145 -30 -66 -17 -168 -38 -226 -48 l-106 -18 33 -18 c18 -10 52 -21
74 -24 64 -10 32 -27 -42 -22 -54 4 -68 1 -100 -19 -30 -18 -38 -30 -38 -53 0
-16 5 -32 10 -35 6 -4 8 -9 6 -13 -2 -4 6 -7 17 -8 12 0 60 -6 107 -13 97 -13
88 -5 171 -147 97 -166 191 -234 389 -279 111 -25 107 -22 77 -53 -48 -50 -25
-57 53 -17 27 14 67 25 88 25 32 0 63 17 200 110 l162 111 133 9 c120 9 277
37 306 54 17 11 13 36 -6 36 -10 0 -63 -7 -118 -16 -260 -38 -342 -46 -440
-39 -172 11 -312 60 -470 164 l-68 45 64 18 c35 10 89 18 120 18 94 0 114 7
128 47 19 52 63 75 128 67 59 -7 79 2 132 58 29 31 42 56 22 43 -5 -3 -12 -1
-16 5 -4 6 11 10 39 10 25 0 46 4 46 10 0 13 -79 66 -142 95 -59 28 -108 33
-108 11z"/>
<path d="M14130 12044 c-14 -7 -47 -14 -75 -14 l-50 -1 30 -15 c17 -9 42 -30
57 -47 l26 -32 7 40 c7 48 19 71 35 67 6 -1 9 2 5 8 -3 5 -7 10 -8 9 -1 -1
-13 -7 -27 -15z"/>
<path d="M8330 11934 c-124 -42 -106 -44 57 -8 40 9 70 20 67 25 -9 14 -44 10
-124 -17z"/>
<path d="M9065 11910 c-16 -4 -27 -8 -24 -9 4 0 44 -8 90 -17 51 -9 101 -13
131 -9 68 10 60 22 -11 17 -44 -3 -65 0 -82 12 -25 17 -54 19 -104 6z"/>
<path d="M16212 11575 c0 -16 2 -22 5 -12 2 9 2 23 0 30 -3 6 -5 -1 -5 -18z"/>
<path d="M7270 11539 c-57 -27 -106 -52 -109 -55 -3 -3 11 -21 32 -41 l39 -35
26 24 c90 82 142 132 142 139 0 21 -36 12 -130 -32z"/>
<path d="M11000 11367 c-47 -18 -90 -35 -96 -39 -5 -4 -52 -21 -103 -38 -51
-16 -103 -37 -117 -46 -14 -9 -36 -14 -53 -12 -17 2 -28 1 -25 -3 2 -5 -14
-13 -37 -19 -42 -12 -87 -35 -102 -55 -6 -7 -10 -6 -14 3 -2 7 -14 17 -26 24
-19 10 -20 9 -9 -4 9 -11 11 -43 9 -107 l-4 -91 52 47 c79 73 122 108 131 109
9 0 152 66 186 84 9 5 50 12 90 16 40 3 83 7 96 8 16 2 31 16 48 47 14 24 33
53 43 64 24 27 34 45 24 44 -4 0 -46 -15 -93 -32z m-137 -96 c4 0 7 -6 7 -12
0 -5 -8 -9 -17 -7 -10 1 -23 0 -28 -4 -14 -9 -39 7 -32 19 5 7 39 10 70 4z"/>
<path d="M14198 10428 c-36 -37 -38 -67 -3 -61 13 3 23 10 22 17 -1 6 4 10 11
9 13 -3 14 9 4 43 -7 20 -8 19 -34 -8z"/>
<path d="M14204 10353 c5 -9 -2 -13 -27 -13 -28 0 -36 -5 -50 -35 -23 -48 -22
-50 16 -26 17 11 31 26 29 32 -2 7 8 10 26 7 32 -5 37 11 12 35 -10 9 -11 9
-6 0z"/>
<path d="M14145 9340 c-3 -5 -1 -10 4 -10 6 0 11 5 11 10 0 6 -2 10 -4 10 -3
0 -8 -4 -11 -10z"/>
<path d="M6950 9150 c0 -5 5 -10 10 -10 6 0 10 5 10 10 0 6 -4 10 -10 10 -5 0
-10 -4 -10 -10z"/>
<path d="M6960 9105 c0 -8 7 -15 16 -15 14 0 14 3 4 15 -7 8 -14 15 -16 15 -2
0 -4 -7 -4 -15z"/>
<path d="M6850 9087 c0 -9 4 -18 9 -21 5 -4 8 1 7 9 -3 21 -16 31 -16 12z"/>
<path d="M7040 8944 c0 -11 28 -33 34 -27 3 4 6 0 6 -8 0 -12 2 -12 9 0 7 10
4 19 -7 28 -18 13 -42 17 -42 7z"/>
<path d="M7030 8880 c-9 -6 -10 -10 -3 -10 6 0 15 5 18 10 8 12 4 12 -15 0z"/>
<path d="M7580 8762 c0 -5 5 -13 12 -20 16 -16 29 -15 22 2 -6 16 -34 30 -34
18z"/>
<path d="M8545 8730 c-3 -5 -1 -10 4 -10 6 0 11 5 11 10 0 6 -2 10 -4 10 -3 0
-8 -4 -11 -10z"/>
<path d="M7617 8713 c-4 -3 0 -11 7 -17 8 -6 16 -24 18 -41 1 -16 5 -32 8 -35
23 -23 53 -62 44 -57 -7 4 -11 -5 -12 -23 -1 -26 2 -28 21 -21 14 6 21 16 20
30 -2 12 2 21 8 21 5 0 7 5 4 10 -4 6 -11 8 -16 5 -5 -3 -6 1 -3 9 3 9 1 16
-5 16 -6 0 -11 -4 -11 -10 0 -5 -4 -10 -8 -10 -9 0 -11 12 -13 63 0 15 -4 27
-9 27 -5 0 -12 9 -15 20 -6 20 -25 26 -38 13z"/>
<path d="M8560 8616 c0 -9 5 -16 10 -16 6 0 10 4 10 9 0 6 -4 13 -10 16 -5 3
-10 -1 -10 -9z"/>
<path d="M5864 7772 c-39 -77 -40 -83 -12 -42 50 71 59 88 50 94 -6 3 -23 -20
-38 -52z"/>
<path d="M824 2763 c-66 -80 -70 -90 -20 -43 48 45 72 78 63 86 -2 3 -22 -17
-43 -43z"/>
<path d="M3325 918 c-62 -32 -111 -72 -235 -193 -133 -130 -231 -215 -350
-304 -47 -36 -123 -96 -168 -134 l-84 -69 -28 21 c-16 11 -33 21 -37 21 -4 -1
-36 -59 -70 -130 l-62 -130 505 0 505 0 32 36 c134 151 279 397 312 529 42
166 -10 310 -127 359 -54 23 -144 20 -193 -6z"/>
</g>
</svg>
