<?xml version="1.0" standalone="no"?>
<!DOCTYPE svg PUBLIC "-//W3C//DTD SVG 20010904//EN"
 "http://www.w3.org/TR/2001/REC-SVG-20010904/DTD/svg10.dtd">
<svg version="1.0" xmlns="http://www.w3.org/2000/svg"
 width="1916.000000pt" height="2700.000000pt" viewBox="0 0 1916.000000 2700.000000"
 preserveAspectRatio="xMidYMid meet">

<g transform="translate(0.000000,2700.000000) scale(0.100000,-0.100000)"
fill="#000000" stroke="none">
<path d="M10495 23129 c-227 -5 -245 -9 -292 -52 -17 -15 -58 -25 -180 -43
-175 -26 -378 -65 -493 -94 -41 -11 -158 -40 -260 -64 -456 -111 -867 -254
-1193 -417 -151 -76 -409 -245 -499 -327 -77 -70 -125 -97 -199 -113 -58 -13
-140 -45 -279 -111 -106 -51 -225 -79 -436 -104 -69 -8 -167 -24 -218 -35
-108 -25 -233 -27 -277 -5 -26 13 -51 14 -170 5 -249 -20 -498 18 -651 98
-120 62 -240 198 -295 333 -51 128 -54 296 -6 492 22 91 24 109 12 120 -8 7
-21 13 -29 13 -8 0 -18 3 -21 8 -9 13 -53 -64 -84 -146 -22 -58 -24 -77 -19
-137 4 -39 4 -70 1 -70 -3 0 -17 4 -30 9 -62 24 -76 -39 -58 -240 42 -450 150
-754 341 -954 31 -33 69 -79 84 -102 60 -97 186 -108 260 -22 34 40 41 43 218
94 200 57 651 196 737 227 29 10 56 17 58 14 3 -2 -121 -130 -275 -283 -241
-241 -311 -318 -519 -573 -281 -346 -353 -441 -495 -650 -274 -404 -477 -782
-548 -1019 -12 -40 -46 -129 -77 -199 -57 -131 -136 -343 -129 -349 2 -2 13
19 25 46 40 95 153 322 158 318 5 -6 -77 -211 -87 -217 -18 -11 -110 -218
-164 -365 -66 -184 -139 -427 -166 -559 -11 -54 -37 -151 -57 -215 -20 -64
-39 -147 -42 -186 -4 -47 -10 -69 -18 -68 -7 2 -17 -14 -22 -35 -40 -148 -86
-346 -112 -470 -24 -121 -41 -174 -98 -307 -38 -88 -72 -171 -76 -185 -23 -79
-165 -301 -279 -438 -81 -97 -228 -241 -335 -327 -70 -56 -71 -57 -148 -62
-105 -7 -306 27 -388 66 -33 15 -79 47 -103 70 -39 38 -130 169 -174 250 -20
36 -52 41 -68 11 -13 -24 -2 -70 36 -157 15 -32 33 -80 41 -108 46 -151 245
-308 463 -364 41 -10 136 -25 210 -32 113 -11 141 -17 170 -37 52 -36 144 -27
243 22 40 20 81 36 90 36 50 0 179 73 256 145 l48 45 7 -118 c15 -248 53 -465
108 -610 69 -183 108 -350 114 -487 2 -66 10 -150 16 -188 14 -83 -3 -347 -33
-512 -11 -60 -24 -155 -28 -210 -14 -160 -80 -389 -185 -639 -53 -125 -84
-182 -129 -232 -85 -98 -432 -324 -497 -324 -8 0 -28 -7 -43 -15 -25 -13 -32
-13 -55 -1 -46 24 -112 76 -112 88 0 22 -51 78 -88 97 -60 31 -111 40 -293 56
-235 20 -340 34 -425 55 -83 22 -218 86 -289 139 -67 50 -95 56 -150 32 -24
-10 -46 -17 -49 -14 -3 3 -4 -4 -1 -15 2 -12 -3 -23 -12 -26 -9 -4 -13 -14
-10 -26 3 -13 1 -18 -6 -13 -6 4 -8 0 -4 -10 3 -9 1 -18 -6 -21 -9 -3 -9 -5 1
-5 6 -1 12 -13 12 -27 0 -17 17 -43 52 -80 157 -166 370 -264 674 -309 60 -9
110 -18 112 -19 2 -2 -26 -40 -62 -85 -89 -110 -234 -331 -284 -432 -98 -200
-149 -451 -122 -607 13 -81 65 -197 116 -258 116 -142 316 -201 536 -160 99
19 257 71 366 121 l73 34 -7 -122 c-5 -98 -3 -135 10 -187 31 -122 125 -256
223 -318 151 -96 392 -107 561 -26 135 65 180 141 110 184 -32 20 -133 53
-303 99 -153 42 -219 89 -251 180 -34 95 -10 324 66 631 43 173 45 208 11 245
-15 16 -20 41 -23 135 -8 186 -61 314 -189 454 -49 53 -59 70 -48 77 8 5 22 9
33 9 31 0 191 57 268 96 40 20 168 90 284 156 258 146 363 232 389 318 7 25
53 80 66 80 19 0 100 -244 123 -370 33 -188 30 -315 -15 -540 -28 -136 -66
-245 -144 -405 -100 -207 -182 -312 -334 -428 -76 -59 -71 -72 27 -72 91 1
153 34 262 141 79 77 93 86 212 138 71 31 156 70 190 88 38 19 81 32 108 34
25 1 78 11 116 23 39 12 92 21 117 21 25 0 74 9 109 20 34 11 68 20 75 20 20
0 113 -173 106 -198 -4 -16 -1 -22 7 -20 8 2 31 -30 54 -70 23 -41 68 -106
101 -145 33 -39 72 -89 88 -110 15 -20 87 -100 160 -176 72 -76 165 -181 205
-234 l74 -97 18 -111 18 -112 -44 -156 c-24 -86 -44 -165 -44 -175 0 -11 9
-39 21 -63 l21 -43 -22 -56 c-11 -31 -19 -58 -17 -61 12 -12 219 195 345 346
81 96 173 203 205 237 31 34 57 64 57 68 0 3 -18 6 -40 6 -22 0 -40 1 -40 3 0
2 20 41 45 88 65 120 99 194 125 274 32 97 52 135 103 190 37 40 52 48 90 52
67 8 131 -20 168 -73 16 -23 29 -51 29 -62 0 -28 32 -65 113 -129 l70 -57 -24
-15 c-37 -24 -117 -112 -135 -150 -9 -18 -37 -54 -63 -78 -54 -53 -50 -51 88
39 58 37 109 68 115 68 14 0 4 -8 -79 -65 -182 -127 -171 -113 -284 -345 -85
-174 -106 -226 -121 -303 -11 -52 -37 -136 -61 -188 -70 -159 -91 -221 -98
-293 l-6 -70 -140 -61 c-231 -101 -595 -291 -991 -516 -175 -99 -192 -112
-209 -149 -10 -22 -34 -52 -54 -67 -52 -40 -87 -80 -129 -148 -20 -33 -57 -80
-83 -105 -68 -66 -118 -177 -153 -345 -8 -38 -27 -104 -41 -144 -25 -76 -45
-172 -87 -426 -19 -113 -23 -177 -23 -335 1 -285 26 -398 144 -660 28 -63 65
-166 82 -228 35 -135 80 -228 189 -390 44 -66 80 -125 80 -130 0 -6 -18 -64
-40 -129 -78 -228 -132 -452 -215 -905 -69 -371 -95 -543 -94 -628 0 -70 -28
-252 -85 -550 -79 -408 -150 -874 -190 -1245 -50 -462 -85 -1224 -71 -1554 l7
-171 4738 0 4738 0 -23 69 c-52 153 -118 470 -135 647 -14 152 -20 182 -55
269 -37 93 -83 250 -92 313 -3 24 0 68 7 97 13 54 13 54 -17 88 -26 30 -31 44
-36 119 -16 201 -42 371 -117 753 -22 110 -64 335 -95 500 -79 424 -77 417
-142 437 -21 6 -23 3 -23 -30 0 -59 -8 -32 -24 83 -21 157 -30 472 -17 661 6
88 7 178 3 200 l-7 39 -6 -45 c-3 -25 -7 44 -7 153 -2 187 0 212 38 445 56
349 78 512 95 707 21 239 52 455 80 555 13 47 40 171 60 275 75 393 122 596
215 930 198 711 201 970 19 1397 -26 61 -39 107 -39 137 0 45 -35 140 -46 128
-4 -3 1 -27 10 -53 30 -88 16 -70 -64 85 -62 120 -92 192 -130 318 -28 89 -50
169 -50 177 0 11 17 3 53 -25 127 -99 154 -117 186 -128 36 -12 81 -15 81 -5
0 3 -16 26 -36 50 -34 41 -36 47 -24 69 12 22 7 35 -65 162 -133 235 -246 402
-349 510 l-49 53 7 66 c4 37 13 82 21 102 8 19 15 45 15 57 0 18 17 35 73 71
39 26 95 68 122 92 44 40 103 75 129 76 5 1 14 15 20 32 6 17 19 42 28 55 16
23 17 16 17 -155 1 -343 25 -523 100 -756 61 -190 185 -327 298 -330 12 0 37
-9 56 -20 54 -32 147 -60 199 -60 l49 0 -21 30 c-12 17 -49 49 -82 71 -68 47
-86 80 -112 203 -18 89 -19 106 -7 106 4 0 11 -26 14 -57 3 -32 11 -74 17 -94
11 -38 59 -116 74 -121 13 -5 13 67 -1 157 -35 221 15 508 127 735 76 156 232
417 361 605 112 163 120 173 126 158 4 -12 37 -62 78 -118 31 -42 143 -156
185 -187 107 -80 383 -209 580 -271 264 -84 402 -107 635 -107 115 0 130 -2
176 -25 60 -31 83 -27 221 40 50 25 135 59 189 77 55 18 99 38 99 44 0 23 79
84 109 84 70 0 201 33 284 72 48 23 87 44 87 47 0 3 -125 6 -278 6 -224 1
-294 4 -367 18 -182 36 -222 55 -299 137 -52 55 -78 108 -75 149 1 14 -1 61
-6 104 -5 55 -4 86 5 108 10 22 15 27 21 17 6 -9 9 -4 9 15 0 33 2 33 82 3
111 -42 166 -48 286 -30 186 27 262 73 248 148 -10 52 -107 131 -173 141 -145
21 -139 17 -189 117 -92 183 -106 342 -58 631 l27 158 -22 30 c-32 43 -6 47
67 10 34 -17 96 -40 139 -52 43 -11 107 -30 143 -40 151 -46 388 -62 495 -33
83 22 384 33 535 19 62 -6 90 -3 160 15 103 27 121 40 56 40 -39 0 -64 8 -118
40 -49 28 -81 40 -109 40 -21 0 -39 5 -39 10 0 6 26 10 58 10 167 0 485 84
660 175 111 57 242 175 242 217 0 33 -45 88 -73 88 -25 0 -135 -30 -279 -76
-59 -19 -185 -48 -280 -65 -172 -32 -172 -32 -258 -16 -47 9 -114 21 -149 27
-76 14 -195 56 -211 76 -9 10 -8 19 4 36 9 12 16 27 16 34 0 6 -37 25 -83 42
-86 33 -233 116 -275 155 -56 52 -127 250 -157 436 -16 101 -31 134 -75 159
-28 16 -29 20 -33 107 -2 49 -8 103 -12 118 -5 20 -1 45 18 90 14 34 28 85 30
112 3 28 15 72 26 98 15 36 21 70 21 127 0 205 11 256 161 715 77 237 162 507
189 600 96 334 154 639 167 884 l6 124 -33 27 -34 27 20 169 c26 231 26 647 0
814 -39 247 -119 504 -240 770 -76 167 -119 244 -192 346 -31 43 -80 123 -109
177 -79 150 -169 271 -296 397 -98 97 -123 129 -158 198 -157 313 -356 588
-641 888 -371 390 -462 483 -535 545 -44 37 -132 114 -195 170 -155 137 -371
310 -380 304 -4 -3 -10 2 -14 10 -3 8 -10 15 -16 15 -6 0 -8 -4 -5 -10 3 -6
-1 -7 -10 -4 -9 4 -14 13 -11 20 3 8 0 11 -8 8 -7 -3 -28 8 -47 23 -19 15 -41
34 -50 41 -21 18 -182 134 -244 175 -269 182 -585 358 -850 472 -126 55 -286
134 -330 164 -22 16 -46 21 -92 21 -47 0 -89 10 -175 40 -166 60 -414 134
-658 197 -118 30 -249 68 -293 84 -43 16 -155 42 -250 59 -453 79 -813 103
-1332 89z m-4295 -2001 c-51 -61 -305 -328 -284 -298 72 101 321 376 332 366
2 -3 -19 -33 -48 -68z m1915 47 c71 -24 212 -95 231 -117 10 -10 22 -18 29
-18 16 0 57 -45 48 -53 -3 -4 3 -7 14 -7 18 0 150 -122 200 -186 13 -16 37
-47 54 -69 17 -22 41 -60 54 -85 12 -25 32 -63 43 -86 32 -62 45 -188 27 -255
-22 -81 -18 -101 9 -44 13 28 38 63 57 79 29 25 39 28 83 23 41 -4 55 -10 77
-37 32 -38 39 -68 39 -168 0 -95 -14 -143 -55 -182 -47 -45 -102 -51 -155 -16
-58 38 -75 76 -75 169 0 42 -3 77 -6 77 -4 0 -15 -14 -23 -31 -13 -26 -14 -35
-3 -48 10 -14 10 -14 -4 -3 -14 10 -20 6 -45 -30 -16 -23 -36 -50 -44 -58 -8
-9 -27 -30 -42 -46 -14 -16 -49 -51 -78 -79 -42 -42 -52 -48 -61 -35 -9 13
-10 13 -6 -1 5 -15 -24 -49 -41 -49 -5 0 -16 -25 -26 -55 -34 -108 -92 -145
-167 -105 -27 14 -45 18 -53 11 -16 -14 -97 -41 -123 -41 -12 0 -25 -4 -28
-10 -4 -6 -55 -10 -120 -10 l-114 0 5 53 c16 165 38 328 60 447 34 185 84 393
98 407 11 12 219 73 319 93 31 6 57 16 57 22 0 23 -171 -6 -347 -58 l-22 -6
19 68 c23 80 23 81 10 68 -5 -5 -20 -40 -33 -78 l-23 -67 -94 -38 c-154 -62
-316 -144 -421 -214 l-27 -18 24 103 c14 57 30 121 36 143 6 22 12 45 14 50
11 55 91 311 103 330 3 6 6 17 8 25 1 8 7 24 12 37 6 13 15 33 19 46 23 60 59
122 72 122 8 0 21 7 28 15 12 13 13 13 8 -3 -3 -10 -6 -25 -6 -32 0 -8 -10
-23 -22 -35 -27 -25 -23 -29 28 -18 35 7 44 15 62 52 12 24 22 48 22 54 0 15
32 19 145 16 62 -1 119 -8 150 -19z m7405 -99 c0 -13 -78 63 -92 89 -6 11 13
-2 41 -30 28 -27 51 -54 51 -59z m-5742 -118 c34 -37 41 -69 47 -224 6 -138 8
-150 31 -177 25 -29 25 -33 23 -186 -2 -87 0 -162 4 -168 4 -6 2 -71 -4 -144
-12 -149 -39 -226 -90 -256 -15 -9 -33 -30 -40 -47 -11 -23 -23 -32 -49 -38
-50 -10 -72 15 -100 115 -19 72 -22 105 -22 282 0 378 19 718 43 792 22 69
112 98 157 51z m-2436 -301 c24 0 26 -2 16 -26 -37 -98 -61 -159 -70 -181 -13
-28 -15 -35 -17 -54 0 -7 -12 -29 -25 -49 -14 -20 -32 -63 -42 -96 -10 -36
-21 -58 -27 -54 -6 4 -7 1 -2 -6 4 -7 0 -31 -8 -54 -8 -23 -23 -70 -32 -104
l-18 -63 -45 0 c-55 0 -76 21 -91 91 -14 62 -14 96 -1 104 6 3 10 17 10 31 0
31 29 122 41 130 5 3 9 16 9 29 0 13 5 27 10 30 6 3 10 17 10 29 0 13 7 29 15
36 8 7 15 21 15 31 0 21 15 33 31 23 8 -4 8 -9 1 -13 -6 -4 -12 -31 -12 -61
-2 -60 13 -135 23 -110 22 60 47 139 47 152 0 16 29 78 41 88 3 3 8 10 10 15
2 6 15 29 29 53 18 30 29 40 40 35 8 -4 27 -6 42 -6z m-215 -124 c-3 -10 -5
-4 -5 12 0 17 2 24 5 18 2 -7 2 -21 0 -30z m777 -169 c-66 -264 -123 -579
-124 -687 0 -34 -5 -49 -16 -54 -23 -9 -140 23 -279 77 -66 25 -100 48 -103
68 -2 12 0 22 5 22 5 0 7 18 5 39 -3 32 -9 40 -28 45 -29 8 -29 15 7 210 26
145 29 149 172 234 123 73 384 197 394 188 1 -1 -13 -65 -33 -142z m6339 -252
c35 -35 46 -227 26 -460 -9 -117 -31 -175 -78 -215 -80 -67 -139 -6 -156 158
-12 117 36 502 65 520 3 2 19 6 34 9 16 3 31 8 34 10 10 11 56 -3 75 -22z
m-7143 -196 c0 -24 -17 -28 -23 -6 -3 13 0 20 9 20 8 0 14 -6 14 -14z m-26
-54 c3 -5 -1 -9 -9 -9 -8 0 -12 4 -9 9 3 4 7 8 9 8 2 0 6 -4 9 -8z m6714 -121
c47 -53 12 -200 -56 -231 -74 -33 -142 16 -142 104 0 50 14 80 59 125 35 35
43 39 77 34 25 -3 47 -15 62 -32z m-7944 -137 c49 -49 51 -94 20 -374 -18
-166 -28 -203 -62 -241 -54 -60 -134 -36 -164 49 -17 51 -15 233 6 367 28 185
52 225 132 225 31 0 48 -6 68 -26z m-785 -36 c-6 -13 -30 -54 -53 -93 -22 -38
-69 -122 -103 -185 -68 -125 -79 -132 -35 -24 29 69 80 158 154 267 39 58 58
76 37 35z m157 -444 c34 -9 54 -55 54 -125 0 -124 -69 -202 -147 -165 -69 33
-93 127 -53 213 28 63 85 93 146 77z m1784 -669 c0 -19 7 -60 15 -92 9 -32 20
-112 25 -178 5 -66 23 -183 40 -260 16 -77 43 -212 59 -300 41 -213 139 -559
195 -683 25 -55 68 -155 96 -223 29 -68 106 -230 171 -359 66 -129 152 -305
191 -390 38 -85 98 -213 133 -285 34 -71 86 -181 115 -242 39 -82 59 -113 71
-113 22 0 54 -95 70 -205 6 -38 17 -99 24 -135 8 -36 17 -86 21 -112 3 -27 10
-48 14 -48 13 0 30 -51 30 -94 l0 -43 40 0 c30 0 41 4 45 18 10 31 7 141 -5
194 -11 50 -15 203 -5 213 3 3 44 -13 92 -36 49 -23 117 -52 153 -65 87 -32
242 -111 310 -157 83 -57 149 -120 239 -229 135 -162 152 -191 172 -287 16
-72 25 -93 55 -127 l37 -40 -7 -111 c-7 -118 -33 -264 -66 -367 -22 -71 -19
-85 14 -64 46 30 142 253 152 354 6 60 96 359 144 476 36 89 86 282 149 571
58 267 113 494 141 579 10 33 28 116 40 185 30 188 51 268 76 293 22 23 66
152 84 246 5 29 10 92 10 138 0 118 16 249 55 458 53 285 89 572 120 965 4 41
11 99 16 129 5 29 6 64 3 76 -7 28 12 99 32 120 10 10 34 15 68 15 48 0 58 -4
95 -38 22 -20 41 -46 41 -57 0 -30 140 -264 223 -375 39 -52 140 -164 225
-247 149 -149 152 -153 120 -153 -70 0 -362 -20 -367 -25 -3 -3 9 -20 27 -38
l32 -32 236 -5 235 -5 34 -40 c35 -41 59 -89 69 -137 4 -18 49 -65 138 -145
73 -65 204 -186 293 -268 126 -118 173 -156 222 -178 53 -24 63 -32 68 -60 14
-62 48 -110 151 -213 57 -58 104 -111 104 -119 0 -8 -14 -31 -32 -51 -27 -30
-30 -39 -20 -55 7 -10 12 -27 12 -38 0 -10 6 -24 14 -30 11 -9 12 -18 3 -40
-9 -24 1 -69 63 -297 40 -148 82 -321 94 -384 12 -63 28 -126 36 -140 10 -17
15 -68 18 -161 4 -119 1 -150 -22 -251 -32 -145 -49 -207 -76 -283 -11 -33
-40 -136 -64 -230 -97 -376 -213 -645 -443 -1032 -152 -257 -320 -479 -468
-623 -63 -60 -135 -147 -135 -161 0 -27 94 5 175 61 43 29 60 30 33 1 -39 -42
98 64 159 122 l72 70 63 3 c106 5 235 41 328 91 47 25 135 73 195 106 61 33
156 84 212 113 134 70 277 156 443 268 74 50 148 100 164 110 l29 20 -5 -27
c-3 -15 -1 -27 3 -27 5 0 4 -11 -1 -25 -11 -28 -10 -116 1 -109 4 2 12 -3 19
-12 11 -12 10 -20 -8 -42 -46 -58 -115 -166 -122 -191 -4 -14 -4 -36 1 -47 8
-22 -14 -50 -71 -87 -13 -10 -21 -17 -16 -17 10 0 -40 -69 -64 -87 -8 -7 -45
-33 -82 -59 -132 -90 -300 -273 -431 -469 -68 -102 -175 -245 -183 -245 -3 0
-14 5 -24 10 -12 6 -28 7 -43 1 -15 -6 -28 -6 -34 0 -6 6 -19 2 -36 -12 -32
-25 -64 -79 -46 -79 8 0 10 -26 7 -87 -4 -69 -10 -99 -30 -138 -21 -40 -28
-75 -38 -179 -12 -142 -7 -131 -94 -188 -42 -28 -46 -33 -32 -44 14 -10 5 -18
-70 -60 -96 -54 -134 -92 -134 -133 0 -42 24 -67 92 -91 35 -13 75 -30 91 -39
26 -15 36 -31 18 -31 -4 0 -64 -29 -132 -65 -156 -82 -227 -111 -574 -229
-154 -52 -314 -108 -355 -125 -41 -17 -78 -31 -82 -31 -4 0 -23 17 -42 38 -34
37 -35 37 -113 36 -97 -1 -216 -39 -387 -125 -66 -32 -123 -59 -128 -59 -17 0
-7 54 13 76 18 19 24 21 40 11 28 -17 46 -2 90 78 24 45 43 99 53 150 30 154
55 402 37 376 -5 -7 -14 -10 -20 -7 -14 9 -15 76 0 76 5 0 8 -4 5 -9 -3 -4 6
-6 19 -3 14 2 64 1 111 -3 l86 -7 -4 -88 -3 -89 32 32 c17 18 29 35 26 39 -2
5 2 8 10 8 7 0 30 14 50 31 37 31 48 59 25 59 -9 0 -8 4 2 10 8 5 10 10 4 10
-5 0 -9 13 -8 29 2 31 -16 45 -71 54 -16 3 -39 9 -50 12 -16 6 -17 5 -5 -4 13
-9 12 -11 -6 -11 -12 0 -33 11 -47 24 -14 13 -28 22 -31 19 -2 -3 -7 10 -10
28 -6 47 -3 120 5 107 4 -7 13 3 22 23 20 48 63 87 105 95 20 4 69 25 109 46
72 39 96 58 72 58 -17 0 -192 -47 -294 -80 -49 -16 -117 -36 -150 -45 -33 -9
-109 -31 -170 -50 -193 -59 -373 -90 -505 -86 -250 6 -535 46 -835 117 -347
82 -577 153 -750 233 -49 23 -124 51 -165 62 -95 24 -378 167 -525 264 -169
111 -496 369 -516 406 -6 11 -33 46 -61 76 -67 74 -195 271 -262 403 -72 141
-130 304 -151 425 -53 302 -88 441 -209 820 -32 99 -68 216 -81 260 -12 44
-34 107 -48 140 -14 33 -40 96 -59 140 -19 44 -53 111 -76 149 -48 80 -54 112
-19 102 58 -18 251 -26 451 -20 l218 7 -6 -29 c-16 -80 -16 -112 -2 -269 13
-145 21 -190 56 -305 51 -164 113 -297 174 -368 25 -30 46 -58 46 -62 0 -19
49 -54 130 -94 l85 -41 195 2 195 3 74 37 c97 49 145 99 192 201 22 45 39 86
39 91 0 4 -33 11 -72 15 -120 11 -205 66 -178 115 6 11 19 25 30 31 24 13 161
13 196 0 15 -6 29 -8 32 -6 2 3 0 74 -6 158 -8 127 -15 169 -41 245 -44 132
-85 208 -148 274 -54 57 -55 59 -42 89 8 17 21 30 31 30 23 0 23 12 -1 59 -18
35 -84 91 -108 91 -17 0 -33 24 -24 38 4 7 27 16 52 21 l44 8 -36 16 c-20 9
-58 21 -85 28 -27 6 -98 27 -158 45 -97 30 -122 34 -221 34 -77 0 -124 5 -148
15 -42 17 -144 19 -292 5 -55 -6 -134 -13 -175 -16 -41 -4 -84 -12 -95 -19
-11 -7 -41 -16 -65 -20 -25 -3 -59 -11 -76 -17 -21 -8 -36 -8 -49 -1 -23 13
-71 1 -99 -26 -12 -10 -41 -29 -66 -42 -63 -31 -100 -68 -100 -98 0 -20 -2
-23 -12 -12 -16 15 -14 340 2 556 20 257 80 717 126 955 13 69 24 140 24 159
0 59 52 365 64 378 7 7 54 13 126 14 l115 3 29 -89 c137 -422 215 -599 354
-811 108 -163 167 -213 393 -332 41 -22 112 -60 159 -86 47 -25 90 -46 97 -46
7 0 -17 47 -51 104 -126 207 -209 451 -226 661 -4 55 -19 183 -33 285 -73 527
-95 969 -70 1402 9 161 14 193 32 224 12 19 21 45 21 57 0 35 11 67 21 61 5
-3 9 -20 9 -39z m-824 -1122 c3 -21 17 -57 30 -79 l23 -41 -80 -8 c-45 -3 -83
-4 -86 -2 -3 3 7 16 21 28 14 12 26 29 26 36 0 7 4 13 8 13 4 0 14 20 21 45
16 55 28 57 37 8z m11041 -1440 c-2 -21 -4 -4 -4 37 0 41 2 58 4 38 2 -21 2
-55 0 -75z m-11357 -963 c12 -8 12 -11 -1 -27 -9 -10 -19 -27 -23 -37 -9 -25
-12 -20 -20 32 -5 36 -4 42 11 42 10 0 25 -4 33 -10z m8706 -106 c21 -6 20 -8
-17 -62 -22 -32 -41 -66 -43 -78 -4 -18 1 -21 29 -21 25 0 43 -9 70 -36 22
-22 34 -41 29 -48 -4 -7 -3 -9 3 -6 6 4 13 0 17 -8 4 -12 11 -13 32 -5 l26 10
-20 -32 c-139 -233 -193 -328 -269 -464 -66 -118 -105 -176 -149 -221 -32 -33
-83 -101 -113 -152 -44 -75 -72 -108 -150 -178 -53 -47 -131 -119 -173 -159
-74 -71 -77 -73 -73 -43 6 47 -13 80 -44 77 -20 -2 -26 1 -26 17 0 22 -20 39
-35 30 -5 -3 -3 7 5 21 15 30 10 51 -8 36 -17 -13 -77 6 -83 26 -3 9 -9 24
-14 33 -19 36 95 183 179 232 27 16 31 16 31 3 0 -9 6 -13 14 -10 8 3 17 1 21
-5 9 -16 25 -13 25 3 0 8 6 21 13 28 6 7 21 31 32 53 22 44 232 346 268 385
13 14 47 47 76 74 66 61 129 190 78 159 -8 -4 -8 -2 1 9 10 13 9 16 -8 21 -13
3 -18 10 -14 21 3 8 -2 38 -11 65 -9 28 -14 55 -10 60 5 9 -52 -5 -97 -24 -10
-4 -18 -3 -18 1 0 14 60 158 70 168 5 5 29 13 52 17 54 8 276 11 304 3z
m-7199 -776 c-3 -8 -6 -5 -6 6 -1 11 2 17 5 13 3 -3 4 -12 1 -19z m-4361
-2339 c58 -62 62 -68 107 -209 56 -172 67 -227 67 -329 0 -115 -12 -145 -89
-222 -51 -51 -88 -77 -161 -112 -119 -58 -254 -97 -332 -97 -71 0 -100 22
-118 91 -15 54 -1 192 32 314 37 137 213 460 331 606 l48 59 27 -19 c15 -10
54 -48 88 -82z m9181 9 c-3 -8 -6 -5 -6 6 -1 11 2 17 5 13 3 -3 4 -12 1 -19z
m-7540 -130 c-3 -8 -6 -5 -6 6 -1 11 2 17 5 13 3 -3 4 -12 1 -19z m7713 -80
c0 -5 -4 -8 -10 -8 -5 0 -10 10 -10 23 0 18 2 19 10 7 5 -8 10 -18 10 -22z
m40 -171 c0 -13 -16 -77 -35 -143 -19 -65 -35 -123 -35 -129 0 -5 17 -20 38
-31 68 -40 143 -106 193 -172 27 -36 49 -68 49 -71 0 -4 -55 -55 -122 -113
-68 -59 -147 -128 -177 -155 -54 -47 -54 -47 -47 -18 3 17 9 84 13 151 5 101
3 123 -9 135 -14 12 -12 18 18 52 41 44 44 84 11 122 -28 33 -93 43 -167 25
-28 -7 -53 -10 -56 -8 -2 3 28 27 68 53 l73 49 -30 7 c-16 5 -42 11 -57 14
-35 7 -36 18 -3 33 35 16 189 147 220 188 30 40 55 45 55 11z m-2308 -202 c-3
-16 -11 -25 -23 -25 -24 0 -24 5 3 30 27 25 26 25 20 -5z m22 -77 c3 -7 7 -83
10 -168 5 -127 4 -159 -8 -175 -14 -19 -17 -17 -89 50 -41 39 -73 74 -72 80 1
5 16 14 33 19 55 15 38 27 -58 39 -8 1 -16 10 -18 18 -2 11 24 36 77 72 44 31
82 61 86 67 9 14 35 13 39 -2z m-263 -299 c38 -27 112 -132 145 -205 15 -33
36 -69 47 -82 l21 -22 -24 -42 c-29 -52 -55 -76 -148 -138 -165 -111 -382
-151 -449 -84 -19 19 -24 33 -21 55 7 44 -7 49 -95 37 -74 -11 -79 -10 -108
11 -27 20 -293 91 -341 91 -10 0 -18 5 -18 11 0 8 13 9 43 4 65 -11 126 -11
131 1 10 26 148 46 162 23 4 -7 16 -2 33 14 28 27 91 61 151 82 21 7 60 29 88
49 27 20 97 59 155 86 63 30 121 65 147 90 23 22 44 40 47 40 3 0 18 -9 34
-21z m-2911 -63 c0 -5 -7 -1 -15 10 -8 10 -14 24 -14 29 0 6 6 1 14 -9 8 -11
15 -24 15 -30z m5118 -158 l-69 -183 21 -36 c24 -44 26 -118 5 -159 -8 -16
-30 -40 -47 -54 -37 -27 -338 -172 -493 -236 -239 -100 -645 -260 -657 -260
-16 0 -88 65 -154 139 l-49 53 33 28 33 27 -28 18 c-69 44 -134 99 -131 113 4
18 175 87 393 159 221 73 457 165 625 245 152 73 357 187 410 228 45 35 151
99 166 100 6 0 -20 -82 -58 -182z m-5090 97 c-3 -3 -9 2 -12 12 -6 14 -5 15 5
6 7 -7 10 -15 7 -18z m1819 -331 c-4 -4 -46 -24 -94 -44 l-87 -38 -19 -58
c-11 -33 -20 -60 -21 -60 0 -1 -20 -5 -43 -9 -28 -4 -43 -3 -43 4 0 18 132
152 179 183 32 20 58 28 90 28 24 0 41 -3 38 -6z m1679 -85 c-14 -17 -26 -39
-26 -50 0 -11 -13 -25 -32 -35 -63 -31 -78 -53 -78 -108 0 -49 10 -102 25
-138 5 -13 2 -18 -10 -18 -26 0 -75 -55 -75 -85 0 -40 25 -90 70 -138 l41 -45
-98 -32 c-54 -18 -101 -37 -105 -43 -6 -9 -76 -30 -137 -40 -27 -4 -124 184
-151 291 -7 25 -17 42 -25 42 -8 0 -15 2 -15 5 0 13 68 65 92 70 15 4 30 11
33 15 3 5 41 28 83 50 123 64 243 150 263 190 14 26 36 43 86 68 84 40 92 40
59 1z m-1498 -20 c21 -12 52 -19 83 -19 30 0 97 -14 162 -35 62 -19 179 -54
262 -77 l150 -43 11 -95 c16 -134 113 -379 204 -516 62 -95 64 -119 13 -129
-21 -3 -54 -17 -74 -30 -44 -28 -100 -45 -156 -45 -53 0 -369 108 -488 167
-49 25 -111 61 -138 79 -26 19 -51 34 -56 34 -6 0 -38 26 -72 57 -70 65 -88
100 -124 242 -13 53 -34 119 -46 146 -30 67 -29 140 1 194 52 91 175 123 268
70z m3272 -34 c-14 -37 -50 -105 -55 -105 -3 0 -2 19 1 43 5 28 15 49 33 64
33 28 32 28 21 -2z m-3614 -635 c4 -21 0 -28 -20 -40 -14 -7 -26 -17 -26 -22
0 -5 13 -2 29 6 33 18 41 13 41 -26 0 -36 43 -78 121 -117 31 -16 54 -32 50
-37 -3 -5 -25 -26 -49 -46 -31 -28 -51 -38 -76 -38 -75 0 -148 -47 -187 -121
-49 -96 -139 -189 -295 -307 -86 -64 -175 -130 -198 -146 -22 -16 -99 -72
-171 -124 -71 -53 -136 -95 -145 -95 -8 0 -33 -12 -55 -27 -119 -81 -225 -117
-467 -159 -210 -37 -262 -52 -324 -94 -110 -73 -154 -178 -157 -375 -1 -67 -5
-122 -8 -122 -22 0 -102 90 -134 152 -21 40 -43 76 -49 80 -6 4 6 39 34 95 34
69 61 105 124 169 45 44 100 96 124 115 32 25 45 43 48 69 6 38 33 72 77 98
19 11 41 42 62 87 25 52 60 98 131 173 l97 103 61 -3 c54 -3 61 -5 64 -25 2
-12 -7 -36 -20 -54 -23 -31 -133 -112 -218 -159 -39 -22 -76 -67 -65 -78 9 -9
112 63 155 109 33 34 59 51 98 62 59 18 224 128 301 200 35 33 65 79 106 157
l56 110 97 48 c53 26 102 49 107 51 6 2 -13 -19 -42 -45 -66 -63 -83 -112 -57
-169 10 -22 19 -42 21 -46 2 -3 -16 -16 -39 -29 -84 -47 -172 -111 -200 -145
l-29 -34 28 -18 c42 -28 186 -25 283 6 139 44 255 134 280 219 11 34 10 45 -9
86 l-21 48 105 100 c212 202 295 348 235 408 -42 42 -70 29 -208 -97 -158
-146 -201 -183 -211 -183 -4 0 -6 14 -3 30 2 17 -1 37 -8 45 -9 11 -4 18 27
39 21 14 48 33 60 43 27 22 47 79 30 86 -13 4 -110 -15 -141 -28 -18 -8 -19
-5 -12 35 11 69 18 74 112 66 79 -6 84 -5 160 31 44 20 120 53 169 73 l90 37
27 -101 c15 -56 30 -112 34 -126z m622 -379 c51 -26 210 -75 307 -96 44 -9 92
-22 107 -29 18 -8 46 -10 85 -5 89 11 103 10 103 -5 0 -8 17 -28 37 -45 l38
-31 -23 -43 c-12 -23 -46 -71 -75 -107 l-53 -65 -85 3 c-46 2 -120 7 -164 13
-132 15 -231 12 -273 -10 -46 -23 -66 -46 -127 -139 -36 -53 -53 -71 -64 -67
-129 52 -153 58 -189 47 -20 -6 -38 -10 -40 -8 -2 2 25 39 61 82 164 203 250
343 283 462 10 34 21 62 26 62 5 0 25 -8 46 -19z m-1785 -198 c-63 -98 -83
-127 -83 -120 0 4 7 22 16 39 15 29 15 33 1 43 -13 10 -10 15 26 38 52 34 62
34 40 0z m2048 -487 c44 -20 50 -25 34 -31 -11 -3 -42 -15 -70 -26 -75 -31
-83 -32 -115 -19 -37 15 -37 24 -4 67 21 27 32 33 63 33 21 0 63 -11 92 -24z
m-821 -31 c-7 -8 -14 -46 -15 -84 -4 -79 7 -106 62 -163 33 -34 35 -39 24 -69
-35 -101 19 -189 115 -189 50 0 36 -12 -54 -44 -107 -38 -172 -74 -172 -96 0
-4 16 -11 35 -14 40 -8 43 -16 15 -41 -11 -10 -20 -28 -20 -39 0 -50 -181
-186 -331 -250 -125 -53 -141 -43 -23 13 109 52 118 62 113 129 -3 43 -42 92
-73 92 -32 0 -408 -115 -454 -139 -22 -11 -50 -35 -63 -52 l-22 -32 -27 59
c-31 67 -68 106 -122 128 -57 24 -99 20 -191 -19 -42 -18 1 30 107 118 175
147 218 176 280 192 98 26 167 68 321 200 56 48 116 85 325 199 47 25 105 61
130 80 50 39 58 43 40 21z m4304 -422 c32 -32 40 -76 32 -166 -12 -129 -55
-257 -91 -271 -25 -9 -64 -7 -85 4 -30 16 -48 87 -54 210 -6 107 -4 119 18
165 23 49 48 78 75 87 29 9 82 -5 105 -29z m-5624 -504 c-22 -28 -43 -62 -46
-75 -4 -14 -13 -24 -24 -24 -25 0 -50 10 -50 20 0 10 141 130 153 130 4 0 -11
-23 -33 -51z m475 -197 c-22 -5 -27 1 -19 23 7 17 8 17 21 -1 12 -17 12 -19
-2 -22z m1126 -1037 c25 -13 38 -14 88 -4 74 16 128 2 165 -42 32 -37 34 -86
6 -131 -11 -18 -20 -41 -20 -51 0 -31 -30 -77 -63 -97 -36 -22 -115 -26 -182
-10 -22 6 -64 15 -93 20 -65 11 -106 40 -132 90 -59 116 20 240 153 240 26 0
61 -7 78 -15z m4533 -5530 c9 -71 30 -197 47 -279 16 -81 28 -153 27 -158 -2
-6 -26 59 -53 143 -50 154 -50 154 -51 297 -1 79 2 140 6 135 4 -4 15 -66 24
-138z"/>
<path d="M7685 21120 c-3 -5 -1 -10 4 -10 6 0 11 5 11 10 0 6 -2 10 -4 10 -3
0 -8 -4 -11 -10z"/>
<path d="M8166 19702 c-3 -5 1 -9 9 -9 8 0 12 4 9 9 -3 4 -7 8 -9 8 -2 0 -6
-4 -9 -8z"/>
<path d="M10465 15903 c-110 -9 -315 -51 -315 -63 0 -18 103 -23 268 -11 188
13 234 19 227 31 -6 10 56 19 75 11 8 -3 42 -4 75 -1 77 7 49 16 -94 30 -100
10 -152 10 -236 3z"/>
<path d="M10680 15599 c-30 -4 -91 -13 -135 -19 -107 -14 -111 -15 -180 -38
-33 -11 -114 -32 -180 -46 -119 -26 -221 -59 -239 -77 -6 -6 -4 -9 5 -9 9 0
30 -13 48 -29 l32 -29 -26 -25 -27 -24 34 -35 33 -36 144 -6 c139 -6 342 -25
350 -32 2 -1 -6 -15 -17 -29 -26 -33 -58 -129 -73 -220 -20 -118 -15 -385 10
-487 22 -93 72 -232 114 -315 27 -52 138 -181 190 -220 27 -20 223 -88 277
-96 14 -2 33 -8 44 -12 22 -10 392 0 565 15 113 10 127 14 171 43 27 18 66 43
88 56 84 50 218 205 192 221 -6 4 -57 17 -112 30 -75 17 -109 30 -131 50 -30
27 -31 28 -18 69 18 60 57 76 173 67 47 -3 107 -13 133 -22 26 -8 51 -12 55
-7 25 28 60 274 60 422 0 146 -20 219 -102 380 -16 29 -28 55 -28 57 0 2 14 4
30 4 17 0 33 6 36 14 3 8 19 20 35 26 21 9 28 18 24 30 -5 14 3 18 40 22 25 3
49 8 52 11 13 13 -42 63 -96 87 -32 14 -76 38 -97 53 -80 55 -268 87 -509 87
-108 0 -202 7 -298 21 -100 15 -176 20 -264 17 -68 -2 -123 1 -123 5 0 5 -5 5
-11 1 -7 -4 -9 0 -5 14 7 20 4 21 -101 20 -59 0 -133 -4 -163 -9z m726 -1654
c-3 -8 0 -15 6 -15 6 0 8 -3 5 -6 -8 -8 -37 14 -37 27 0 5 7 9 16 9 10 0 14
-6 10 -15z"/>
<path d="M6635 15559 c-146 -20 -201 -30 -215 -40 -10 -7 23 -8 110 -3 69 4
148 8 175 9 187 6 236 9 210 12 -16 3 -35 9 -42 15 -17 14 -155 18 -238 7z"/>
<path d="M12212 14088 c-7 -7 -12 -18 -12 -25 0 -21 28 -27 46 -9 13 13 14 19
4 31 -15 18 -22 19 -38 3z"/>
<path d="M12134 13985 c-9 -23 3 -45 26 -45 13 0 20 7 20 20 0 11 -7 20 -16
20 -8 0 -12 5 -9 10 3 6 1 10 -5 10 -6 0 -13 -7 -16 -15z"/>
<path d="M12005 13860 c-8 -13 46 -110 69 -124 12 -8 19 -7 26 4 17 26 11 62
-16 97 -25 33 -66 45 -79 23z"/>
<path d="M11856 13792 c-8 -14 5 -50 21 -56 20 -8 33 1 33 23 0 30 -40 55 -54
33z"/>
<path d="M6360 13725 c-10 -12 -10 -19 -2 -27 15 -15 48 14 38 31 -10 15 -21
14 -36 -4z"/>
<path d="M6433 13636 c-6 -8 -9 -17 -6 -20 7 -7 33 13 33 25 0 13 -13 10 -27
-5z"/>
<path d="M6520 13581 c-12 -24 -13 -78 -1 -85 28 -18 77 55 59 87 -12 23 -45
21 -58 -2z"/>
<path d="M6680 13565 c-16 -20 -6 -45 20 -45 23 0 28 31 6 49 -10 9 -16 8 -26
-4z"/>
<path d="M8890 11976 c8 -8 49 -29 92 -45 64 -26 90 -31 162 -31 81 0 111 9
84 27 -14 8 -109 21 -198 27 -30 2 -72 10 -94 20 -48 20 -65 21 -46 2z"/>
<path d="M10461 11144 c0 -11 3 -14 6 -6 3 7 2 16 -1 19 -3 4 -6 -2 -5 -13z"/>
<path d="M10480 11096 c0 -2 8 -10 18 -17 15 -13 16 -12 3 4 -13 16 -21 21
-21 13z"/>
<path d="M13759 13743 c12 -18 27 -33 34 -33 6 0 5 5 -4 13 -8 6 -23 21 -33
32 -14 15 -13 11 3 -12z"/>
<path d="M2385 8501 c-53 -24 -103 -82 -117 -137 -12 -44 -21 -53 -33 -34 -9
15 -35 12 -35 -5 0 -8 -26 -65 -57 -127 l-57 -112 -13 44 c-13 44 -50 93 -64
85 -4 -3 -9 -1 -11 5 -9 29 -133 12 -154 -21 -22 -36 -346 -152 -525 -189
-139 -29 -312 -25 -376 8 -75 39 -155 157 -238 349 -32 72 -72 99 -134 89 -20
-3 -41 -7 -48 -8 -7 -1 -15 -8 -17 -15 -3 -8 -10 -11 -16 -8 -6 3 -7 -1 -4
-10 4 -8 1 -22 -6 -30 -31 -38 30 -257 111 -401 56 -99 164 -211 239 -247 169
-81 416 -87 689 -18 l113 29 -6 -26 c-4 -15 -9 -81 -13 -148 -8 -155 10 -238
79 -376 79 -157 182 -248 348 -304 85 -29 317 -27 423 4 97 28 226 92 342 170
194 130 270 212 319 344 l24 63 133 1 c214 3 454 61 595 144 170 101 284 288
241 393 -29 67 -84 62 -277 -27 -138 -64 -231 -97 -365 -130 -117 -29 -284
-51 -295 -39 -5 4 -18 37 -30 73 -51 153 -144 305 -254 416 -172 173 -383 253
-511 195z m91 -546 c154 -195 220 -268 289 -321 l34 -26 -19 -50 c-25 -66 -35
-76 -157 -159 -180 -122 -301 -167 -424 -156 -110 10 -169 63 -220 197 -25 64
-28 190 -10 305 22 134 25 139 110 188 105 61 173 125 200 188 13 28 26 47 30
43 5 -5 80 -99 167 -209z"/>
<path d="M3917 6326 c-34 -42 -55 -85 -91 -188 -92 -258 -198 -448 -337 -601
-80 -89 -88 -92 -130 -62 -18 14 -41 25 -50 25 -40 0 -187 -54 -353 -129 -174
-79 -195 -84 -196 -49 0 17 -68 41 -110 40 -64 -1 -125 -26 -455 -182 -159
-76 -355 -166 -435 -200 -162 -71 -190 -86 -190 -107 0 -8 -4 -12 -8 -9 -7 4
-9 -5 -14 -64 -3 -38 4 -61 28 -89 14 -17 30 -29 35 -25 5 3 9 0 9 -6 0 -7 6
-10 14 -7 8 3 19 0 25 -7 9 -11 1 -16 -36 -26 -27 -7 -52 -16 -57 -21 -13 -11
90 -66 178 -94 109 -35 234 -42 351 -21 50 9 98 19 108 22 14 5 17 -1 17 -39
0 -148 108 -297 252 -347 212 -73 537 15 838 228 120 84 275 238 324 320 100
167 113 351 36 515 l-21 44 123 124 c180 180 267 323 305 503 18 84 13 261
-10 344 -14 53 -71 148 -94 156 -7 3 -32 -19 -56 -48z m-567 -1285 c20 -38 12
-104 -19 -154 -49 -76 -174 -185 -316 -275 -160 -100 -394 -162 -440 -115 -20
19 -15 69 16 169 15 49 27 67 57 89 20 15 69 61 107 101 l70 73 115 16 c108
15 286 66 348 99 36 20 49 20 62 -3z m-1066 -202 c-47 -52 -201 -110 -329
-123 -57 -7 -53 -4 85 47 80 30 168 64 195 75 64 27 72 27 49 1z"/>
</g>
</svg>
