<?xml version="1.0" standalone="no"?>
<!DOCTYPE svg PUBLIC "-//W3C//DTD SVG 20010904//EN"
 "http://www.w3.org/TR/2001/REC-SVG-20010904/DTD/svg10.dtd">
<svg version="1.0" xmlns="http://www.w3.org/2000/svg"
 width="1735.000000pt" height="2068.000000pt" viewBox="0 0 1735.000000 2068.000000"
 preserveAspectRatio="xMidYMid meet">

<g transform="translate(0.000000,2068.000000) scale(0.100000,-0.100000)"
fill="#000000" stroke="none">
<path d="M9860 20660 c-80 -10 -188 -18 -240 -18 -110 0 -285 -28 -486 -79
l-142 -35 -42 28 c-53 35 -132 42 -289 25 -84 -10 -113 -10 -134 0 -24 11 -30
10 -51 -10 -41 -39 -41 -73 2 -153 5 -10 -113 -44 -178 -52 -71 -9 -133 -44
-240 -138 -159 -139 -298 -308 -352 -428 -33 -70 -118 -322 -117 -343 0 -6 9
11 18 39 37 101 44 109 156 169 147 79 287 141 445 196 74 26 221 77 325 114
153 53 298 95 331 95 3 0 -4 -12 -15 -26 -40 -51 -15 -113 47 -117 27 -2 56
-25 175 -142 155 -152 192 -205 323 -465 32 -63 61 -117 66 -118 4 -2 6 -8 2
-13 -3 -5 -1 -9 4 -9 5 0 12 -9 15 -20 4 -14 10 -18 23 -13 12 4 15 3 10 -5
-9 -15 -1 -15 23 -1 17 11 17 15 -4 113 -25 117 -58 221 -90 286 -12 25 -20
52 -17 60 3 8 1 12 -3 8 -5 -5 -15 2 -23 13 -21 30 -8 35 122 48 191 19 266
20 266 4 0 -7 7 -16 15 -19 8 -4 15 -11 15 -18 1 -29 53 -48 158 -59 61 -6 98
-13 87 -17 -12 -4 7 -9 50 -13 128 -13 141 -23 40 -31 -113 -8 -197 -26 -192
-40 4 -13 48 -19 237 -35 74 -6 178 -17 230 -23 247 -29 283 -35 437 -73 57
-14 108 -25 115 -24 29 3 37 -4 85 -78 75 -115 134 -213 127 -213 -3 0 2 -7
10 -16 9 -8 16 -24 16 -35 0 -10 4 -19 9 -19 14 0 112 -191 104 -203 -3 -5 -1
-7 5 -3 10 6 23 -17 21 -38 0 -5 4 -12 9 -15 5 -3 52 -89 102 -191 71 -140 95
-199 100 -242 7 -48 21 -79 87 -185 44 -71 83 -133 87 -140 6 -11 35 -149 57
-276 6 -32 8 -61 5 -64 -3 -4 -16 -1 -29 4 -15 7 -29 8 -38 2 -12 -7 -12 -9 1
-9 17 0 52 -35 43 -43 -3 -3 3 -4 14 -1 10 2 25 0 33 -6 13 -9 12 -13 -9 -30
-22 -19 -24 -19 -38 -3 -9 12 -12 13 -8 3 4 -10 2 -9 -8 3 -16 19 -32 23 -20
5 11 -18 10 -32 -2 -41 -6 -5 -4 -7 5 -6 29 3 36 -1 37 -23 2 -24 -12 -38 -40
-38 -11 0 -15 4 -11 12 4 7 3 8 -4 4 -7 -4 -12 -2 -12 5 0 7 -3 10 -6 6 -3 -3
3 -19 15 -35 12 -17 21 -42 21 -56 0 -16 6 -26 15 -26 8 0 15 -7 15 -16 0 -13
7 -15 36 -10 49 10 67 -6 48 -42 -20 -38 -18 -42 21 -42 26 0 35 4 36 18 0 14
2 14 8 -3 5 -11 5 -28 0 -37 -6 -10 -5 -19 1 -23 5 -3 10 -30 10 -60 0 -47 2
-53 19 -48 15 4 20 -4 30 -41 6 -25 11 -47 11 -50 0 -3 -18 -6 -40 -6 -32 0
-40 4 -40 19 0 16 -7 18 -61 14 -46 -3 -66 0 -79 12 -10 9 -23 15 -30 13 -7
-2 -15 3 -17 10 -3 6 0 12 6 12 12 0 -15 49 -33 62 -5 3 -11 12 -12 20 -1 7
-9 29 -17 48 -14 31 -15 32 -16 11 -1 -14 13 -94 30 -178 27 -135 35 -157 60
-183 16 -15 29 -27 29 -25 0 2 14 -1 30 -6 17 -6 30 -17 30 -25 0 -8 6 -14 13
-14 20 0 73 -28 87 -45 7 -8 19 -15 27 -15 7 0 16 -7 19 -15 4 -8 10 -13 14
-10 4 3 11 -7 15 -23 25 -102 37 -130 58 -136 20 -6 68 -58 50 -55 -4 1 -34 1
-67 0 -48 -1 -57 -4 -52 -17 4 -10 2 -13 -6 -8 -8 5 -9 2 -4 -12 5 -10 11 -28
14 -39 3 -11 10 -23 16 -27 8 -5 7 -8 -1 -8 -8 0 -9 -10 -1 -37 9 -35 29 -63
43 -63 4 0 26 -16 48 -36 23 -19 49 -33 58 -31 14 4 20 -14 38 -102 33 -167
60 -359 54 -392 -2 -17 1 -37 7 -44 7 -8 -9 -3 -35 10 -52 28 -95 33 -95 10 0
-8 4 -15 8 -15 4 0 8 -8 9 -18 2 -21 150 -392 164 -408 6 -7 -57 -11 -220 -12
l-230 -2 -84 99 c-277 325 -504 707 -644 1081 -54 145 -54 145 -69 330 -31
408 -71 718 -129 1008 -19 95 -35 175 -35 177 0 3 -5 5 -11 5 -14 0 -11 -31
24 -230 74 -421 116 -920 133 -1570 8 -337 -13 -834 -42 -997 -5 -25 -12 -33
-36 -38 -26 -6 -113 -68 -158 -113 -13 -13 -13 -13 6 -4 12 6 24 9 26 7 3 -3
31 6 63 20 32 14 63 25 70 23 14 -3 -37 -254 -138 -678 -31 -129 -60 -255 -65
-280 -8 -38 -10 -40 -11 -14 -3 86 -99 526 -225 1029 -42 165 -80 329 -86 365
-5 36 -27 142 -49 235 -33 144 -82 426 -157 910 -32 202 -106 596 -150 795
-84 381 -120 507 -174 615 -28 55 -48 89 -45 75 3 -14 36 -158 74 -320 203
-859 354 -1882 421 -2845 6 -82 15 -213 21 -290 14 -171 17 -750 5 -860 -8
-68 -10 -76 -17 -50 -5 17 -11 62 -14 100 -12 156 -11 153 -58 162 -59 12 -71
-3 -112 -143 -39 -134 -46 -152 -88 -244 -36 -80 -65 -122 -78 -114 -13 8 -61
-24 -54 -36 4 -6 1 -10 -5 -10 -6 0 -54 -45 -108 -100 -53 -55 -122 -117 -152
-138 -62 -43 -71 -73 -39 -127 11 -16 19 -27 19 -23 0 4 14 2 30 -4 22 -7 34
-7 44 1 7 6 16 8 19 4 4 -3 15 1 25 10 10 10 22 14 25 10 4 -3 8 1 8 10 3 38
5 42 24 38 44 -8 75 -3 115 18 23 12 44 20 46 19 1 -2 5 -34 8 -71 4 -58 3
-67 -10 -56 -8 6 -14 22 -14 35 0 12 -4 25 -9 28 -13 9 -62 -34 -60 -53 3 -37
-1 -50 -16 -45 -20 8 -45 -14 -62 -53 -7 -18 -20 -33 -28 -33 -22 0 -18 -17 7
-34 35 -25 15 -28 -36 -7 -25 11 -46 19 -46 17 0 -2 51 -41 113 -86 122 -91
266 -232 355 -350 31 -41 81 -98 110 -127 28 -29 52 -59 52 -67 0 -19 26 -39
56 -42 28 -3 32 15 10 49 -20 31 -21 332 -4 937 26 948 9 1545 -58 2093 -15
121 -13 158 5 129 4 -7 16 -57 25 -110 10 -53 24 -119 31 -147 8 -27 37 -149
65 -270 29 -121 65 -276 81 -345 17 -69 52 -231 79 -360 27 -129 54 -250 60
-268 l12 -33 28 60 c86 181 197 616 257 1006 18 115 19 118 48 131 87 36 545
98 676 92 l62 -3 48 -70 c27 -38 91 -107 141 -153 127 -113 176 -170 184 -212
4 -19 13 -47 20 -61 16 -33 121 -129 234 -217 47 -37 127 -103 178 -147 51
-44 130 -105 175 -135 65 -44 83 -61 88 -86 3 -17 26 -69 51 -115 93 -170 107
-203 122 -296 31 -177 18 -365 -49 -703 -45 -226 -101 -363 -250 -620 -90
-157 -165 -265 -282 -407 -85 -104 -89 -122 -20 -87 18 9 52 31 77 49 25 17
68 40 95 50 28 10 68 27 90 39 79 41 80 41 49 -11 -15 -27 -38 -59 -51 -72
-71 -73 -219 -496 -264 -755 -17 -102 -66 -163 -174 -218 -22 -11 -57 -39 -77
-61 -36 -39 -42 -51 -39 -71 1 -5 -9 -21 -22 -35 -36 -40 -67 -87 -67 -104 0
-8 14 -27 31 -42 l32 -26 -9 -117 c-10 -149 -10 -151 4 -311 7 -74 12 -182 12
-238 0 -57 7 -139 16 -181 15 -72 15 -114 -1 -154 -5 -13 5 -23 46 -44 29 -14
69 -37 89 -50 19 -12 52 -26 74 -30 l39 -7 -5 34 -5 33 28 -34 c16 -19 29 -37
29 -41 0 -13 72 -41 93 -35 12 3 40 -5 70 -21 55 -30 62 -26 72 37 9 53 18 64
65 76 l43 10 -29 21 c-22 16 -25 23 -14 26 141 46 281 140 443 296 l121 118
62 -124 c35 -68 68 -150 74 -181 24 -118 61 -171 128 -181 33 -5 42 -14 87
-83 51 -78 65 -91 65 -61 0 14 4 12 25 -7 31 -29 31 -25 -2 55 -24 60 -26 69
-14 101 10 27 11 71 6 173 -7 134 -7 137 19 185 14 27 26 55 26 62 0 8 1 14 3
14 2 0 31 -27 65 -60 34 -33 67 -60 74 -60 8 1 5 7 -7 16 -41 30 -129 120
-166 169 -60 80 -113 201 -115 262 -1 29 1 51 5 50 3 0 15 4 27 10 43 24 77
10 111 -47 47 -78 54 -80 35 -12 -19 71 -18 75 59 322 49 155 59 208 37 194
-8 -5 -9 0 -4 17 4 13 17 61 28 107 22 84 29 88 43 24 13 -60 87 -175 159
-247 115 -114 283 -200 447 -229 46 -9 127 -25 179 -36 65 -14 124 -20 185
-18 50 1 110 -2 135 -6 78 -13 220 8 285 43 32 17 65 31 73 31 29 0 160 70
164 87 7 29 -11 82 -32 93 -23 12 -188 35 -196 27 -5 -4 -9 -20 -13 -47 -1 -3
-12 -18 -25 -33 -25 -29 -102 -57 -157 -57 -25 0 -154 71 -230 126 -37 27 -75
99 -58 110 15 9 10 75 -11 149 -11 38 -20 71 -20 73 0 2 19 -13 42 -33 39 -33
131 -82 186 -100 22 -6 23 -5 17 16 -4 13 -23 45 -41 71 -37 54 -99 208 -139
343 -21 70 -29 125 -36 249 -5 87 -14 185 -20 217 -16 79 -7 276 17 364 l18
70 8 -50 c50 -302 115 -484 219 -610 41 -50 111 -105 135 -105 6 0 21 -16 33
-35 20 -35 74 -75 100 -75 7 0 31 -20 53 -44 21 -25 63 -57 93 -72 47 -22 65
-26 120 -22 50 3 70 9 90 28 46 43 31 88 -49 143 -23 16 -25 23 -20 55 5 35 3
41 -35 75 -32 29 -43 48 -51 85 -9 45 -30 285 -30 344 l0 28 54 -44 c65 -53
145 -91 233 -113 57 -14 78 -15 151 -4 122 17 192 51 192 91 0 31 -36 51 -112
61 -160 22 -315 97 -383 186 -81 106 -102 284 -51 418 67 171 152 314 253 426
l60 66 21 114 c17 91 42 262 42 289 0 3 98 5 218 5 173 0 234 4 302 19 97 21
202 57 275 94 46 23 62 25 190 26 115 1 155 6 223 25 l82 24 0 169 0 168 -144
0 -144 0 -54 46 c-29 25 -82 61 -118 81 -151 84 -229 143 -270 203 -59 87
-142 248 -199 388 -42 103 -47 122 -32 117 26 -8 65 12 84 44 8 14 27 67 41
118 14 50 46 146 71 213 108 296 146 557 110 776 -40 246 -232 632 -554 1109
-97 143 -238 353 -313 466 -94 141 -148 213 -170 226 -24 15 -53 56 -108 153
-100 179 -233 379 -327 492 -124 151 -434 453 -600 585 -125 100 -160 122
-195 128 -85 12 -96 17 -136 51 -29 24 -48 52 -62 93 -20 55 -29 64 -145 156
l-123 98 19 31 c30 51 38 108 23 152 -8 22 -14 55 -14 74 0 19 -9 67 -20 105
-11 38 -20 96 -20 128 0 54 -1 57 -22 52 -13 -3 -42 -9 -65 -14 l-43 -9 0 42
c0 40 -21 185 -35 239 -7 25 -4 28 24 33 18 4 30 12 28 18 -2 6 -39 38 -82 71
-43 33 -82 68 -86 78 -5 9 -13 25 -17 35 -5 9 -28 27 -52 40 -78 39 -185 30
-510 -44 -183 -42 -197 -44 -222 -30 -14 9 -38 16 -53 16 -38 0 -98 51 -141
121 l-37 59 -133 0 c-108 0 -132 -3 -128 -14 3 -7 55 -57 115 -111 61 -54 123
-117 140 -141 48 -70 109 -103 109 -58 0 21 59 54 97 54 18 0 67 11 110 24 43
14 140 41 216 60 162 42 239 46 330 16 70 -23 88 -35 106 -68 7 -13 34 -37 61
-53 76 -46 117 -120 101 -177 -6 -19 3 -98 27 -245 34 -208 35 -218 19 -251
-9 -19 -31 -43 -49 -52 -18 -9 -61 -43 -96 -75 -118 -108 -242 -158 -595 -239
-337 -78 -436 -121 -454 -197 -10 -44 -26 -51 -132 -52 -57 -1 -85 4 -118 20
l-44 21 -87 -21 c-49 -12 -120 -21 -162 -21 -64 0 -77 -3 -87 -20 -7 -10 -31
-25 -53 -31 -30 -9 -39 -17 -35 -28 3 -9 -3 -5 -14 9 -11 13 -17 28 -15 32 3
4 0 15 -6 25 -7 10 -28 58 -48 106 -38 89 -133 226 -220 315 -52 53 -88 121
-108 208 -22 96 -22 353 0 469 34 178 87 379 114 436 l28 59 -810 -1 c-718 -1
-828 -3 -956 -19z m-1423 -308 c8 -5 -28 -27 -100 -59 -61 -28 -147 -67 -189
-86 -43 -20 -78 -35 -78 -33 0 6 155 115 215 150 58 36 122 47 152 28z m738
-222 c-3 -5 -14 -10 -23 -9 -14 0 -13 2 3 9 27 11 27 11 20 0z m169 -164 c-5
-12 -21 -14 -44 -6 -3 1 6 6 20 10 14 4 26 8 27 9 1 1 0 -5 -3 -13z m14 -175
c3 -9 0 -11 -9 -5 -11 6 -12 5 -3 -7 16 -20 26 -79 14 -79 -6 0 -10 11 -10 24
0 14 -4 27 -9 30 -5 3 -11 17 -14 31 -3 20 -1 25 11 23 8 -2 17 -9 20 -17z
m2194 -621 c29 0 59 -32 48 -51 -5 -7 -2 -25 6 -41 8 -16 12 -33 9 -38 -3 -6
-1 -10 4 -10 6 0 11 -4 11 -10 0 -5 -3 -10 -7 -10 -9 1 -83 107 -83 120 0 4
-6 10 -14 13 -8 3 -20 15 -26 27 -11 20 -10 21 9 11 11 -6 30 -11 43 -11z
m693 -215 c-16 -8 -40 -14 -52 -15 -12 0 -24 -4 -27 -9 -8 -13 -42 -2 -62 20
-17 19 -15 19 77 18 88 -1 92 -2 64 -14z m-450 -176 c-4 -5 -1 -10 4 -10 19
-2 33 -8 161 -63 71 -31 116 -50 163 -70 20 -8 37 -19 37 -24 0 -5 15 -12 33
-15 18 -3 56 -19 85 -36 29 -17 62 -31 72 -31 11 0 20 -4 20 -9 0 -11 56 -41
76 -41 8 0 19 -9 26 -20 7 -11 21 -20 30 -20 18 0 42 -33 31 -44 -3 -3 1 -6
10 -6 14 0 15 -4 5 -26 -11 -23 -9 -28 18 -53 17 -16 41 -32 55 -36 13 -4 42
-22 64 -40 37 -30 102 -69 116 -70 7 0 40 -23 108 -76 25 -20 51 -34 58 -32 6
2 14 -5 18 -15 3 -11 20 -27 38 -36 35 -18 77 -50 77 -61 0 -4 13 -19 28 -35
15 -15 34 -46 42 -69 12 -38 30 -56 30 -29 0 6 3 9 6 5 4 -3 13 0 20 8 8 7 18
15 23 17 6 2 6 20 0 48 -5 25 -12 79 -15 121 l-6 76 31 22 c29 21 31 21 31 4
0 -14 2 -15 9 -5 6 10 13 5 29 -20 20 -32 72 -179 72 -203 0 -6 9 -20 20 -30
22 -19 29 -53 66 -279 14 -87 22 -171 19 -187 -4 -16 -17 -39 -31 -51 -28 -27
-32 -80 -9 -135 15 -35 17 -36 33 -20 9 10 17 23 18 30 0 6 2 32 3 57 2 25 5
39 8 33 2 -7 10 -13 16 -13 6 0 26 -17 45 -37 29 -32 35 -47 39 -93 6 -102 10
-137 16 -147 3 -5 13 -49 22 -98 10 -50 19 -97 21 -105 20 -73 44 -210 41
-232 -2 -15 0 -25 4 -23 8 5 19 -30 19 -62 0 -13 -10 -29 -23 -38 -13 -8 -29
-31 -35 -51 -10 -34 -8 -39 38 -110 27 -41 52 -84 55 -95 4 -10 11 -17 16 -14
21 14 7 -24 -14 -38 -40 -26 -52 -70 -37 -131 7 -28 15 -57 17 -63 4 -9 -5
-13 -24 -13 -34 0 -66 -29 -63 -57 4 -34 0 -54 -9 -48 -6 3 -15 -22 -22 -55
-6 -33 -16 -63 -20 -66 -18 -11 -8 -63 17 -94 26 -31 27 -33 14 -88 -7 -31
-17 -62 -22 -69 -5 -7 -7 -17 -3 -22 4 -7 -1 -8 -12 -4 -15 6 -16 4 -6 -8 10
-12 9 -18 -5 -30 -10 -9 -25 -18 -35 -22 -23 -9 -78 12 -99 37 l-16 21 -7 -26
c-3 -14 -8 -34 -10 -45 -2 -10 -4 -21 -5 -24 -1 -3 -2 -8 -1 -12 0 -5 -5 -8
-13 -8 -16 0 -29 -27 -19 -42 4 -7 1 -8 -7 -3 -10 6 -12 3 -8 -13 4 -12 2 -20
-3 -16 -5 3 -9 12 -9 20 0 8 -4 14 -9 14 -11 0 -22 -34 -46 -140 -28 -120 -19
-141 -94 215 -70 331 -104 410 -169 393 -18 -5 -28 17 -96 216 -41 121 -95
300 -120 396 -25 96 -61 224 -80 284 -19 61 -33 113 -30 117 2 4 0 9 -5 11
-11 4 -63 127 -65 155 0 11 -4 19 -7 17 -4 -2 -16 18 -27 44 -16 36 -18 50 -9
62 6 8 7 11 2 7 -9 -8 -68 132 -104 248 -34 107 -149 386 -151 365 0 -3 38
-111 85 -240 46 -128 83 -235 82 -237 -2 -1 -21 37 -42 85 -21 48 -79 170
-128 272 -77 160 -95 208 -133 355 -37 140 -118 399 -150 479 -6 16 -4 17 13
8 11 -6 23 -8 27 -5 3 3 6 -1 6 -10 0 -19 45 -52 59 -43 5 4 13 1 16 -5 4 -5
13 -8 21 -5 9 4 14 0 12 -9 -6 -27 17 -17 36 16 11 20 19 56 20 86 1 40 4 49
14 41 6 -6 12 -8 12 -4 0 13 -81 58 -95 52 -19 -7 -47 3 -39 15 3 5 -4 9 -15
9 -11 0 -22 9 -26 19 -3 10 -16 22 -29 25 -13 3 -32 9 -42 13 -13 5 -15 3 -9
-8 7 -11 5 -11 -10 1 -10 8 -16 10 -12 4 5 -8 -6 -13 -33 -16 -30 -3 -40 0
-40 11 0 8 -3 11 -7 8 -3 -4 -17 2 -29 14 -12 11 -39 27 -61 34 -31 10 -45 25
-75 76 -20 35 -37 66 -37 69 -1 3 8 6 19 7 11 1 18 -2 15 -8z m334 -252 c31
-13 31 -14 12 -31 -18 -17 -20 -16 -34 13 -9 17 -14 31 -12 31 1 0 17 -6 34
-13z m158 -109 c-3 -8 -6 -5 -6 6 -1 11 2 17 5 13 3 -3 4 -12 1 -19z m954
-122 c11 -9 22 -15 26 -13 6 2 11 -14 28 -91 4 -15 0 -24 -12 -29 -10 -3 -29
-15 -42 -25 -43 -32 -48 -25 -54 75 -3 50 -9 105 -13 120 l-7 29 28 -25 c15
-14 36 -32 46 -41z m2880 -1652 c187 -338 322 -602 373 -730 31 -80 36 -102
36 -177 0 -47 -7 -121 -15 -164 -22 -113 -81 -311 -125 -417 -21 -50 -45 -118
-53 -150 -9 -32 -17 -60 -20 -62 -2 -2 -26 69 -54 159 -40 126 -54 187 -63
277 -16 168 -38 335 -65 502 -14 80 -30 202 -35 270 -16 194 -103 657 -146
773 -17 46 15 -7 167 -281z m-4986 -329 c141 -369 286 -628 542 -968 58 -76
103 -140 101 -141 -1 -1 -61 -8 -133 -15 -151 -14 -380 -52 -489 -80 -42 -10
-78 -16 -80 -12 -2 3 1 54 7 114 8 82 7 135 -3 222 -11 93 -11 125 -1 168 10
39 12 151 10 439 -2 213 -1 384 2 380 3 -4 22 -52 44 -107z m1216 -1181 c26
-4 40 -13 48 -31 15 -33 15 -34 -15 -23 -35 14 -54 12 -54 -3 0 -8 -7 -14 -14
-14 -21 0 -84 -45 -88 -63 -2 -8 -4 -36 -3 -62 1 -47 1 -47 -20 -29 -11 10
-75 64 -142 120 -67 56 -126 107 -129 113 -5 8 46 9 187 4 107 -4 210 -9 230
-12z m-2331 -1714 c0 -5 -4 -10 -9 -10 -6 0 -13 5 -16 10 -3 6 1 10 9 10 9 0
16 -4 16 -10z m227 -280 l0 -85 -7 70 c-4 39 -7 108 -7 155 l0 85 7 -70 c4
-38 7 -108 7 -155z m-96 6 c2 -68 -34 -127 -45 -73 -15 75 -14 97 6 123 l22
27 8 -23 c4 -12 9 -36 9 -54z m236 -53 c-2 -21 -4 -6 -4 32 0 39 2 55 4 38 2
-18 2 -50 0 -70z m-140 -125 c-3 -8 -6 -5 -6 6 -1 11 2 17 5 13 3 -3 4 -12 1
-19z m-51 -46 c11 -109 26 -158 43 -147 4 2 8 -1 9 -8 0 -7 5 -36 10 -65 8
-45 7 -55 -6 -60 -9 -3 -18 0 -20 6 -2 7 -10 12 -17 12 -11 0 -28 29 -28 50 0
3 -6 19 -14 37 -13 33 -18 184 -6 197 7 6 27 -9 29 -22z m-250 -137 c10 -8 15
-14 9 -14 -5 0 -19 6 -29 14 -11 8 -15 15 -10 15 6 0 19 -7 30 -15z m409 -330
c6 -1 16 4 24 9 11 9 13 7 9 -4 -2 -8 -21 -18 -41 -21 -20 -3 -43 -12 -52 -19
-18 -15 -30 -7 -21 15 3 9 11 13 17 9 8 -4 9 -3 5 4 -13 21 4 33 27 20 12 -7
27 -13 32 -13z m4502 -1267 c-3 -8 -6 -5 -6 6 -1 11 2 17 5 13 3 -3 4 -12 1
-19z m-76 -530 c32 -30 44 -46 29 -38 -45 23 -90 61 -90 76 0 7 2 14 4 14 2 0
28 -23 57 -52z"/>
<path d="M12586 18205 c-3 -8 -14 -15 -25 -15 -38 0 -14 -46 29 -55 20 -4 27
-11 23 -21 -3 -8 0 -14 7 -14 9 0 10 13 5 46 -11 73 -25 95 -39 59z"/>
<path d="M12600 17196 c0 -2 7 -7 16 -10 8 -3 12 -2 9 4 -6 10 -25 14 -25 6z"/>
<path d="M12680 16922 c0 -5 12 -14 26 -21 22 -10 25 -9 22 6 -3 18 -48 32
-48 15z"/>
<path d="M7823 20310 c-110 -72 -213 -201 -253 -318 -8 -23 -8 -24 3 -8 55 86
140 187 223 269 54 53 97 97 94 97 -3 0 -33 -18 -67 -40z"/>
<path d="M7487 19836 c-3 -8 -51 -44 -106 -80 -93 -62 -141 -108 -141 -136 0
-7 -9 -24 -20 -40 -11 -15 -17 -30 -13 -33 10 -11 -42 -71 -88 -102 -100 -68
-339 -306 -339 -338 0 -6 15 3 33 20 84 82 218 175 193 135 -2 -4 -1 -14 5
-22 6 -11 9 -12 9 -2 0 7 4 11 9 7 5 -3 13 4 16 16 5 14 13 19 26 16 12 -3 27
4 41 19 13 13 26 24 30 24 17 0 130 75 139 91 5 11 16 19 23 19 7 0 19 21 27
48 10 30 21 46 30 45 9 -2 25 28 48 95 18 53 46 126 62 161 16 35 27 66 25 68
-2 2 -6 -3 -9 -11z"/>
<path d="M9480 19540 c-13 -8 -12 -10 3 -10 9 0 17 5 17 10 0 12 -1 12 -20 0z"/>
<path d="M7581 19424 c0 -11 3 -14 6 -6 3 7 2 16 -1 19 -3 4 -6 -2 -5 -13z"/>
<path d="M7571 19384 c0 -11 3 -14 6 -6 3 7 2 16 -1 19 -3 4 -6 -2 -5 -13z"/>
<path d="M7561 19344 c0 -11 3 -14 6 -6 3 7 2 16 -1 19 -3 4 -6 -2 -5 -13z"/>
<path d="M11160 19025 c-11 -13 -10 -14 4 -9 9 3 16 10 16 15 0 13 -6 11 -20
-6z"/>
<path d="M11313 18705 c0 -8 4 -12 9 -9 5 3 6 10 3 15 -9 13 -12 11 -12 -6z"/>
<path d="M11629 17573 c-13 -16 -12 -17 4 -4 16 13 21 21 13 21 -2 0 -10 -8
-17 -17z"/>
<path d="M11791 16717 c-1 -23 -4 -26 -19 -18 -16 8 -17 6 -14 -25 3 -28 8
-34 28 -34 26 0 29 16 14 75 l-8 30 -1 -28z"/>
<path d="M6492 16047 c-27 -97 -52 -546 -63 -1152 -5 -295 -13 -526 -21 -580
l-13 -90 -75 -36 c-96 -47 -102 -66 -10 -28 40 16 76 29 81 29 5 0 9 -107 10
-242 0 -134 4 -292 10 -353 5 -60 14 -234 19 -385 12 -362 39 -547 135 -917
89 -341 182 -623 205 -623 5 0 6 -8 3 -19 -3 -11 4 -27 14 -37 11 -11 25 -34
33 -52 11 -28 10 -35 -3 -50 -9 -10 -13 -27 -10 -43 7 -37 -35 -81 -144 -154
-81 -53 -242 -169 -353 -252 -44 -34 -46 -34 -134 -31 l-88 3 -32 -36 c-27
-32 -35 -35 -58 -29 -35 10 -119 70 -179 128 -41 39 -50 43 -78 37 -36 -8 -54
-34 -50 -73 4 -29 -6 -52 -22 -52 -6 0 -8 4 -5 9 3 5 0 14 -7 20 -8 6 -20 29
-27 50 -14 44 -49 64 -95 55 -20 -4 -25 0 -25 17 0 12 -2 20 -5 17 -2 -2 -1
-35 3 -71 6 -48 5 -64 -2 -57 -6 6 -13 57 -16 115 -3 57 -8 106 -12 110 -12
13 -28 -6 -24 -28 3 -12 7 -48 11 -80 4 -46 3 -57 -7 -51 -10 6 -10 4 -2 -7 6
-8 12 -36 13 -63 1 -27 14 -81 31 -122 27 -69 60 -178 60 -202 0 -6 -21 -9
-52 -7 -51 3 -52 4 -64 42 -13 46 -20 33 -29 -56 -9 -88 -46 -230 -88 -333
-20 -49 -34 -88 -33 -88 1 0 21 28 44 63 23 34 51 73 62 85 28 30 70 121 70
152 l0 25 21 -25 c11 -14 19 -19 17 -10 -5 34 13 60 42 60 34 0 45 -15 41 -52
-4 -45 9 -69 45 -84 39 -16 43 -29 14 -44 -26 -14 -51 -6 -91 28 -29 24 -31
24 -25 5 5 -16 -5 -31 -54 -73 -33 -29 -58 -55 -55 -58 3 -3 20 8 38 25 57 55
69 56 96 12 19 -30 28 -36 41 -29 21 11 68 58 99 100 14 18 86 73 160 121 75
49 158 105 185 126 77 60 76 59 85 45 4 -7 15 -10 24 -6 20 7 21 16 5 33 -11
10 -7 18 18 40 17 15 41 49 54 75 13 28 36 56 54 66 17 10 38 25 46 33 40 37
304 247 312 247 5 0 12 -9 16 -20 7 -19 10 -18 46 19 25 26 37 45 33 56 -5 11
13 29 71 66 75 50 173 99 196 99 6 0 49 26 96 58 l85 57 88 -3 c63 -1 94 2
109 12 19 13 18 14 -14 21 -18 4 -66 25 -107 46 -52 28 -82 38 -100 35 -23 -5
-30 1 -70 67 -115 187 -146 237 -192 298 -92 125 -123 209 -169 454 -22 120
-38 220 -36 223 3 2 15 -3 28 -12 12 -9 33 -16 45 -16 13 0 23 -3 23 -7 0 -5
15 -16 33 -27 47 -27 153 -31 335 -12 268 28 323 33 328 24 3 -4 10 -50 15
-100 5 -51 14 -108 19 -128 5 -19 10 -45 10 -58 0 -13 24 -74 54 -135 74 -154
199 -305 296 -356 125 -67 301 -55 665 45 159 44 167 48 232 117 37 38 56 69
67 107 22 74 21 99 -3 93 -15 -4 -20 -16 -23 -64 -5 -72 -21 -91 -133 -160
-91 -56 -91 -56 -315 -104 -91 -19 -183 -39 -205 -45 -120 -29 -234 5 -343
103 -90 81 -161 178 -155 211 3 13 10 23 17 20 7 -3 11 14 12 51 0 60 1 62 29
67 13 2 20 -3 23 -17 2 -11 10 -44 18 -73 13 -48 17 -52 37 -46 12 4 34 16 49
27 23 17 32 19 53 9 24 -11 25 -11 19 31 -6 44 8 97 26 97 5 0 10 -14 10 -30
0 -40 32 -101 62 -119 13 -8 41 -16 63 -16 22 -1 50 -5 63 -9 16 -5 22 -3 22
7 0 7 18 20 40 27 22 7 40 18 40 24 0 7 4 6 11 -1 7 -7 18 -4 35 14 14 14 31
22 39 19 7 -2 19 2 25 10 7 8 20 14 29 14 9 0 31 13 48 29 53 48 93 73 108 68
7 -3 16 1 19 9 4 10 13 13 32 8 16 -4 29 -2 33 5 5 8 15 9 32 3 33 -13 51 7
43 47 -5 23 -3 31 7 31 21 0 70 -49 81 -81 8 -23 16 -29 40 -29 28 0 29 2 23
33 -34 156 -132 379 -203 458 -48 53 -48 52 1 80 26 15 11 29 -33 29 -52 0
-59 16 -16 37 20 9 36 20 36 25 0 4 -31 8 -69 8 -39 0 -73 4 -76 10 -8 13
-292 4 -490 -16 -282 -28 -366 -40 -530 -79 -78 -18 -126 -25 -136 -20 -5 4
-17 -1 -25 -11 -9 -11 -13 -14 -9 -7 16 32 -214 -11 -425 -80 -133 -44 -161
-56 -181 -80 -16 -19 -17 -15 -33 69 -57 312 -89 651 -105 1109 -8 208 -7 283
1 293 9 10 9 18 1 32 -11 17 -11 62 13 763 5 136 4 207 -3 207 -12 0 -4 203 8
208 13 5 11 146 -2 159 -7 7 -10 54 -8 136 2 69 1 123 -3 121 -15 -10 -38 43
-38 88 0 26 -4 49 -9 53 -6 3 -8 14 -6 24 7 39 -11 38 -23 -2z m1338 -3178
c-35 -14 -195 -49 -225 -49 -14 0 -25 -6 -25 -13 0 -14 -35 -24 -199 -58 -103
-21 -131 -19 -53 4 51 16 208 50 229 50 13 0 28 27 15 27 -4 0 -34 -7 -66 -15
-61 -16 -203 -42 -271 -50 -63 -7 -20 11 60 25 154 28 216 39 245 45 14 3 44
7 66 9 23 2 47 7 53 11 7 4 18 4 26 1 8 -3 17 -1 19 3 3 5 27 9 52 9 26 1 49
4 52 7 3 3 15 5 26 4 19 0 19 -1 -4 -10z m27 -240 c-39 -32 -57 -65 -87 -159
l-18 -55 -57 0 c-31 -1 -59 3 -61 7 -3 4 -12 4 -22 1 -15 -6 -16 -5 -2 13 8
10 15 21 17 23 1 1 12 -4 25 -13 29 -21 47 -20 55 2 21 59 64 141 87 162 22
19 63 41 96 49 2 0 -12 -13 -33 -30z m623 -182 c0 -7 -5 -19 -10 -27 -8 -13
-11 -12 -24 5 -20 26 -20 33 2 38 21 4 32 -1 32 -16z m-130 -32 c11 -13 8 -20
-20 -45 -19 -17 -36 -28 -39 -25 -2 3 4 11 14 19 13 9 16 20 11 39 -7 31 13
38 34 12z m-204 -39 c7 -18 57 -36 101 -36 20 0 32 -4 28 -10 -3 -5 -31 -10
-61 -10 -45 0 -59 4 -79 25 -14 13 -25 29 -25 35 0 15 30 12 36 -4z m-2528
-1560 c27 -37 31 -51 28 -90 -5 -59 -11 -65 -25 -25 -6 18 -9 34 -7 37 3 2 -6
24 -19 48 -13 25 -21 52 -18 60 3 7 6 14 7 14 2 0 17 -20 34 -44z"/>
<path d="M7570 15597 c0 -67 64 -318 159 -622 49 -158 111 -369 111 -378 0 -2
-35 -7 -77 -11 -76 -7 -230 -26 -363 -45 -36 -5 -82 -17 -103 -27 -36 -17 -38
-17 -67 4 -18 14 -27 17 -24 8 3 -8 1 -17 -5 -21 -20 -11 -12 -34 14 -41 20
-5 25 -12 25 -38 0 -32 12 -55 69 -124 19 -23 46 -64 60 -92 64 -123 319 -395
455 -483 41 -27 203 -109 186 -94 -299 254 -434 386 -537 522 -100 133 -215
305 -210 318 2 6 37 17 78 24 101 17 477 73 493 73 7 0 33 -56 61 -132 115
-318 276 -610 525 -952 86 -120 168 -216 182 -216 11 0 -21 70 -55 125 -18 28
-81 119 -140 204 -59 85 -125 184 -145 220 -86 155 -350 746 -338 758 3 4 0
13 -8 22 -29 33 -213 610 -231 726 -5 32 5 18 52 -75 32 -63 77 -142 99 -175
23 -33 70 -116 104 -185 34 -69 78 -149 96 -177 19 -29 49 -84 69 -122 86
-171 294 -490 439 -673 45 -57 85 -110 88 -118 6 -17 423 -457 461 -486 13
-11 37 -40 52 -64 16 -25 75 -108 132 -184 57 -77 116 -159 130 -184 20 -33
28 -40 34 -30 11 19 -21 124 -55 179 -31 53 -32 49 -7 -24 11 -32 19 -57 17
-57 -2 0 -59 75 -127 167 -272 368 -324 432 -575 719 -362 416 -363 417 -446
550 -70 112 -190 317 -199 339 -2 6 -29 57 -61 115 -31 58 -63 125 -71 150 -9
25 -49 115 -90 200 -41 85 -98 217 -128 294 -40 104 -59 140 -76 147 -11 4
-24 13 -28 18 -15 26 -25 6 -25 -52z m1036 -1694 c198 -238 200 -240 165 -208
-35 31 -208 235 -249 293 -46 63 -13 30 84 -85z"/>
<path d="M6160 14105 c-14 -8 -20 -14 -15 -14 6 0 21 6 35 14 14 8 21 14 15
14 -5 0 -21 -6 -35 -14z"/>
<path d="M11550 14015 c-223 -48 -306 -68 -320 -76 -13 -7 -13 -8 1 -9 26 0
288 50 374 71 163 42 121 52 -55 14z"/>
<path d="M11015 13905 c-165 -36 -233 -59 -155 -51 80 9 331 63 343 75 18 18
-24 13 -188 -24z"/>
<path d="M12210 13910 c-315 -12 -685 -76 -995 -171 -116 -36 -169 -61 -208
-98 l-29 -26 8 28 7 29 -44 -22 c-68 -34 -111 -70 -105 -87 4 -9 -4 -17 -22
-24 -15 -5 -45 -18 -66 -27 l-40 -18 49 -32 c27 -18 60 -32 74 -32 l26 -1 -25
-21 -25 -21 50 7 c28 4 100 11 160 16 61 5 146 18 190 29 44 10 103 22 132 26
l52 7 -10 -34 c-11 -35 -10 -346 1 -363 4 -5 17 -39 30 -75 36 -101 64 -151
130 -234 39 -49 83 -92 122 -117 61 -39 62 -39 159 -39 108 0 202 11 359 41
127 24 341 85 392 110 88 45 140 112 183 239 35 102 34 103 -22 81 -35 -13
-49 -25 -51 -41 -3 -19 0 -21 19 -15 20 7 21 5 15 -21 -22 -89 -107 -188 -199
-233 -65 -31 -422 -110 -551 -122 -61 -5 -122 -12 -135 -15 -13 -3 -52 5 -87
16 -54 18 -73 31 -124 87 -33 36 -60 70 -60 75 0 4 11 13 24 19 l24 11 -20 39
c-41 80 -61 199 -33 199 8 0 18 0 23 1 4 0 10 -18 14 -41 8 -46 44 -123 67
-144 26 -24 65 -26 92 -5 13 10 20 19 15 19 -5 0 3 9 18 21 25 19 25 22 11 49
-20 38 -20 120 -1 120 8 0 17 -15 20 -34 7 -38 57 -99 64 -78 2 8 8 10 15 3 7
-5 17 -11 22 -13 6 -1 9 -8 9 -15 -2 -15 23 -25 31 -13 4 6 1 10 -4 10 -6 0
-11 4 -11 9 0 15 59 19 71 4 38 -45 15 56 -25 110 -18 24 -18 29 -6 37 21 14
23 13 41 -19 13 -22 26 -29 62 -34 25 -4 59 -2 76 4 29 10 31 13 25 50 -8 46
5 51 36 12 l21 -27 -23 -18 c-38 -31 -89 -48 -140 -50 -46 -1 -60 -9 -38 -23
6 -3 10 -15 10 -26 0 -20 24 -26 35 -8 4 6 13 8 20 5 7 -2 17 0 23 6 8 8 9 5
5 -11 -7 -29 14 -27 43 5 l24 25 29 -20 29 -21 31 37 c17 21 31 41 31 45 0 5
5 8 10 8 6 0 10 -9 10 -20 0 -22 7 -25 30 -10 13 8 12 10 -4 10 -13 0 -17 3
-10 10 10 10 56 2 50 -9 -3 -4 4 -7 15 -7 10 0 19 2 19 3 0 9 -39 40 -44 35
-4 -3 -1 9 5 26 12 35 77 72 162 93 40 10 48 15 44 30 -7 26 10 34 18 9 5 -17
12 -20 38 -15 18 3 55 9 82 13 l50 7 3 55 c6 92 -16 229 -53 339 -19 57 -40
110 -46 117 -9 11 -9 20 0 38 7 12 11 36 9 51 -3 26 -11 32 -68 53 -80 28
-162 33 -440 22z m-549 -556 c-12 -15 -21 -32 -21 -38 -1 -6 -9 -29 -20 -51
-11 -22 -20 -51 -20 -65 0 -30 -9 -44 -32 -53 -23 -8 -24 29 -3 80 8 19 15 46
15 59 0 27 62 94 87 94 11 0 10 -6 -6 -26z"/>
<path d="M8160 13502 c0 -19 170 -141 218 -157 52 -16 1 33 -101 99 -106 67
-117 73 -117 58z"/>
<path d="M4300 13367 c0 -39 -45 -152 -91 -228 -35 -58 -48 -88 -42 -98 19
-31 113 -73 185 -82 40 -6 126 -24 192 -40 65 -17 120 -28 122 -27 1 2 8 34
14 71 6 40 20 81 35 103 65 95 -14 220 -125 199 -19 -3 -39 -7 -45 -7 -27 0
-147 52 -181 79 -55 42 -64 46 -64 30z"/>
<path d="M9285 13305 c3 -16 12 -56 21 -87 19 -63 50 -95 142 -143 29 -15 52
-32 52 -38 0 -6 3 -8 6 -4 4 3 27 -9 52 -28 25 -19 50 -35 56 -35 14 1 -26 36
-135 120 -66 52 -91 79 -116 125 -18 33 -43 74 -57 90 l-25 30 4 -30z"/>
<path d="M12561 13041 c-31 -5 -33 -7 -17 -20 15 -13 20 -12 39 7 12 12 19 21
17 21 -3 -1 -20 -4 -39 -8z"/>
<path d="M12477 13016 c-7 -19 11 -32 24 -19 6 6 5 14 -4 22 -12 9 -16 8 -20
-3z"/>
<path d="M12290 12945 c-11 -13 -10 -14 4 -9 9 3 16 10 16 15 0 13 -6 11 -20
-6z"/>
<path d="M5324 12352 c-22 -18 -44 -70 -44 -105 0 -12 -9 -30 -20 -42 -31 -33
-33 -69 -9 -125 38 -89 112 -134 183 -110 56 18 70 43 78 134 4 44 10 105 14
134 6 52 5 53 -14 43 -52 -28 -132 7 -146 64 -7 29 -14 30 -42 7z"/>
<path d="M2374 12332 c-9 -13 -8 -21 5 -32 8 -8 18 -15 20 -15 9 0 56 -50 53
-57 -1 -4 11 -6 27 -4 21 2 28 0 24 -10 -3 -8 0 -14 6 -14 17 0 13 -37 -4 -44
-8 -3 -15 -15 -15 -26 0 -11 -7 -23 -15 -26 -8 -4 -15 -10 -15 -16 0 -5 5 -6
10 -3 6 3 15 -6 20 -20 14 -37 12 -55 -5 -55 -9 0 -12 -6 -8 -17 4 -11 3 -14
-5 -9 -7 4 -12 2 -12 -3 0 -6 5 -11 11 -11 6 0 9 -6 6 -14 -4 -9 3 -16 19 -20
14 -4 22 -11 19 -16 -3 -5 8 -2 25 6 44 23 53 14 26 -26 -21 -32 -22 -38 -10
-55 8 -10 14 -15 14 -10 0 4 9 0 20 -10 25 -22 25 -26 0 -53 -12 -12 -18 -22
-15 -22 3 0 -3 -10 -15 -22 -15 -16 -17 -24 -8 -30 7 -4 20 -5 30 -2 36 11 67
-128 33 -156 -9 -7 -12 -16 -7 -19 13 -9 23 -71 12 -71 -6 0 -1 -22 9 -50 11
-27 15 -47 10 -44 -5 3 -9 -2 -9 -10 0 -9 -4 -16 -10 -16 -5 0 -10 -7 -10 -15
0 -8 -5 -15 -12 -15 -9 0 -8 -3 1 -12 11 -11 14 -10 18 0 4 10 9 9 24 -4 10
-9 19 -22 19 -28 0 -5 11 -21 24 -35 13 -15 28 -40 33 -57 10 -28 9 -30 -11
-30 -15 1 -20 -4 -18 -19 2 -15 1 -17 -6 -6 -6 7 -14 12 -20 10 -7 -3 -4 -14
7 -28 17 -23 20 -23 35 -8 17 17 56 11 63 -10 5 -14 -44 -22 -56 -10 -8 8 -11
7 -11 -1 0 -7 -6 -11 -12 -9 -8 1 -12 -8 -11 -25 1 -16 -2 -28 -8 -28 -5 0 -9
7 -9 15 0 8 -4 15 -9 15 -5 0 -11 9 -14 19 -4 16 -10 18 -33 12 -24 -6 -50
-34 -27 -30 19 3 25 -2 14 -15 -9 -10 -8 -16 4 -26 20 -17 20 -51 0 -44 -8 4
-15 1 -15 -5 0 -6 -9 -11 -19 -11 -27 0 -33 -13 -21 -44 6 -17 6 -27 -2 -32
-6 -4 1 -12 18 -20 25 -11 26 -12 8 -13 -12 -1 -25 -8 -28 -16 -8 -21 15 -55
36 -55 25 0 22 -19 -4 -29 -19 -7 -16 -9 19 -14 38 -6 41 -10 45 -42 2 -19 -1
-37 -7 -40 -5 -3 0 -2 13 1 28 7 28 1 -3 -33 -54 -60 -66 -69 -122 -90 -64
-25 -485 -248 -660 -350 -62 -36 -110 -70 -107 -74 3 -5 -2 -6 -10 -3 -9 3
-16 1 -16 -6 0 -6 -4 -8 -10 -5 -12 7 -70 -22 -70 -36 0 -6 -5 -7 -11 -3 -6 3
-3 -6 7 -20 13 -22 22 -26 42 -21 66 16 79 16 95 0 10 -9 17 -28 17 -43 0 -20
20 -46 76 -103 99 -99 98 -108 -23 -171 -169 -88 -253 -117 -416 -142 -84 -14
-172 -29 -197 -35 -62 -14 -134 -15 -204 -4 -47 8 -64 16 -83 39 -12 16 -23
24 -23 17 0 -6 -8 -9 -18 -7 -9 3 -28 -5 -40 -17 l-24 -21 -32 31 c-44 43 -88
48 -175 22 -55 -17 -76 -29 -100 -58 -18 -22 -31 -49 -31 -66 0 -18 -13 -42
-38 -70 -52 -56 -122 -147 -122 -156 0 -5 21 -21 46 -37 46 -29 103 -94 137
-154 17 -31 19 -32 36 -16 17 16 19 14 34 -26 9 -24 31 -61 49 -82 33 -40 112
-96 135 -96 16 0 143 -81 162 -103 24 -30 124 -84 203 -110 42 -14 123 -31
180 -37 85 -10 117 -19 186 -52 46 -22 132 -52 192 -66 61 -15 110 -30 110
-33 0 -3 -50 -89 -111 -190 -145 -239 -264 -476 -248 -495 6 -8 15 -11 20 -8
5 3 9 0 9 -7 0 -7 3 -10 6 -7 9 10 76 -70 69 -82 -4 -6 -3 -10 2 -9 18 3 30
-2 31 -13 0 -7 9 -37 19 -66 l19 -53 107 223 c59 123 167 330 238 461 118 213
134 237 157 239 15 1 117 2 227 3 176 1 208 4 270 23 39 12 117 34 175 47 101
25 114 31 325 161 458 282 615 439 807 809 174 334 247 518 294 740 33 157 38
317 12 435 -9 41 -20 125 -23 185 -13 208 -66 406 -160 591 -121 238 -297 425
-579 614 -75 51 -81 53 -110 41 -85 -35 -124 -42 -196 -39 -130 7 -239 75
-299 187 l-29 54 -109 39 c-107 38 -274 78 -323 78 -14 0 -30 -8 -36 -18z
m1229 -1409 c-44 -107 -298 -485 -403 -601 -19 -22 -23 -22 -43 -9 -24 16 -55
102 -56 157 -2 67 -20 109 -60 138 l-38 28 196 99 c107 55 243 128 301 162 58
34 108 62 112 62 4 1 0 -16 -9 -36z m-889 -231 c8 -13 -20 -41 -41 -40 -21 2
-27 28 -9 40 14 10 44 10 50 0z m-1024 -652 c0 -5 -4 -10 -10 -10 -5 0 -10 5
-10 10 0 6 5 10 10 10 6 0 10 -4 10 -10z m-560 -602 c0 -8 -16 -12 -33 -9 -4
1 -26 -3 -48 -8 -23 -5 -48 -7 -55 -4 -27 10 -13 22 29 25 69 5 107 3 107 -4z"/>
<path d="M5084 12233 c17 -64 17 -80 -7 -105 l-24 -26 18 -58 c10 -33 19 -69
19 -81 0 -18 6 -23 25 -23 18 0 28 -7 35 -26 9 -22 13 -24 25 -14 8 7 22 10
30 6 20 -7 19 14 -1 62 -9 20 -24 65 -35 98 -10 34 -26 67 -33 74 -8 6 -22 34
-31 61 -9 27 -19 49 -21 49 -3 0 -3 -8 0 -17z"/>
<path d="M5196 11730 c7 -93 15 -142 22 -136 10 11 1 115 -13 159 l-14 42 5
-65z"/>
<path d="M5290 11733 c0 -15 8 -41 18 -58 18 -29 32 -70 38 -110 3 -26 33 -94
34 -77 0 6 7 12 15 12 32 0 15 83 -34 172 -50 89 -71 107 -71 61z m90 -194 c0
-6 -4 -7 -10 -4 -5 3 -10 11 -10 16 0 6 5 7 10 4 6 -3 10 -11 10 -16z"/>
<path d="M5395 11425 c8 -22 14 -48 15 -57 0 -9 5 -20 10 -23 20 -12 6 64 -16
92 l-23 28 14 -40z"/>
<path d="M7336 11242 c11 -11 152 -72 162 -71 8 0 -157 79 -166 79 -3 0 -2 -4
4 -8z"/>
<path d="M2601 11161 c-17 -11 -3 -35 21 -37 15 -1 16 2 6 20 -6 11 -11 22
-12 23 -1 1 -8 -2 -15 -6z"/>
<path d="M15405 11070 c-3 -5 1 -10 10 -10 9 0 13 5 10 10 -3 6 -8 10 -10 10
-2 0 -7 -4 -10 -10z"/>
<path d="M2520 10980 c0 -5 5 -10 11 -10 5 0 7 5 4 10 -3 6 -8 10 -11 10 -2 0
-4 -4 -4 -10z"/>
<path d="M10502 10942 c-18 -16 -48 -33 -65 -36 -48 -9 -128 -7 -166 6 -32 10
-37 9 -58 -16 -27 -32 -29 -51 -6 -60 10 -4 25 2 40 16 24 22 25 22 54 5 51
-29 109 -23 160 18 24 19 50 35 57 35 7 0 20 7 28 15 17 17 44 20 44 5 0 -13
110 -13 130 0 27 17 -3 28 -95 35 -90 7 -90 7 -123 -23z"/>
<path d="M6785 10810 c10 -11 20 -20 23 -20 3 0 -3 9 -13 20 -10 11 -20 20
-23 20 -3 0 3 -9 13 -20z"/>
<path d="M6885 10800 c10 -11 23 -20 28 -20 6 0 2 9 -8 20 -10 11 -23 20 -28
20 -6 0 -2 -9 8 -20z"/>
<path d="M6940 10748 c8 -8 21 -20 29 -28 12 -12 11 -10 0 9 -9 14 -22 27 -30
29 -11 3 -11 1 1 -10z"/>
<path d="M7992 10713 c-9 -9 -25 -12 -45 -8 -20 3 -45 -2 -67 -13 -31 -15 -35
-22 -38 -62 -4 -49 -24 -80 -54 -80 -24 0 -23 -1 13 -55 57 -84 51 -123 -52
-343 -21 -46 -39 -89 -39 -96 0 -7 -11 -34 -25 -60 -14 -26 -25 -54 -25 -61 0
-24 -62 -158 -84 -183 -11 -13 -30 -28 -42 -35 -12 -7 -47 -29 -77 -50 -42
-29 -61 -36 -81 -31 -32 8 -39 47 -40 241 l-1 142 31 33 c34 37 60 76 74 113
9 22 3 32 -54 93 -34 37 -81 94 -103 127 -23 33 -88 105 -144 160 -109 106
-109 96 1 -19 53 -56 57 -63 24 -38 -23 17 -44 29 -47 26 -3 -3 -15 0 -27 6
-19 10 -19 8 6 -32 36 -57 86 -167 82 -180 -2 -6 -26 20 -53 58 -58 83 -185
244 -191 244 -8 0 6 -20 76 -110 107 -136 206 -291 218 -339 11 -46 10 -579
-2 -681 -3 -31 -1 -69 5 -88 10 -30 8 -35 -15 -53 -13 -11 -28 -28 -31 -39 -5
-17 -13 -19 -69 -13 -35 3 -93 0 -130 -6 -62 -11 -69 -10 -81 6 -26 35 -62
244 -71 407 -4 75 -12 129 -20 143 -8 12 -14 33 -14 45 0 13 -9 29 -21 36 -12
8 -18 9 -15 4 3 -5 -6 -18 -20 -27 -22 -14 -28 -15 -36 -4 -10 15 -6 -23 7
-74 6 -22 3 -31 -19 -48 -21 -16 -23 -23 -15 -37 15 -23 -45 -222 -66 -222
-26 0 -61 -60 -92 -160 -3 -12 -10 -9 -28 12 -18 21 -25 24 -29 13 -3 -10 -20
-15 -46 -15 l-40 0 2 118 3 118 -45 60 c-72 96 -92 110 -156 112 -60 2 -60 1
-39 -50 6 -15 2 -18 -28 -18 -45 0 -71 -31 -86 -101 -13 -58 -14 -255 -2 -316
7 -35 4 -51 -20 -100 -30 -63 -29 -73 5 -73 31 0 44 -34 49 -136 2 -57 10 -94
25 -125 12 -23 20 -44 19 -46 -2 -1 -23 -4 -48 -5 -34 -2 -49 -9 -68 -31 -13
-15 -20 -34 -17 -43 3 -8 2 -12 -4 -9 -6 3 -10 1 -10 -4 0 -6 -18 -11 -39 -11
-42 0 -191 -58 -222 -86 -11 -9 -19 -30 -19 -45 0 -39 -10 -59 -29 -59 -34 0
-97 -95 -86 -129 3 -11 28 -28 55 -40 40 -17 69 -21 159 -21 l111 0 -16 -41
c-13 -31 -14 -46 -6 -64 7 -14 7 -27 2 -30 -5 -3 -6 -13 -3 -22 4 -10 2 -14
-4 -10 -17 10 -26 -26 -10 -38 8 -5 12 -19 10 -30 -3 -11 -5 -29 -6 -40 -1
-11 -9 -26 -17 -33 -8 -8 -9 -11 -2 -7 6 3 12 5 12 3 0 -12 -67 -172 -115
-273 -31 -66 -62 -134 -70 -151 -24 -51 -79 -167 -90 -186 -5 -10 -15 -20 -22
-22 -9 -4 -10 -1 -3 12 25 44 99 246 93 255 -3 6 -1 7 4 4 6 -4 13 -1 16 7 3
8 -2 16 -15 19 -11 3 -18 3 -15 1 3 -3 -1 -20 -8 -39 -8 -18 -12 -35 -9 -38
14 -14 -27 1 -44 16 -25 23 -36 21 -29 -3 3 -11 1 -18 -3 -15 -5 3 -11 1 -15
-5 -4 -6 -11 -8 -16 -4 -16 9 -88 11 -83 2 3 -4 0 -8 -6 -8 -5 0 -24 -22 -41
-50 -17 -27 -35 -50 -39 -50 -17 0 -19 17 -4 59 8 24 12 51 9 61 -3 9 -1 29 5
44 5 15 12 37 14 49 3 12 21 74 40 137 20 63 36 128 36 143 0 37 -28 90 -42
81 -6 -4 -9 -3 -5 2 3 5 -6 23 -20 39 -14 17 -22 24 -19 18 9 -16 5 -16 -28
-3 -17 6 -26 6 -26 -1 0 -6 -8 -6 -21 2 -12 6 -31 9 -43 7 -32 -6 -43 11 -43
72 0 96 -15 121 -71 113 -20 -3 -44 -9 -53 -14 -13 -7 -15 -1 -11 44 2 29 15
84 28 122 14 39 29 90 35 114 5 25 15 54 23 66 17 26 86 278 85 308 -1 17 -2
18 -6 5 -2 -10 -8 -18 -13 -18 -4 0 -11 -11 -14 -24 -3 -14 -72 -100 -153
-192 -82 -92 -160 -182 -175 -199 -30 -36 -47 -98 -153 -560 -93 -412 -143
-602 -172 -660 -40 -77 -73 -173 -67 -189 8 -21 -15 -86 -31 -86 -8 0 -20 -34
-34 -92 -33 -145 -51 -231 -51 -252 0 -10 -20 -62 -44 -115 -24 -53 -49 -121
-55 -151 -7 -30 -23 -107 -37 -170 -56 -260 -94 -563 -93 -745 1 -92 2 -98 14
-70 13 27 13 23 9 -55 -15 -300 -17 -324 -25 -305 -6 14 -7 10 -3 -15 2 -19 9
-107 14 -195 7 -124 17 -195 44 -315 54 -234 73 -289 111 -327 l33 -33 -5
-123 c-4 -78 -11 -132 -20 -151 -12 -22 -17 -94 -24 -295 -10 -313 -16 -373
-69 -744 -23 -155 -44 -335 -47 -399 l-6 -118 -51 0 c-28 0 -68 -5 -88 -10
-28 -8 -45 -7 -75 4 -21 8 -105 34 -188 56 -204 56 -317 89 -322 93 -5 6 46
744 57 822 13 89 20 413 8 367 -10 -37 -8 -36 -44 -17 -19 10 -42 13 -66 9
l-38 -6 0 46 c0 38 -4 48 -25 62 -14 9 -32 28 -39 42 l-14 26 -7 -42 -7 -41
-30 35 c-23 26 -38 34 -64 34 -28 0 -38 -7 -65 -46 l-32 -47 -14 27 c-8 14
-11 32 -7 39 4 6 4 9 -1 5 -4 -4 -19 2 -33 12 -33 26 -77 26 -100 -1 -9 -11
-25 -30 -35 -42 -11 -12 -26 -35 -34 -52 -9 -16 -33 -48 -54 -69 l-38 -40 -36
37 c-20 20 -42 37 -50 37 -7 0 -16 8 -19 18 -4 13 -16 18 -43 17 -33 0 -38 -3
-37 -22 0 -12 -3 -20 -7 -18 -4 3 -10 -3 -13 -13 -4 -9 -16 -33 -27 -52 l-20
-35 6 55 c5 50 4 53 -10 36 -8 -11 -17 -17 -19 -15 -9 9 14 140 48 275 32 127
33 135 16 144 -10 5 -27 27 -37 48 l-18 39 -11 -79 c-11 -72 -19 -90 -98 -222
-83 -139 -86 -148 -112 -267 -74 -354 -156 -697 -288 -1209 -171 -658 -201
-871 -157 -1093 26 -131 47 -276 67 -462 14 -140 61 -686 66 -780 l3 -50 218
-3 217 -2 0 95 c0 78 -4 104 -21 137 -22 43 -26 100 -14 194 4 28 2 75 -3 105
-7 35 -7 71 -1 104 9 46 39 344 39 390 0 18 1 18 16 -3 10 -15 25 -22 49 -22
42 0 65 29 65 82 0 20 4 48 10 62 8 23 12 25 36 16 56 -22 134 31 134 89 0 44
260 1021 374 1406 65 218 152 478 141 420 -3 -16 -10 -79 -15 -140 -10 -105
-15 -171 -41 -525 -10 -121 -16 -160 -30 -178 -10 -13 -23 -39 -29 -58 -6 -19
-15 -32 -20 -29 -12 7 -58 -37 -69 -68 -6 -16 -11 -70 -11 -120 0 -86 -16
-330 -25 -387 -2 -14 -6 -59 -10 -100 -3 -41 -8 -93 -11 -115 -9 -70 -3 -259
7 -270 7 -6 16 63 24 180 3 39 10 99 15 135 5 36 12 92 15 125 8 67 18 92 49
117 28 23 96 23 135 0 l31 -17 -5 -230 c-2 -126 -11 -439 -20 -695 -8 -256
-15 -518 -15 -582 l0 -118 60 0 60 0 0 63 c1 34 5 145 10 247 5 102 16 363 25
580 9 217 20 408 25 424 6 16 10 86 10 155 0 162 20 643 28 697 l7 42 50 -19
c28 -11 63 -31 79 -45 27 -24 28 -26 13 -57 -23 -47 -6 -54 55 -22 l53 27 95
-37 c52 -20 113 -43 134 -51 45 -17 249 -38 284 -29 23 6 23 5 17 -77 -28
-419 -35 -593 -40 -1063 -3 -297 -8 -606 -12 -688 l-6 -147 579 4 c318 3 602
5 629 5 28 0 514 -2 1081 -5 l1032 -4 4 122 c4 102 9 132 28 173 27 58 31 150
11 233 -10 42 -11 80 -1 191 11 125 10 144 -6 194 -17 56 -17 58 10 199 15 79
33 159 41 178 21 52 74 251 90 333 8 40 25 97 38 127 13 30 27 73 31 95 4 22
16 61 28 87 18 39 27 49 52 52 50 8 64 4 98 -25 l33 -27 -2 -100 c-1 -105 -7
-126 -54 -179 -17 -20 -31 -53 -39 -90 -6 -32 -23 -98 -37 -148 -35 -125 -37
-136 -24 -144 9 -6 10 -98 4 -372 -7 -309 -11 -368 -25 -389 -13 -20 -17 -70
-23 -268 l-6 -242 442 0 442 0 -6 45 c-4 25 -7 298 -7 607 -1 446 2 563 12
570 7 4 83 49 168 100 680 402 1138 685 1225 755 33 26 110 79 170 118 61 38
113 74 117 79 14 20 14 -1 5 -124 -11 -149 3 -550 53 -1480 5 -96 15 -286 22
-423 l12 -247 109 0 108 0 -6 68 c-5 60 -13 171 -32 452 -6 93 -5 95 13 79 13
-11 27 -14 44 -8 14 4 19 7 12 8 -9 1 -9 5 -1 19 8 12 8 35 2 72 -12 71 6 129
53 169 39 35 101 54 141 45 51 -11 92 -36 85 -53 -5 -14 -3 -14 11 1 16 16 16
22 -2 115 -10 54 -18 99 -16 101 1 2 52 -28 111 -66 60 -38 163 -101 229 -141
66 -40 165 -104 219 -142 123 -85 282 -167 486 -249 85 -34 227 -96 314 -137
184 -87 513 -234 569 -254 41 -14 45 -24 21 -57 l-15 -22 785 0 785 0 5 43 c3
23 15 134 26 247 12 113 29 240 38 284 17 77 18 78 56 91 51 18 110 77 134
134 11 25 28 93 37 151 10 58 28 146 41 195 14 50 38 172 54 273 17 101 37
196 45 213 83 160 176 581 211 959 5 57 12 82 30 102 12 15 32 52 43 83 11 30
38 90 59 132 22 43 42 96 45 119 10 64 -17 148 -88 270 -36 61 -65 114 -65
118 0 3 11 6 24 6 37 0 76 39 87 88 6 27 22 55 47 80 24 24 52 72 80 138 98
231 280 513 454 702 158 172 197 221 208 264 13 46 -5 96 -44 121 -14 10 -26
22 -26 28 0 5 195 204 433 442 429 428 550 556 632 672 119 166 205 422 205
609 0 172 -86 395 -226 586 -102 140 -366 381 -619 565 -126 91 -423 286 -527
344 l-57 32 -21 -41 c-52 -103 -130 -153 -257 -165 l-73 -8 43 -32 c23 -17
137 -96 252 -175 379 -259 555 -399 766 -609 126 -127 188 -210 230 -311 44
-105 52 -165 35 -246 -48 -231 -104 -302 -701 -892 -529 -523 -612 -627 -621
-776 -3 -59 -8 -73 -52 -138 -96 -143 -277 -478 -342 -633 -41 -99 -90 -267
-90 -309 0 -11 -24 30 -53 93 l-52 115 18 80 c10 45 25 96 33 114 8 18 14 49
15 70 0 20 12 76 27 124 24 74 33 91 62 111 28 19 35 29 33 53 -2 16 -6 116
-9 223 l-7 194 -44 63 c-24 35 -68 105 -96 155 -52 91 -53 92 -158 159 -107
67 -302 211 -314 230 -3 5 -17 10 -30 10 -40 0 -57 10 -44 27 10 11 7 22 -10
53 -26 46 -22 71 16 112 21 22 24 33 19 61 -4 23 -1 49 10 76 15 39 15 44 -4
89 -24 57 -46 136 -62 217 -6 33 -13 69 -15 81 -3 15 -24 29 -70 49 -76 32
-75 46 8 65 106 25 128 62 47 79 -28 6 -60 11 -70 11 -24 0 -25 7 -4 50 12 23
15 48 11 89 -4 51 -72 265 -127 401 -17 41 -28 111 -45 281 -13 124 -30 241
-38 260 -8 19 -30 55 -51 82 -20 26 -36 49 -36 52 0 3 13 5 30 5 20 0 43 11
69 35 41 37 111 159 111 193 0 25 78 238 110 302 12 25 42 71 67 103 l45 58
-18 27 c-19 28 -20 31 -30 97 -10 70 -8 115 5 127 11 11 12 10 6 -2 -5 -10 -5
-12 2 -5 21 21 33 75 20 95 -9 15 -9 22 1 32 36 36 -11 37 -81 2 -118 -59
-246 -171 -318 -277 -79 -119 -152 -340 -152 -464 l0 -72 -49 70 c-27 38 -52
69 -56 69 -4 0 -30 22 -58 49 -28 27 -60 54 -72 60 -16 9 -22 21 -22 47 0 45
-22 114 -36 114 -6 0 -19 10 -30 21 -66 75 -195 60 -221 -26 -11 -36 -11 -38
28 -74 26 -25 39 -47 39 -64 0 -33 -9 -57 -23 -57 -6 0 -22 -14 -36 -30 -20
-24 -43 -35 -101 -50 -41 -10 -118 -39 -171 -64 -60 -29 -110 -46 -133 -46
-20 0 -50 -6 -65 -14 -45 -24 -196 -39 -306 -32 -68 4 -134 1 -205 -9 -185
-26 -312 -30 -350 -11 -28 14 -74 16 -322 16 -200 0 -318 -4 -386 -15 -53 -7
-155 -21 -227 -30 -188 -23 -828 -115 -833 -120 -2 -2 44 -1 103 2 97 6 109 4
121 -12 13 -18 19 -18 166 -1 195 21 313 25 329 9 9 -9 9 -22 1 -52 -6 -26 -6
-41 0 -41 5 0 7 -3 4 -8 -9 -14 109 -13 208 2 56 9 220 32 366 51 146 19 290
39 320 44 32 5 131 5 245 -1 104 -6 361 -11 570 -11 386 -1 598 12 821 48 52
8 90 11 92 5 2 -5 26 -25 54 -45 94 -68 138 -115 132 -140 -3 -14 6 -50 26
-96 38 -85 65 -159 89 -245 17 -58 17 -61 0 -57 -25 7 -78 -24 -92 -54 -9 -21
-9 -27 1 -31 6 -2 12 -8 12 -13 0 -6 -5 -7 -11 -3 -7 4 -10 1 -7 -7 3 -9 26
-16 62 -20 31 -4 59 -8 61 -11 2 -2 12 -55 21 -117 9 -62 29 -165 44 -230 l28
-116 -21 -23 c-25 -27 -67 -29 -98 -4 -22 19 -23 18 -63 -4 -53 -31 -145 -33
-199 -5 -29 15 -44 17 -65 10 -281 -96 -806 -264 -867 -279 -134 -31 -591 -94
-909 -125 -102 -10 -170 -22 -190 -32 -37 -20 -122 -21 -276 -3 -140 16 -160
15 -263 -4 -52 -9 -178 -18 -312 -22 l-225 -7 21 -33 c35 -58 4 -133 -61 -149
-32 -7 -149 49 -209 101 -24 21 -53 40 -65 41 l-20 3 21 -22 c20 -23 37 -58
27 -58 -9 0 -118 113 -149 155 -16 22 -41 54 -56 70 -15 17 -40 49 -56 72 -28
41 -113 141 -186 218 -38 40 -38 40 9 -30 26 -38 57 -81 68 -95 17 -19 14 -18
-14 6 -20 16 -57 43 -82 59 -64 41 -147 167 -141 212 5 32 -14 75 -54 118 -10
11 -45 52 -77 90 -134 159 -152 175 -208 175 -19 0 -71 18 -119 41 -133 65
-191 87 -293 114 -165 42 -276 48 -597 30 -156 -8 -313 -20 -349 -25 -91 -13
-95 -13 -80 5 6 8 17 13 23 12 7 -1 11 6 11 16 -1 12 2 15 10 8 17 -14 49 15
84 76 l31 52 -25 16 c-52 34 -51 102 1 179 l25 37 -37 -7 c-59 -11 -275 -206
-321 -289 -10 -19 -19 -20 -153 -16 -79 2 -155 8 -169 13 -14 5 -97 13 -186
17 -145 6 -166 10 -210 33 -27 14 -86 37 -132 53 -49 16 -100 41 -125 61 -65
53 -125 79 -184 79 -46 0 -56 -4 -87 -34 -41 -40 -60 -89 -53 -136 4 -24 1
-38 -12 -49 -17 -16 -18 -14 -13 32 3 36 0 53 -12 65 -15 14 -16 28 -8 99 6
56 10 70 11 43 l3 -40 14 33 c8 18 18 73 24 123 6 59 18 109 34 145 14 31 23
60 20 65 -5 8 23 67 37 79 4 3 9 15 13 28 4 12 12 22 17 22 5 0 9 6 9 13 0 33
67 75 173 111 59 20 143 57 187 82 63 37 83 44 94 35 16 -13 66 -5 66 11 0 14
31 37 50 38 11 0 15 -10 14 -39 -1 -21 -4 -43 -8 -49 -8 -13 10 -26 23 -17 5
3 12 1 16 -5 7 -11 58 -14 67 -4 3 3 -5 16 -18 29 -36 36 -31 68 21 121 27 27
45 54 45 68 0 12 13 42 28 67 16 24 41 63 56 87 15 23 38 48 51 54 23 10 24
15 19 64 -5 42 -2 61 16 99 37 77 179 174 325 224 33 11 132 47 220 81 163 62
363 122 535 160 200 45 430 89 552 105 l127 18 -6 58 c-3 33 -4 59 -1 59 3 0
38 -15 79 -34 100 -46 130 -50 267 -36 173 17 241 29 281 49 20 10 62 22 93
25 33 4 66 15 79 27 26 23 36 25 19 4 -18 -21 3 -19 31 4 13 10 51 24 84 31
66 13 87 24 156 82 25 21 54 38 64 38 15 0 10 -9 -24 -44 l-44 -44 27 -4 27
-3 -36 -42 c-57 -66 -235 -178 -317 -198 -14 -4 -59 -40 -99 -81 l-72 -75 27
-27 c35 -38 35 -80 -1 -114 -39 -36 -60 -45 -153 -67 -68 -17 -88 -27 -130
-64 -71 -64 -114 -82 -159 -68 -31 9 -38 8 -56 -9 -14 -13 -35 -20 -63 -20
-39 0 -42 -2 -32 -19 17 -33 12 -76 -14 -104 -29 -31 -61 -47 -151 -78 -49
-16 -63 -25 -47 -27 12 -2 67 13 123 32 103 37 169 46 169 24 -1 -7 -13 -28
-29 -45 -25 -30 -29 -32 -47 -18 -10 8 -32 15 -47 15 -56 0 -83 -25 -133 -124
-41 -81 -46 -96 -35 -110 10 -12 17 -13 27 -5 14 12 71 9 66 -4 -1 -4 11 -19
27 -33 41 -34 48 -80 26 -158 -12 -41 -20 -113 -24 -226 -7 -183 -16 -213 -78
-251 -49 -31 -123 -204 -123 -289 0 -30 52 -76 73 -64 6 4 9 4 5 -1 -9 -9 9
-35 24 -35 5 0 8 6 6 12 -3 7 4 35 14 63 11 27 37 102 58 165 22 63 44 129 49
145 6 17 20 58 32 92 13 37 39 82 65 113 38 45 51 74 113 263 38 116 82 254
96 305 38 131 98 258 133 280 29 17 280 252 270 252 -3 0 -24 -7 -47 -15 -38
-13 -41 -13 -32 3 16 29 83 87 160 138 41 27 117 87 170 134 138 124 184 156
257 180 71 24 79 39 44 83 -20 25 -20 28 -4 59 9 18 27 46 40 61 13 16 31 54
40 85 8 31 22 74 30 95 18 47 18 57 -1 57 -8 0 -15 6 -15 13 0 7 -15 37 -34
67 l-34 54 23 18 c13 10 61 29 107 42 46 14 94 30 108 36 l25 10 -27 -5 c-15
-3 -84 -10 -154 -15 -70 -6 -131 -13 -135 -16 -4 -2 -139 5 -301 16 -287 20
-467 45 -723 101 -49 11 -157 31 -238 44 -199 33 -334 68 -442 115 -49 22
-126 52 -170 69 -107 39 -182 72 -231 104 -38 24 -41 29 -47 81 -3 31 -16 72
-29 94 -20 34 -25 37 -36 25z m-200 -1180 c14 -32 31 -74 38 -93 7 -19 22 -44
32 -56 10 -11 18 -28 18 -38 0 -9 3 -15 8 -13 4 3 8 -7 8 -21 1 -15 5 -38 9
-51 7 -19 5 -22 -11 -19 -24 4 -74 98 -108 200 -47 142 -43 204 6 91z m-384 5
c-8 -12 -21 -24 -29 -26 -8 -3 -3 7 10 22 30 32 39 34 19 4z m305 -94 c13 -34
41 -90 61 -124 20 -34 35 -64 34 -65 -2 -2 -31 -10 -66 -18 l-62 -14 0 145 c0
80 2 143 4 141 2 -2 15 -32 29 -65z m248 -21 c13 -14 38 -41 56 -59 26 -26 29
-33 17 -38 -30 -12 -55 -6 -79 19 -14 13 -25 20 -25 15 0 -18 -39 -5 -49 16
-8 18 -6 28 10 48 26 33 41 33 70 -1z m-1339 -105 c3 -27 2 -48 -3 -48 -5 0
-9 23 -9 52 0 62 5 60 12 -4z m869 10 c11 -21 11 -22 -4 -9 -10 7 -17 17 -17
22 0 15 9 10 21 -13z m49 -84 c15 -45 9 -60 -29 -66 -17 -3 -31 -4 -31 -3 0 0
9 18 20 40 11 22 17 48 14 58 -4 12 -2 17 4 13 6 -3 16 -22 22 -42z m-562
-326 c5 -7 12 -33 14 -58 4 -37 -1 -58 -30 -117 -26 -54 -35 -86 -36 -127 l0
-55 -71 -27 c-108 -41 -164 -74 -205 -121 -23 -26 -68 -59 -116 -84 -158 -81
-287 -189 -319 -266 -8 -18 -25 -44 -38 -57 -32 -32 -117 -188 -117 -214 0
-29 -27 -52 -59 -52 -33 0 -54 22 -70 71 -31 96 66 391 154 468 27 24 43 29
111 34 43 3 100 14 126 22 51 18 108 73 108 105 0 32 -48 80 -82 80 -36 0 -34
6 18 53 l42 37 12 -30 c14 -35 37 -50 73 -50 35 0 148 79 167 115 8 17 19 32
23 34 20 8 83 69 109 106 27 36 153 145 169 145 3 0 11 -6 17 -12z m7293 -231
c-10 -9 -11 -8 -5 6 3 10 9 15 12 12 3 -3 0 -11 -7 -18z m-9100 -404 c13 -17
13 -17 -6 -3 -11 8 -22 16 -24 17 -2 2 0 3 6 3 6 0 17 -8 24 -17z m1009 -573
l-7 -105 -1 101 c-1 55 1 104 5 107 10 10 10 10 3 -103z m-140 -145 c60 -31
65 -50 64 -250 -2 -159 -6 -198 -33 -330 -53 -256 -71 -398 -71 -555 0 -123
-5 -167 -31 -290 -68 -323 -81 -436 -59 -496 13 -33 2 -96 -36 -200 -23 -64
-28 -70 -49 -66 -16 3 -32 -4 -49 -21 -24 -24 -26 -32 -26 -123 0 -91 -3 -104
-41 -197 -31 -76 -43 -121 -49 -186 -4 -47 -18 -124 -31 -171 -17 -67 -22
-109 -20 -200 0 -66 -4 -127 -10 -142 -18 -44 15 -155 96 -323 134 -276 149
-369 149 -880 -1 -371 -11 -481 -53 -577 -30 -69 -71 -210 -71 -245 0 -41 -12
-48 -49 -28 -38 19 -114 19 -151 0 l-30 -16 0 308 c0 170 5 405 11 523 13 272
6 380 -27 419 -32 38 -31 55 2 47 l26 -7 -7 53 c-4 29 -15 62 -25 73 -10 11
-21 45 -24 75 -4 33 -17 69 -31 90 -16 24 -45 115 -86 270 -88 336 -90 438
-15 746 22 89 36 179 41 249 8 130 30 302 46 355 6 21 29 61 50 89 49 65 85
135 110 217 11 35 33 85 49 111 39 66 82 249 124 533 60 405 75 605 49 631
-19 19 -16 35 17 122 21 52 30 93 29 122 -2 24 -6 42 -10 39 -14 -8 -21 16
-14 46 4 17 11 28 16 24 5 -3 9 0 9 6 0 6 4 8 10 5 6 -3 7 1 4 9 -3 9 -2 16 4
16 5 0 13 15 16 34 4 19 13 39 21 46 8 7 12 17 8 23 -3 5 -2 7 3 4 5 -3 20 2
32 12 30 22 75 25 112 6z m-280 -196 c0 -6 -19 -51 -42 -100 -36 -77 -43 -87
-50 -68 -9 22 16 107 35 120 5 3 8 9 8 13 -3 24 1 35 17 39 29 8 32 7 32 -4z
m387 -91 c-3 -8 -6 -5 -6 6 -1 11 2 17 5 13 3 -3 4 -12 1 -19z m-1647 -490 c0
-15 -33 -38 -55 -38 -13 0 -27 -5 -30 -10 -4 -7 6 -9 29 -7 35 4 47 -5 26 -18
-6 -4 -8 -9 -6 -13 2 -4 -16 -8 -40 -8 -54 -2 -56 8 -18 95 l26 60 34 -27 c19
-15 34 -30 34 -34z m3963 -5 c28 -4 35 -9 25 -15 -8 -6 -1 -7 21 -3 23 5 31 4
27 -4 -4 -6 -24 -11 -44 -11 -48 0 -134 -31 -177 -64 -39 -30 -47 -32 -39 -11
4 8 10 15 14 15 4 0 29 12 56 27 27 15 56 29 65 30 8 1 26 6 39 11 17 6 19 10
9 14 -24 9 -142 -32 -192 -68 -31 -22 -58 -34 -80 -34 l-32 1 35 29 c19 17 45
33 58 36 12 3 22 10 22 15 0 5 12 9 28 9 15 1 38 7 52 15 28 16 56 18 113 8z
m180 -60 c8 3 18 2 23 -3 5 -5 25 -11 44 -14 19 -3 36 -10 38 -16 2 -5 7 -8
11 -6 4 3 38 -4 76 -15 39 -11 77 -21 85 -23 37 -9 126 -40 135 -46 6 -4 62
-24 125 -44 147 -47 256 -100 378 -183 162 -111 235 -170 226 -185 -3 -5 0 -7
8 -6 7 2 12 -3 11 -9 -2 -7 3 -12 10 -10 6 1 11 -5 9 -13 -2 -8 0 -12 4 -7 9
9 44 -21 44 -39 0 -7 -7 -19 -15 -27 -13 -13 -2 -20 88 -60 56 -24 119 -50
140 -58 22 -8 64 -37 95 -66 31 -28 61 -49 66 -46 5 3 6 1 2 -5 -4 -7 0 -12
10 -12 10 0 14 -3 11 -6 -4 -4 7 -22 23 -41 17 -18 30 -38 30 -43 0 -6 -26
-10 -58 -10 -38 0 -65 -5 -78 -16 -18 -15 -18 -15 11 -9 69 15 96 17 122 9 23
-6 16 -9 -42 -16 -38 -4 -83 -9 -99 -11 -18 -2 -40 -16 -57 -36 -15 -18 -30
-28 -33 -23 -3 5 12 26 34 46 22 20 40 38 40 41 0 12 -39 4 -50 -10 -7 -8 -18
-15 -25 -15 -19 0 -23 -30 -9 -65 6 -16 10 -41 8 -55 -4 -26 -11 -61 -14 -70
-1 -3 -2 -8 -1 -13 0 -4 -2 -6 -6 -5 -5 1 -21 -4 -38 -11 -16 -7 -51 -17 -77
-22 -30 -7 -48 -16 -48 -25 0 -9 -11 -14 -31 -14 -17 0 -28 4 -24 10 4 6 -18
10 -58 10 -53 0 -87 6 -165 30 -68 22 -258 120 -317 165 -33 25 -63 45 -67 45
-5 0 -8 6 -8 14 0 7 -7 19 -16 26 -13 11 -16 10 -21 -8 -3 -12 -9 -22 -13 -22
-4 0 -10 -12 -13 -28 -7 -33 -39 -72 -60 -72 -8 0 -30 13 -47 29 -56 51 -68
59 -74 54 -3 -4 -6 -1 -6 5 0 7 -7 12 -16 12 -8 0 -13 4 -10 8 2 4 -5 9 -17 9
-12 1 -23 7 -25 13 -2 5 -7 8 -11 5 -4 -2 -26 15 -49 39 -61 64 -203 158 -336
221 -64 31 -116 60 -116 65 0 6 -6 10 -13 10 -16 0 -40 47 -32 61 3 5 -1 6 -9
3 -9 -3 -16 -10 -16 -15 0 -5 -4 -9 -10 -9 -6 0 -9 3 -8 8 3 15 -44 102 -53
97 -9 -6 -30 36 -28 58 0 7 6 -4 14 -23 12 -32 12 -29 7 43 -4 61 -2 81 9 88
11 7 11 9 -3 9 -11 0 -20 11 -24 26 -16 61 99 206 186 234 l45 15 -52 3 c-29
2 -53 7 -53 12 0 5 28 23 62 40 50 24 76 30 126 30 47 0 62 3 57 13 -4 6 0 4
9 -7 8 -10 21 -16 29 -13z m-421 -445 c-6 -6 -7 0 -4 19 5 21 7 23 10 9 2 -10
0 -22 -6 -28z m5318 -18 c0 -5 -21 -9 -47 -9 -47 2 -47 2 -13 9 52 11 60 11
60 0z m-2640 -409 c0 -18 -18 -21 -30 -6 -10 13 -9 15 9 15 11 0 21 -4 21 -9z
m-1693 -213 c-3 -8 -6 -5 -6 6 -1 11 2 17 5 13 3 -3 4 -12 1 -19z m-4016 -129
c-6 -16 -10 -18 -10 -7 -1 22 12 55 16 42 2 -6 -1 -22 -6 -35z m998 -186 c15
-40 15 -39 -22 -48 l-27 -7 0 56 c0 52 1 55 19 45 10 -7 24 -27 30 -46z m2156
-72 c33 -17 49 -28 35 -25 -29 8 -140 62 -140 69 0 6 36 -9 105 -44z m1755
-176 c7 -8 18 -15 26 -15 44 0 7 -24 -110 -69 -73 -29 -149 -63 -169 -77 -30
-20 -44 -23 -77 -18 l-41 7 35 23 c19 13 49 44 66 68 27 40 36 46 86 56 31 7
73 18 93 25 48 18 76 18 91 0z m-899 -461 c-18 -8 -36 -12 -39 -9 -10 10 21
25 48 24 23 -1 22 -2 -9 -15z m1998 -71 c79 -25 89 -26 153 -15 38 7 92 12
121 12 29 0 59 6 66 13 10 10 15 9 24 -3 8 -9 33 -16 67 -18 76 -3 250 -30
335 -52 39 -10 114 -38 166 -63 52 -24 126 -56 164 -69 231 -84 225 -81 248
-122 31 -56 55 -70 202 -121 180 -63 199 -72 220 -108 36 -63 123 -173 198
-250 69 -71 76 -81 66 -100 -10 -18 -8 -25 23 -52 19 -16 49 -57 67 -90 17
-33 62 -101 98 -150 83 -110 323 -348 378 -374 60 -29 122 -35 189 -18 45 12
58 13 62 3 4 -9 19 -11 60 -5 62 8 94 26 121 66 24 35 125 133 138 133 6 0 28
9 48 19 l38 19 -5 -41 c-6 -44 -29 -293 -29 -315 0 -7 -15 1 -33 19 -28 27
-41 32 -96 36 -53 3 -69 0 -102 -19 -22 -13 -48 -37 -58 -53 -30 -53 -43 -233
-54 -730 l-6 -310 -40 -160 c-74 -301 -183 -659 -263 -868 -36 -94 -40 -99
-99 -141 -81 -58 -326 -220 -352 -234 -17 -9 -77 1 -311 53 -159 35 -331 78
-383 94 -84 25 -267 111 -975 456 -407 198 -975 543 -989 600 -3 11 -8 83 -11
159 -4 77 -8 142 -10 145 -1 4 -8 47 -14 98 -6 50 -14 106 -18 123 l-6 32 27
-25 c94 -87 239 -80 324 17 39 44 56 105 49 173 l-5 52 68 15 c90 21 128 20
290 -5 268 -40 427 -59 518 -59 250 0 432 91 515 260 28 57 32 75 34 160 1 52
2 98 3 102 1 17 120 135 206 204 63 51 100 73 112 70 52 -17 367 114 435 180
52 52 34 164 -32 199 -31 15 -172 35 -256 35 -31 0 -66 8 -90 20 -50 25 -100
25 -176 0 -76 -26 -204 -89 -261 -128 -52 -36 -180 -168 -231 -238 -78 -109
-135 -277 -124 -369 l4 -44 -49 -10 c-27 -6 -68 -11 -91 -11 -62 0 -310 26
-492 50 -225 31 -355 20 -555 -45 -25 -8 -86 -17 -136 -19 -50 -2 -101 -9
-114 -16 -17 -9 -29 -9 -47 -1 -13 6 -33 11 -43 11 -14 0 -20 7 -20 22 0 15
-9 5 -26 -31 -29 -57 -76 -94 -134 -106 -19 -4 -38 -13 -42 -19 -12 -18 -8
-88 7 -131 8 -22 15 -41 15 -42 0 -2 -11 -3 -25 -3 -85 0 -811 -392 -1064
-575 -74 -53 -612 -366 -619 -360 -1 1 2 87 9 191 10 177 12 191 34 214 30 32
55 91 55 130 0 45 -30 128 -100 275 -34 72 -71 152 -82 179 -10 27 -31 72 -46
101 -25 47 -30 51 -52 43 -37 -14 -73 -1 -112 40 -47 49 -66 84 -203 377 -65
138 -121 254 -126 259 -12 13 -118 -62 -141 -101 -21 -35 -46 -53 -72 -53 -26
0 -18 14 19 34 20 11 31 22 26 26 -6 3 6 18 25 33 75 60 121 177 111 281 -3
34 -22 107 -42 163 -34 99 -35 104 -19 134 9 18 66 84 127 148 119 124 263
234 332 252 116 32 141 44 190 89 52 49 103 74 400 195 114 46 154 58 217 62
65 5 83 3 121 -16 32 -15 56 -20 79 -16 18 3 96 9 173 14 161 10 318 -1 408
-29 33 -11 64 -17 68 -15 4 3 29 -15 55 -39 40 -37 58 -46 109 -55 74 -13 155
-14 155 -2 0 5 46 12 103 15 253 18 493 68 612 129 39 20 79 36 90 37 11 0 58
-12 104 -27z m-6442 -245 c-3 -8 -6 -5 -6 6 -1 11 2 17 5 13 3 -3 4 -12 1 -19z
m-1757 -490 c0 -6 -6 -5 -15 2 -8 7 -15 14 -15 16 0 2 7 1 15 -2 8 -4 15 -11
15 -16z m-25 -335 c19 -16 43 -35 54 -43 19 -14 20 -17 5 -74 -15 -54 -15 -60
0 -68 9 -5 14 -13 11 -18 -3 -4 4 -6 15 -3 14 4 20 0 20 -11 0 -8 -33 -98 -74
-198 -99 -247 -195 -540 -317 -971 -101 -358 -97 -344 -122 -351 -33 -8 -82
-63 -123 -136 l-35 -65 5 115 c25 520 45 845 71 1155 8 94 17 213 20 265 10
139 9 137 58 95 23 -20 52 -38 64 -41 27 -7 69 17 77 43 5 15 15 17 60 15 64
-4 108 13 162 66 58 56 147 202 99 162 -18 -15 -115 -24 -133 -12 -10 7 -7 19
15 55 15 26 30 47 32 47 2 0 18 -12 36 -27z m5040 -422 c4 -25 24 -115 46
-200 35 -137 47 -200 32 -163 -2 6 -9 10 -14 7 -5 -4 -6 1 -3 9 3 9 2 16 -3
16 -14 0 -36 -28 -63 -82 -15 -29 -35 -52 -52 -59 -25 -10 -30 -9 -49 14 -11
15 -20 30 -20 34 0 9 -50 38 -61 35 -4 -1 -5 7 -3 18 3 13 -1 17 -11 13 -19
-7 -18 0 6 47 32 63 43 61 37 -9 -2 -33 -1 -61 3 -61 3 0 16 11 29 24 l22 23
-21 57 c-21 55 -21 56 -2 83 48 69 87 168 86 215 -2 43 0 46 16 36 11 -7 21
-30 25 -57z m2491 -1474 c-3 -29 -8 -70 -11 -93 -5 -31 -2 -51 13 -80 23 -47
34 -151 20 -202 -8 -28 -6 -60 7 -133 18 -99 16 -129 -8 -129 -15 0 -23 80
-48 457 -9 138 -9 182 1 219 11 37 15 43 22 29 6 -9 7 -40 4 -68z m-2718 -293
c-4 -3 -12 5 -18 18 -12 22 -12 22 6 6 10 -10 15 -20 12 -24z"/>
<path d="M8296 6181 c-4 -6 2 -26 13 -44 17 -27 21 -29 27 -13 4 10 2 21 -3
25 -5 3 -14 14 -20 25 -7 13 -12 15 -17 7z"/>
<path d="M9846 6093 c-6 -14 -5 -15 5 -6 7 7 10 15 7 18 -3 3 -9 -2 -12 -12z"/>
<path d="M10056 5812 c-3 -6 -2 -20 2 -33 l9 -23 6 25 c7 25 -6 48 -17 31z"/>
<path d="M10097 4330 c13 -45 13 -53 0 -74 -14 -21 -14 -28 0 -67 9 -28 13
-63 10 -94 -4 -38 1 -69 23 -130 15 -44 38 -125 50 -180 17 -76 38 -131 86
-227 77 -151 101 -216 110 -301 4 -34 14 -77 22 -96 7 -19 23 -67 33 -105 l19
-71 -6 55 c-4 30 -7 141 -7 246 l0 191 -36 -8 c-20 -4 -39 -5 -43 -1 -13 13
-89 208 -109 282 -16 55 -20 92 -16 138 4 50 1 71 -15 104 -17 36 -19 55 -15
142 3 56 9 113 12 127 6 24 0 31 -58 73 -35 25 -67 46 -70 46 -2 0 2 -23 10
-50z"/>
<path d="M13125 3114 c-111 -26 -219 -63 -257 -88 -47 -30 -48 -32 -48 -81 0
-34 7 -58 20 -75 11 -14 20 -21 20 -17 0 5 7 2 15 -7 16 -15 99 -20 89 -5 -3
5 2 6 10 3 16 -6 209 55 214 68 2 5 9 8 15 8 21 0 69 48 61 61 -4 8 -3 9 4 5
18 -11 15 45 -4 82 -8 18 -19 34 -23 36 -12 8 -94 14 -116 10z"/>
<path d="M14044 2918 c3 -10 1 -18 -4 -18 -5 0 -8 -14 -8 -31 1 -18 4 -25 9
-18 4 7 5 19 3 28 -3 9 2 6 12 -6 9 -13 20 -23 25 -23 14 0 10 28 -4 37 -8 4
-19 17 -26 28 -9 15 -11 16 -7 3z"/>
<path d="M14075 2910 c3 -5 8 -10 11 -10 2 0 4 5 4 10 0 6 -5 10 -11 10 -5 0
-7 -4 -4 -10z"/>
<path d="M6990 10696 c0 -2 8 -10 18 -17 15 -13 16 -12 3 4 -13 16 -21 21 -21
13z"/>
<path d="M6900 10646 c0 -2 8 -10 18 -17 15 -13 16 -12 3 4 -13 16 -21 21 -21
13z"/>
<path d="M11683 10585 c-62 -30 -113 -56 -113 -59 0 -12 214 86 224 103 9 14
19 18 -111 -44z"/>
<path d="M5475 10301 c0 -37 1 -39 18 -23 21 19 19 55 -3 60 -12 2 -16 -6 -15
-37z"/>
<path d="M10910 10224 c-37 -13 -50 -21 -31 -18 37 7 101 31 101 39 0 3 -1 5
-2 4 -2 0 -32 -11 -68 -25z"/>
<path d="M14022 9986 c47 -45 80 -68 109 -76 46 -13 190 -10 186 4 -1 4 -43
19 -92 31 -111 29 -166 48 -224 80 l-46 25 67 -64z"/>
<path d="M1590 9992 c0 -6 -46 -30 -70 -36 -21 -6 -30 -19 -20 -31 20 -24 136
24 126 51 -3 9 -6 18 -6 20 0 2 -7 4 -15 4 -8 0 -15 -4 -15 -8z"/>
<path d="M5362 9865 c0 -16 2 -22 5 -12 2 9 2 23 0 30 -3 6 -5 -1 -5 -18z"/>
<path d="M5342 9630 c0 -14 2 -19 5 -12 2 6 2 18 0 25 -3 6 -5 1 -5 -13z"/>
<path d="M920 9581 c0 -6 4 -13 10 -16 6 -3 7 1 4 9 -7 18 -14 21 -14 7z"/>
<path d="M7100 9480 c0 -5 5 -10 10 -10 6 0 10 5 10 10 0 6 -4 10 -10 10 -5 0
-10 -4 -10 -10z"/>
<path d="M5282 9394 c-19 -75 -21 -87 -13 -78 11 12 33 105 27 111 -3 3 -9
-12 -14 -33z"/>
<path d="M7140 9351 c0 -18 18 -21 30 -6 10 13 9 15 -9 15 -11 0 -21 -4 -21
-9z"/>
<path d="M5157 9165 c-15 -14 -34 -25 -42 -25 -7 0 -18 -14 -24 -31 -14 -40
-14 -39 4 -39 9 0 29 -7 45 -15 l28 -15 7 43 c3 23 9 57 12 75 3 17 4 32 2 32
-2 0 -17 -12 -32 -25z"/>
<path d="M4882 9094 l-22 -36 32 7 c41 9 40 8 32 39 -8 34 -14 32 -42 -10z"/>
<path d="M11120 8885 c-7 -8 -25 -15 -41 -15 -15 0 -31 -5 -35 -12 -4 -7 -3
-8 5 -4 7 5 20 -1 31 -13 10 -12 22 -21 26 -20 5 2 52 0 104 -4 52 -4 167 -3
255 1 l160 7 -233 33 c-129 18 -239 35 -246 38 -7 3 -19 -2 -26 -11z"/>
<path d="M11810 8835 l-35 -13 32 -1 c37 -1 63 7 63 20 0 12 -18 10 -60 -6z"/>
<path d="M4572 8747 c-45 -45 -82 -87 -82 -92 0 -5 21 11 46 35 46 45 129 140
122 140 -2 0 -40 -37 -86 -83z"/>
<path d="M7275 8260 c-27 -10 -43 -18 -35 -18 8 0 38 8 65 18 28 10 43 18 35
18 -8 0 -37 -8 -65 -18z"/>
<path d="M7950 7719 c0 -18 2 -19 15 -9 15 12 12 30 -6 30 -5 0 -9 -10 -9 -21z"/>
<path d="M3738 7671 c-39 -52 -39 -61 -2 -61 16 0 25 7 28 23 9 45 15 87 13
87 -2 0 -19 -22 -39 -49z"/>
<path d="M9738 7683 c7 -3 16 -2 19 1 4 3 -2 6 -13 5 -11 0 -14 -3 -6 -6z"/>
<path d="M9635 7669 c-22 -4 -60 -8 -85 -8 -44 -1 -90 -22 -90 -42 0 -5 7 -9
17 -9 16 0 235 60 242 66 7 6 -41 2 -84 -7z"/>
<path d="M8109 7624 c-20 -22 -21 -25 -4 -16 11 6 29 17 40 26 16 12 17 15 4
16 -8 0 -26 -12 -40 -26z"/>
<path d="M9022 7441 c1 -36 4 -38 17 -12 8 14 7 22 -4 31 -11 9 -14 6 -13 -19z"/>
<path d="M13480 7070 c0 -5 5 -10 11 -10 5 0 7 5 4 10 -3 6 -8 10 -11 10 -2 0
-4 -4 -4 -10z"/>
<path d="M12788 6843 c7 -3 16 -2 19 1 4 3 -2 6 -13 5 -11 0 -14 -3 -6 -6z"/>
<path d="M12685 6830 c-42 -11 -1 -11 50 -1 34 7 35 9 10 9 -16 0 -43 -4 -60
-8z"/>
<path d="M12613 6813 c9 -2 23 -2 30 0 6 3 -1 5 -18 5 -16 0 -22 -2 -12 -5z"/>
<path d="M11690 6554 c-198 -78 -181 -68 -167 -103 13 -35 4 -37 188 50 103
50 128 66 132 85 2 14 0 24 -7 23 -6 -1 -72 -25 -146 -55z"/>
<path d="M11187 6371 c-18 -6 -18 -8 -2 -21 14 -12 18 -12 26 1 18 28 11 34
-24 20z"/>
<path d="M2083 5720 c-108 -22 -157 -55 -418 -285 -223 -196 -356 -295 -481
-361 l-97 -50 -18 -71 c-10 -39 -29 -90 -43 -112 -14 -22 -35 -63 -45 -91
l-19 -51 24 -10 c92 -34 296 36 493 171 119 82 238 178 429 349 90 80 178 156
196 168 l32 23 54 -18 c43 -15 62 -29 88 -63 72 -96 85 -111 116 -130 44 -27
107 -25 133 4 48 53 55 100 24 188 -59 173 -129 249 -287 313 -73 29 -126 37
-181 26z"/>
<path d="M4121 5284 c0 -43 4 -88 9 -99 6 -12 7 16 3 75 -3 52 -7 97 -9 99 -2
2 -4 -31 -3 -75z"/>
<path d="M2931 981 c-1 -84 1 -92 15 -80 11 9 13 20 8 38 -4 14 -11 51 -14 81
-6 49 -7 45 -9 -39z"/>
<path d="M2961 1014 c0 -11 3 -14 6 -6 3 7 2 16 -1 19 -3 4 -6 -2 -5 -13z"/>
<path d="M10168 220 c-12 -11 -76 -63 -141 -117 l-117 -98 126 -3 c141 -3 135
-5 196 72 33 41 38 54 33 80 -7 33 -38 66 -62 66 -13 0 -13 -2 -2 -17 13 -16
12 -17 -4 -4 -13 10 -15 17 -6 27 17 20 4 17 -23 -6z"/>
</g>
</svg>
