<?xml version="1.0" standalone="no"?>
<!DOCTYPE svg PUBLIC "-//W3C//DTD SVG 20010904//EN"
 "http://www.w3.org/TR/2001/REC-SVG-20010904/DTD/svg10.dtd">
<svg version="1.0" xmlns="http://www.w3.org/2000/svg"
 width="1753.000000pt" height="2305.000000pt" viewBox="0 0 1753.000000 2305.000000"
 preserveAspectRatio="xMidYMid meet">

<g transform="translate(0.000000,2305.000000) scale(0.100000,-0.100000)"
fill="#000000" stroke="none">
<path d="M0 11525 l0 -11525 1862 2 1862 3 -1 30 c0 17 -4 37 -7 46 -4 9 -5
72 -3 140 3 118 20 208 39 210 34 4 57 0 85 -14 30 -16 32 -16 26 0 -8 19 8
12 46 -21 23 -20 24 -20 17 -1 -7 18 -6 18 16 -2 13 -12 28 -23 33 -25 6 -2 9
-9 9 -15 -1 -7 2 -11 6 -8 4 3 12 -1 18 -8 9 -12 57 -175 82 -284 l12 -53
2116 0 c1163 0 2113 2 2111 4 -2 2 -170 92 -374 201 -203 108 -375 202 -382
208 -6 7 -55 98 -108 202 -54 105 -102 199 -108 210 -31 61 -127 81 -184 39
-16 -12 -41 -21 -56 -21 -15 0 -36 -8 -46 -17 -9 -9 -22 -16 -28 -16 -23 0
-48 258 -48 505 0 210 3 252 22 337 12 53 28 111 35 130 18 43 14 114 -11 230
-33 157 -41 292 -31 543 5 127 14 248 19 270 19 72 12 196 -30 515 -35 269
-42 355 -49 590 -6 225 -11 291 -28 360 -11 47 -30 137 -42 200 -11 63 -23
126 -26 139 -10 50 -75 298 -90 346 -18 56 -21 67 -23 77 -1 4 -8 29 -16 54
-8 26 -17 72 -21 103 -5 42 -15 66 -40 96 -45 56 -51 85 -25 137 24 51 22 103
-7 150 -11 18 -26 56 -33 83 -6 28 -29 87 -50 133 -21 46 -49 125 -63 176 -37
133 -112 348 -152 436 -20 41 -49 118 -66 170 -27 85 -79 197 -97 210 -4 3
-13 25 -20 50 -7 25 -18 51 -23 58 -15 17 -59 15 -87 -4 -23 -16 -23 -16 -11
6 6 12 9 24 6 27 -3 3 3 18 13 32 10 14 24 52 31 85 18 88 59 224 81 272 13
26 31 46 48 54 53 21 108 104 117 174 6 38 14 53 47 81 50 43 140 96 282 168
61 30 141 80 180 111 45 37 79 56 96 56 19 0 43 16 82 55 94 92 171 102 409
54 53 -10 109 -19 125 -19 17 0 77 -23 134 -51 l104 -51 200 7 c110 3 216 7
235 7 106 3 663 -57 940 -102 102 -16 230 -34 285 -40 55 -6 149 -22 208 -36
l109 -26 -26 -27 c-34 -35 -35 -85 -2 -126 23 -29 25 -30 127 -31 74 -1 139
-9 223 -28 65 -15 129 -25 142 -22 34 9 272 -89 298 -121 13 -18 26 -23 43
-20 14 3 59 -9 106 -29 78 -31 93 -33 291 -46 l210 -13 8 -32 c17 -66 78 -79
207 -41 107 31 237 31 308 1 28 -13 72 -23 96 -23 63 0 161 -33 236 -79 36
-22 66 -39 67 -38 2 1 5 20 8 42 13 101 14 103 70 114 59 12 183 31 208 31 11
0 15 -5 12 -15 -4 -9 3 -19 20 -27 16 -7 25 -17 21 -25 -3 -7 -8 -20 -11 -28
-9 -23 49 -19 70 4 10 11 30 22 45 25 27 6 214 27 266 31 24 1 31 7 33 27 6
46 35 62 134 70 50 4 92 9 94 11 2 2 -2 20 -11 40 -11 27 -12 36 -2 40 6 2 9
8 5 12 -14 15 -81 22 -167 17 l-91 -5 4 37 5 36 -80 0 c-82 0 -136 19 -122 44
3 6 2 8 -2 3 -10 -9 -55 31 -55 49 0 7 -6 17 -12 21 -7 4 -17 15 -23 24 -5 9
-30 45 -54 79 -42 60 -105 222 -92 236 3 4 1 4 -6 1 -6 -4 -9 -16 -6 -27 3
-11 0 -20 -6 -20 -5 0 -8 -7 -4 -16 10 -26 -16 -12 -33 16 -19 34 -38 83 -35
94 1 4 -2 13 -7 20 -10 12 -19 47 -27 111 -3 22 -8 54 -11 72 -6 37 19 68 66
84 35 13 39 22 31 79 l-6 45 -37 -48 c-20 -27 -39 -54 -41 -60 -9 -26 -19 5
-32 99 -23 162 -13 248 57 494 37 128 97 220 143 220 8 0 15 9 15 20 0 11 5
20 11 20 5 0 7 5 3 12 -5 8 0 9 14 6 12 -4 20 -2 16 3 -7 12 69 11 120 -1 21
-4 42 -14 46 -20 4 -6 11 -12 16 -12 17 -1 53 -21 49 -27 -2 -4 7 -8 21 -9 16
-1 24 3 24 15 0 14 2 14 21 -3 21 -19 116 -185 138 -241 7 -17 60 -94 117
-170 113 -149 183 -278 209 -383 9 -37 20 -143 25 -245 12 -270 61 -476 160
-670 l46 -90 79 3 c75 3 83 2 126 -28 54 -35 83 -87 74 -129 -5 -22 0 -35 22
-59 41 -45 78 -94 93 -122 7 -13 28 -38 46 -56 41 -38 42 -57 7 -90 -26 -24
-33 -25 -109 -21 -75 4 -84 3 -113 -20 -38 -30 -39 -53 -3 -75 15 -10 21 -18
15 -18 -7 0 -13 -9 -13 -20 0 -11 -4 -20 -9 -20 -4 0 -6 -11 -3 -25 4 -21 14
-28 61 -40 84 -23 228 -98 298 -156 36 -29 69 -49 77 -46 22 9 49 -17 52 -49
2 -16 8 -45 13 -64 14 -45 14 -129 0 -183 -9 -39 -7 -49 26 -122 39 -84 95
-308 95 -377 0 -65 -31 -105 -96 -124 -30 -8 -54 -19 -54 -23 0 -22 146 -188
181 -207 17 -8 30 -25 34 -43 3 -16 19 -43 36 -60 30 -32 37 -55 19 -66 -15
-9 -2 -43 31 -85 33 -41 97 -192 106 -248 7 -46 54 -140 104 -211 43 -60 47
-76 22 -89 -15 -9 -15 -21 5 -173 11 -90 39 -283 61 -429 22 -146 50 -357 61
-470 11 -113 27 -245 35 -295 20 -120 19 -152 -7 -273 -21 -100 -23 -105 -64
-139 -35 -28 -44 -43 -50 -79 -4 -29 -13 -48 -25 -55 -18 -9 -23 -5 -20 13 0
5 -4 7 -11 5 -7 -1 -12 3 -13 10 0 6 -4 15 -9 20 -5 5 -6 3 -2 -4 9 -17 5 -16
-35 2 l-34 16 30 -5 30 -5 -30 14 c-36 17 -79 21 -55 5 11 -7 6 -10 -20 -10
-19 0 -59 -11 -88 -25 -30 -14 -58 -23 -62 -20 -5 3 -16 -19 -25 -47 -9 -29
-43 -125 -76 -213 -65 -180 -77 -221 -61 -211 11 7 -37 -123 -119 -316 -51
-124 -60 -153 -35 -128 8 8 43 85 77 170 34 85 67 158 73 162 6 4 8 8 3 8 -4
0 0 11 9 25 9 14 21 22 27 18 5 -3 7 -1 4 5 -10 15 1 39 18 39 21 0 20 -80 -1
-101 -8 -9 -14 -16 -11 -16 2 0 -2 -23 -9 -51 -11 -43 -11 -56 1 -86 12 -28
13 -52 5 -126 -5 -51 -14 -93 -20 -95 -5 -2 -10 -9 -10 -16 0 -21 -206 -232
-263 -270 l-54 -35 -17 -90 c-9 -49 -16 -111 -16 -137 0 -79 36 -244 84 -388
49 -148 187 -465 247 -569 21 -38 39 -72 39 -77 0 -4 -22 -13 -48 -20 -62 -14
-130 0 -196 42 -45 30 -54 32 -140 31 -50 0 -109 -5 -131 -12 -135 -38 -268
21 -376 168 -93 125 -269 512 -269 590 0 16 6 21 26 21 25 0 26 1 11 24 -33
50 -117 215 -117 229 0 20 -60 57 -92 57 -14 0 -39 -5 -57 -11 -25 -9 -36 -8
-54 5 -12 9 -65 45 -117 81 -52 35 -100 68 -106 73 -5 5 -30 22 -55 38 -24 15
-65 45 -90 66 -25 21 -67 46 -91 57 -48 20 -252 207 -242 222 17 28 -116 139
-726 607 -140 108 -316 243 -390 301 -207 162 -371 285 -413 310 -51 31 -110
31 -142 1 -13 -12 -21 -28 -19 -35 3 -7 -6 -15 -24 -18 -37 -8 -71 -36 -75
-64 -2 -12 -6 -26 -10 -29 -4 -4 -7 -22 -7 -39 0 -27 11 -42 68 -92 78 -69
251 -209 337 -273 33 -24 94 -71 135 -105 42 -33 104 -82 139 -108 55 -42 61
-50 49 -64 -9 -12 -9 -15 -1 -9 9 5 11 2 7 -8 -3 -9 -9 -14 -13 -12 -4 3 -6
-11 -6 -30 0 -19 3 -34 8 -34 4 0 7 -5 7 -11 0 -14 19 -31 50 -47 14 -6 49
-26 78 -42 38 -21 65 -30 91 -29 20 2 43 -1 51 -6 8 -5 18 -2 27 11 13 18 14
18 46 0 54 -32 340 -231 567 -396 205 -148 327 -236 648 -467 93 -67 159 -107
188 -114 24 -6 49 -17 55 -25 10 -12 17 -61 19 -126 0 -9 15 -33 34 -52 l33
-36 -34 -6 c-18 -3 -36 -10 -39 -15 -3 -5 -9 -7 -14 -4 -11 7 -47 -10 -75 -36
-12 -10 -47 -28 -78 -38 -32 -11 -84 -39 -117 -62 -61 -42 -96 -50 -166 -34
-26 6 -33 3 -47 -18 -12 -19 -28 -27 -69 -32 -204 -26 -524 -82 -635 -110
-271 -70 -382 -138 -418 -260 l-14 -45 3159 0 3160 0 0 7994 0 7993 -77 28
c-43 16 -107 42 -143 58 -72 32 -58 32 -415 18 -114 -4 -169 -10 -168 -17 1
-7 -50 -15 -145 -22 -81 -7 -167 -19 -191 -27 l-44 -16 -32 35 -32 35 -139 -5
c-136 -6 -140 -7 -165 -34 -15 -15 -39 -30 -55 -33 -105 -22 -145 -31 -194
-48 -30 -10 -69 -21 -86 -24 -44 -8 -324 39 -414 70 -41 15 -82 28 -89 29 -8
2 -17 8 -19 14 -2 7 -8 10 -13 6 -5 -3 -16 2 -24 10 -9 8 -22 13 -30 10 -8 -4
-15 -1 -15 7 0 7 -3 9 -7 6 -3 -4 -12 -2 -20 4 -7 6 -13 9 -13 6 0 -3 -21 1
-47 9 -27 8 -53 16 -59 17 -7 2 -19 9 -27 16 -21 17 -34 -7 -43 -80 -4 -30
-10 -58 -14 -64 -4 -5 -11 -50 -14 -100 -16 -222 -38 -381 -58 -423 -11 -23
-23 -40 -27 -37 -4 2 -24 5 -44 7 l-37 2 0 72 c0 40 -4 76 -10 79 -12 7 -5
188 16 404 16 160 13 203 -15 235 -9 10 -75 47 -146 82 -72 35 -140 71 -151
81 -11 10 -26 19 -34 21 -8 2 -32 14 -52 27 -20 14 -43 26 -50 27 -7 2 -15 5
-18 8 -3 3 -30 21 -60 40 -38 25 -49 36 -37 38 10 2 26 0 35 -4 9 -4 24 -6 32
-5 13 2 13 1 0 -8 -12 -8 -10 -12 10 -19 14 -5 42 -17 63 -25 21 -9 44 -14 52
-11 22 9 35 72 29 134 -8 71 -25 86 -219 194 -83 46 -211 120 -285 165 -74 45
-140 79 -147 77 -7 -3 -10 1 -6 10 3 9 -1 14 -12 14 -11 0 -15 -5 -11 -16 3
-8 2 -12 -4 -9 -6 3 -10 -3 -10 -14 0 -11 -5 -23 -10 -26 -28 -18 -2 -122 40
-160 11 -10 20 -24 20 -32 0 -7 5 -13 12 -13 6 0 9 -3 5 -6 -7 -7 -117 57
-117 68 0 5 -5 8 -11 8 -6 0 -61 33 -123 74 -61 41 -163 108 -227 149 -118 76
-336 230 -419 296 -25 20 -106 74 -180 120 -85 52 -142 94 -155 114 -14 23
-30 33 -56 37 -43 7 -155 83 -429 289 -631 475 -1004 792 -1360 1157 -135 138
-210 207 -277 252 l-91 63 3 77 c2 72 -1 86 -52 224 -72 192 -121 287 -163
316 -19 12 -43 39 -55 60 -11 20 -32 42 -45 49 -54 28 -130 -18 -130 -77 0
-16 -7 -55 -15 -87 -8 -31 -16 -82 -16 -113 -1 -30 -4 -67 -8 -82 -6 -28 -6
-28 -269 147 -145 96 -272 175 -282 175 -11 0 -48 26 -83 58 -36 31 -106 83
-158 115 -52 33 -123 80 -159 106 -78 56 -442 294 -520 340 -31 18 -112 77
-180 132 -145 116 -245 189 -258 189 -5 0 -17 9 -27 20 -30 33 -109 79 -171
100 -44 15 -94 48 -198 131 -94 74 -167 124 -224 151 -86 41 -107 59 -242 206
-92 101 -367 272 -437 272 -38 0 -116 31 -149 59 -68 57 -123 81 -204 86 -30
2 -70 7 -88 11 -41 8 -153 -33 -208 -77 -24 -19 -48 -29 -69 -29 -44 0 -186
-72 -232 -118 -21 -21 -58 -53 -83 -72 -25 -19 -87 -72 -138 -117 -51 -46 -97
-81 -103 -77 -5 3 -47 -34 -94 -83 -46 -48 -159 -167 -252 -263 -182 -190
-311 -335 -547 -614 -83 -99 -161 -191 -174 -205 l-23 -26 7 94 6 94 -74 -85
c-41 -47 -91 -105 -111 -130 l-38 -46 3 -88 3 -89 77 4 c63 2 79 0 84 -12 3
-9 -15 -107 -40 -219 -116 -525 -238 -1284 -295 -1838 -15 -151 -25 -203 -52
-284 -37 -108 -60 -135 -85 -102 -33 45 -12 289 92 1051 53 389 129 891 174
1149 23 126 39 230 37 233 -2 2 -26 -22 -52 -53 -62 -72 -79 -78 -128 -46
l-38 25 -40 -39 c-22 -21 -42 -37 -44 -34 -9 11 -361 -383 -543 -609 -182
-225 -315 -407 -503 -688 -94 -142 -177 -264 -185 -272 -11 -12 -10 -19 2 -43
8 -16 17 -59 19 -96 3 -37 7 -101 11 -142 4 -41 5 -307 3 -590 -2 -283 -4
-941 -4 -1462 0 -522 -3 -948 -8 -948 -4 0 -5 4 -2 10 8 13 -66 -18 -86 -36
-15 -13 -17 -7 -23 68 -13 177 -18 1378 -7 1733 23 721 30 1143 23 1269 l-7
130 -51 -80 c-28 -43 -72 -113 -98 -155 -39 -64 -147 -215 -211 -294 -15 -19
-16 -18 -10 20 l6 40 -51 -70 c-29 -38 -53 -72 -55 -74 -2 -2 -1 14 2 34 5 29
3 36 -6 30 -16 -9 -17 -11 97 190 169 300 397 683 479 805 405 605 650 939
973 1330 48 58 112 146 143 195 70 114 202 268 425 496 309 317 591 565 942
827 111 83 234 185 285 237 63 64 115 105 175 139 129 74 218 144 225 177 11
48 89 97 200 125 14 3 36 19 50 36 43 51 69 59 170 52 54 -4 96 -12 106 -20 9
-8 53 -22 98 -31 78 -15 85 -15 115 1 39 21 100 14 167 -20 26 -13 134 -50
240 -84 192 -60 497 -125 704 -150 151 -18 258 -39 335 -65 56 -19 94 -25 160
-25 77 0 282 24 300 35 4 3 44 -13 88 -35 l82 -39 -2 -46 c-2 -34 3 -50 17
-64 11 -10 91 -42 179 -71 87 -29 211 -74 275 -100 64 -26 240 -98 391 -160
353 -144 493 -214 570 -285 48 -44 73 -58 139 -79 87 -28 185 -74 324 -155 49
-28 101 -51 116 -51 146 0 517 -180 1138 -551 544 -326 682 -403 973 -546 316
-156 396 -192 685 -315 189 -80 230 -93 405 -132 143 -32 260 -67 440 -131
489 -174 736 -277 1095 -457 261 -130 375 -193 375 -207 0 -4 -5 -12 -11 -18
-12 -12 178 -107 501 -249 309 -137 392 -178 506 -249 157 -98 453 -264 629
-353 88 -44 202 -103 254 -131 52 -28 96 -51 98 -51 1 0 3 1238 3 2750 l0
2750 -2290 0 -2289 0 -7 -37 c-3 -21 -14 -69 -23 -108 -12 -50 -15 -85 -9
-125 4 -30 8 -116 9 -190 3 -269 4 -308 11 -296 14 25 60 212 61 246 0 19 -2
69 -4 111 -4 68 -1 79 21 112 36 52 103 85 158 77 54 -8 88 -34 130 -96 96
-145 118 -308 63 -460 -50 -138 -91 -235 -158 -382 l-66 -143 -22 21 -23 22
-7 -30 c-16 -73 -115 -172 -239 -238 -40 -21 -59 -25 -95 -21 -47 5 -98 -7
-181 -46 -50 -23 -76 -24 -203 -7 -87 12 -88 12 -110 -12 -32 -34 -149 -70
-202 -62 -33 5 -43 2 -48 -10 -4 -9 -17 -16 -30 -16 -13 0 -33 -10 -45 -22
-17 -19 -20 -31 -15 -65 4 -28 9 -40 17 -36 6 4 5 -1 -2 -10 -23 -28 -49 -29
-99 -4 -26 13 -65 27 -85 31 -21 4 -51 18 -68 33 -29 24 -36 25 -97 19 -36 -4
-74 -11 -85 -17 -27 -14 -58 -69 -58 -101 0 -24 -4 -27 -47 -33 -47 -7 -112
-18 -304 -52 l-96 -17 -109 39 c-198 69 -527 192 -644 240 -528 215 -1014 403
-1231 475 -81 27 -188 69 -238 94 -80 40 -90 49 -82 65 6 9 16 22 23 28 8 6
114 13 260 16 l247 6 52 -29 c41 -22 57 -26 72 -18 22 12 58 8 185 -20 117
-26 302 -19 302 12 0 21 34 46 63 46 15 0 63 -13 109 -30 45 -16 83 -30 85
-30 1 0 9 15 17 33 12 30 20 35 74 47 55 11 68 10 141 -9 98 -27 407 -64 479
-59 34 3 62 12 80 26 15 12 44 34 65 48 41 27 72 84 62 114 -3 11 -20 30 -36
44 -28 24 -29 28 -20 63 6 21 20 101 31 178 27 188 38 223 39 128 1 -74 16
-108 22 -50 2 17 2 66 -1 107 -7 91 5 138 71 282 27 59 49 110 49 113 0 3
-2511 5 -5580 5 l-5580 0 0 -11525z m11027 11153 c-3 -8 -6 -5 -6 6 -1 11 2
17 5 13 3 -3 4 -12 1 -19z m-4287 -1953 c5 3 10 1 10 -5 0 -7 7 -9 16 -6 8 3
13 2 9 -3 -3 -5 0 -11 5 -13 7 -2 -8 -159 -44 -458 -147 -1214 -138 -1121
-131 -1285 6 -132 2 -191 -30 -495 -21 -190 -40 -430 -44 -534 -5 -162 -8
-190 -23 -200 -22 -13 -54 15 -63 56 -4 16 -9 27 -11 25 -3 -2 -9 -44 -15 -93
-16 -141 -57 -162 -78 -39 -23 132 -24 301 -2 555 59 684 149 1309 352 2448 9
50 14 60 25 51 7 -6 18 -8 24 -4z m2230 -1761 c12 -30 70 -465 134 -994 53
-436 62 -528 51 -518 -5 4 -14 3 -22 -3 -7 -6 -13 -8 -13 -4 0 5 -9 0 -20 -10
-16 -14 -23 -16 -32 -7 -7 7 -27 12 -45 12 -26 0 -36 -5 -42 -22 l-9 -23 -6
25 c-28 126 -73 425 -111 745 -33 277 -75 680 -75 721 0 34 25 73 50 78 8 2
22 6 30 9 67 25 98 23 110 -9z m-7556 -1996 c-164 -325 -406 -849 -400 -865 3
-8 2 -12 -3 -9 -5 3 -12 -2 -16 -11 -3 -10 -1 -19 4 -21 6 -2 9 -8 5 -13 -3
-5 -1 -9 5 -9 5 0 8 -9 6 -20 -2 -11 1 -19 7 -17 15 3 36 -60 37 -110 1 -29
-5 -49 -17 -61 -10 -10 -16 -24 -14 -30 2 -7 -2 -12 -9 -12 -7 0 -10 -3 -7 -6
4 -3 1 -20 -4 -37 -7 -21 -14 -335 -19 -902 -5 -478 -12 -917 -16 -975 -8
-111 -18 -134 -77 -189 -23 -22 -26 -23 -32 -6 -12 29 4 1531 16 1611 6 39 10
95 8 124 -3 52 -3 51 -101 -197 -117 -298 -186 -495 -233 -663 -20 -69 -60
-201 -91 -295 -50 -156 -109 -377 -231 -867 -26 -104 -49 -188 -53 -188 -8 0
-40 132 -53 222 -10 66 -10 100 1 168 31 201 82 423 183 805 92 349 125 462
200 675 196 558 236 691 261 871 11 83 19 106 70 199 31 58 115 224 186 369
70 146 129 257 131 248 4 -22 40 -32 66 -18 23 13 122 142 180 239 22 34 41
62 43 62 2 0 -13 -33 -33 -72z m9581 -1539 c122 -13 140 -20 124 -51 -9 -16
-7 -20 10 -25 12 -3 21 -9 21 -14 0 -14 -47 -21 -67 -10 -13 6 -33 6 -59 1
-21 -5 -81 -7 -131 -3 -72 5 -96 10 -109 24 -10 11 -25 19 -34 19 -22 0 -32
24 -17 39 6 6 20 11 32 11 11 0 27 5 35 10 20 13 62 12 195 -1z m-3247 -856
c1 -16 -2 -33 -6 -39 -20 -31 -266 -64 -319 -43 -84 32 90 106 252 108 70 1
71 1 73 -26z m4971 -524 c17 -6 31 -15 31 -21 0 -14 -51 -98 -60 -98 -11 0
-20 38 -20 88 0 46 2 47 49 31z m-1103 -936 c-15 -70 -29 -158 -33 -196 -3
-37 -9 -70 -14 -72 -4 -3 -47 32 -96 79 -63 59 -103 109 -140 172 -29 48 -53
94 -53 101 0 20 28 15 40 -7 17 -31 81 -70 117 -70 30 0 54 15 70 45 5 8 26
20 48 27 25 8 47 25 60 44 29 46 30 20 1 -123z m-392 -137 c14 -24 42 -65 61
-90 l35 -46 -33 0 c-17 0 -59 -7 -92 -15 -33 -8 -63 -14 -67 -15 -11 0 -10 79
2 119 7 27 54 91 66 91 1 0 14 -20 28 -44z m271 -343 c47 -17 50 -21 53 -58 2
-22 12 -49 23 -60 19 -22 52 -141 63 -230 l6 -50 -19 36 c-28 51 -48 66 -64
47 -42 -52 -111 -61 -200 -27 -120 46 -186 131 -187 242 0 26 -7 58 -16 72
l-15 23 63 16 c83 20 225 15 293 -11z m-6510 -403 c28 0 34 -7 85 -105 45 -85
59 -105 77 -105 15 0 35 -17 62 -52 77 -104 162 -173 339 -277 39 -24 72 -48
72 -55 0 -6 16 -22 35 -36 19 -14 35 -29 35 -33 0 -5 -29 -6 -64 -2 -57 6 -66
5 -85 -14 -12 -12 -21 -28 -21 -36 0 -8 -7 -15 -15 -15 -19 0 -31 46 -15 65
19 23 1 37 -39 32 -29 -3 -43 2 -72 24 -41 32 -70 37 -89 14 -11 -14 -15 -14
-33 2 -11 10 -36 43 -55 73 -19 30 -51 73 -70 95 -41 49 -141 252 -176 359
-30 89 -31 95 -14 78 7 -7 26 -12 43 -12z m1485 -484 c-7 -7 -10 1 -9 25 0 32
1 33 10 10 6 -16 6 -28 -1 -35z m140 -268 c0 -29 -3 -36 -15 -32 -8 4 -21 1
-29 -5 -8 -7 -22 -8 -34 -4 -20 8 -20 9 11 70 l31 63 18 -28 c10 -15 18 -44
18 -64z m-54 -123 c-21 -16 -32 -13 -21 4 3 6 14 11 23 11 15 -1 15 -2 -2 -15z
m3030 -36 c33 -20 43 -42 25 -54 -5 -3 -81 -10 -168 -15 -87 -5 -181 -13 -209
-16 -84 -10 -109 39 -34 68 53 21 159 36 254 37 84 1 104 -2 132 -20z m-5102
-260 c16 -116 30 -428 16 -344 -8 45 -32 278 -44 425 -8 91 12 34 28 -81z
m2186 69 c6 -35 14 -101 17 -148 4 -69 11 -95 34 -137 33 -60 34 -63 16 -63
-7 0 -13 -12 -12 -27 0 -19 -5 -28 -16 -28 -9 0 -24 -7 -33 -15 -14 -11 -21
-11 -37 -1 -11 6 -28 10 -37 7 -35 -11 -66 68 -98 249 -20 113 -18 137 9 154
37 24 129 71 137 71 4 0 13 -28 20 -62z m5895 -1256 c-7 -7 -46 217 -44 253 1
11 11 -41 24 -115 13 -74 22 -136 20 -138z m-7906 -542 c-1 -47 -2 -80 -4 -75
-5 11 -46 397 -44 411 4 37 48 -269 48 -336z m1296 -2502 c10 -18 21 -35 24
-38 3 -3 14 -22 25 -42 16 -33 21 -36 51 -31 29 5 33 2 48 -30 21 -44 21 -66
1 -74 -11 -4 -14 -13 -10 -29 5 -19 2 -25 -19 -30 -17 -4 -31 -20 -44 -50 -34
-75 -70 -48 -70 53 1 26 -9 97 -20 156 -23 117 -25 147 -13 147 4 0 16 -15 27
-32z m62 -445 c3 -10 26 -63 50 -117 39 -88 203 -559 203 -584 0 -8 -95 33
-110 48 -3 3 -12 6 -20 7 -8 2 -51 10 -95 19 -52 10 -108 14 -161 10 -55 -3
-85 -1 -95 7 -11 10 -11 9 0 -5 7 -10 9 -18 4 -18 -6 0 -4 -25 3 -62 8 -35 14
-75 14 -89 0 -20 14 -35 73 -75 39 -27 110 -87 157 -134 93 -93 115 -132 170
-304 28 -87 32 -109 28 -178 -4 -68 -10 -90 -47 -161 -37 -72 -41 -86 -32
-110 6 -16 11 -56 11 -90 0 -111 -62 -204 -175 -263 -52 -28 -53 -29 -60 -81
-16 -128 -132 -277 -252 -324 -46 -18 -80 -23 -168 -24 -121 -2 -170 -12 -238
-50 -66 -37 -226 -75 -351 -83 l-109 -7 -29 -85 c-15 -46 -28 -92 -28 -101 0
-22 -25 -31 -66 -23 -21 4 -49 0 -71 -9 -21 -8 -43 -12 -50 -10 -13 5 -17 -13
-38 -157 -8 -58 -28 -175 -45 -260 -16 -85 -32 -186 -37 -225 -7 -61 -11 -70
-28 -70 -11 0 -26 -4 -33 -9 -25 -15 -102 -189 -102 -228 0 -20 -3 -39 -7 -41
-10 -6 -131 11 -145 19 -6 4 -6 10 1 17 17 17 13 30 -8 24 -10 -2 -41 7 -67
22 -44 23 -51 32 -68 83 l-18 58 -28 -20 c-35 -25 -35 -25 -73 2 -20 15 -51
23 -96 27 l-66 6 -13 45 c-7 25 -51 124 -97 220 -45 96 -100 227 -120 290 -21
63 -50 140 -66 170 -29 58 -95 128 -143 153 -25 12 -32 24 -42 77 -14 68 -49
122 -94 145 -37 19 -37 19 -44 -8 -7 -30 -52 -52 -72 -36 -8 6 -14 9 -14 5 0
-3 -12 -1 -27 5 -16 7 -53 13 -84 14 -55 3 -56 3 -73 -31 -15 -34 -15 -36 10
-74 l27 -40 -11 -283 c-12 -283 -22 -360 -57 -413 -9 -13 -24 -24 -35 -24 -18
0 -20 -7 -20 -87 0 -57 -11 -141 -30 -238 -19 -96 -30 -181 -30 -237 0 -77 -2
-89 -20 -98 -14 -7 -20 -8 -20 0 0 6 -11 15 -24 21 -45 21 -64 92 -116 419
-17 102 -41 226 -55 275 -14 50 -30 106 -35 125 -23 83 -4 303 41 475 29 112
81 250 151 395 87 181 99 221 102 325 2 79 6 97 33 150 47 90 119 187 231 312
69 75 127 153 181 242 92 151 195 295 309 432 150 179 233 237 297 207 24 -11
29 -8 78 40 29 29 58 52 64 52 6 0 22 14 35 31 34 46 104 119 114 119 11 0 71
-116 79 -152 8 -39 52 -86 91 -97 26 -7 48 -6 86 5 41 13 56 13 81 3 27 -11
32 -10 48 10 12 15 16 32 13 50 -6 26 -3 28 68 50 65 19 502 128 587 146 23 5
36 3 41 -5 11 -18 52 -6 89 26 16 14 72 38 123 54 76 24 100 36 125 65 17 19
39 35 48 35 9 0 40 11 68 23 29 13 103 41 165 62 61 21 112 42 112 46 0 5 -7
27 -16 49 -20 50 -18 53 68 91 74 33 87 35 95 12z m8188 -4945 c25 -21 25 -25
24 -145 0 -67 2 -127 5 -132 4 -5 3 -12 -2 -15 -12 -7 -14 -70 -3 -97 9 -24
58 -82 163 -195 57 -60 62 -74 26 -74 -16 0 -17 -3 -8 -21 14 -25 17 -22 -45
-37 -38 -10 -58 -10 -83 -1 -18 6 -41 9 -52 6 -11 -3 -20 -1 -20 5 0 28 -28
-24 -34 -63 -7 -50 -27 -61 -44 -24 -6 12 -16 72 -23 133 -7 62 -16 112 -21
112 -5 0 -28 -18 -52 -40 -24 -22 -48 -40 -53 -40 -14 0 -41 77 -43 120 -3 61
-5 60 70 60 l69 0 -6 158 c-6 169 -2 212 23 212 9 0 12 5 8 13 -5 7 -2 7 10
-2 15 -12 17 -12 14 0 -2 8 3 13 10 12 8 -2 12 9 12 31 0 29 6 38 27 45 2 1
14 -9 28 -21z m264 -526 c-1 -90 -3 -110 -10 -87 -6 17 -9 64 -8 105 0 41 1
83 1 93 -1 9 3 15 9 12 5 -4 9 -59 8 -123z m1 -138 c0 -8 -5 -12 -10 -9 -6 4
-8 11 -5 16 9 14 15 11 15 -7z m-51 -286 l-1 -53 -18 40 c-13 28 -16 43 -8 52
20 24 28 13 27 -39z m-6953 -395 c-1 -2 -22 1 -46 5 -35 6 -49 15 -67 41 -13
19 -23 37 -23 42 0 4 31 -13 69 -39 38 -26 68 -48 67 -49z"/>
<path d="M864 15734 c-4 -14 -2 -35 4 -47 9 -19 11 -15 11 26 1 52 -5 61 -15
21z"/>
<path d="M5712 5951 c-46 -20 -77 -37 -69 -39 15 -3 157 63 157 73 0 3 -1 4
-2 4 -2 -1 -40 -18 -86 -38z"/>
<path d="M3144 4872 c4 -7 1 -12 -8 -12 -19 0 -76 -57 -76 -76 0 -25 20 -65
30 -59 12 8 60 100 65 126 2 10 -1 22 -7 25 -7 4 -8 2 -4 -4z"/>
<path d="M11565 22983 c-14 -36 -31 -100 -37 -142 -10 -66 -8 -92 11 -206 23
-127 68 -313 89 -367 8 -20 16 -25 32 -21 11 3 23 10 26 15 4 6 10 65 15 131
5 67 18 176 28 242 11 66 22 147 26 180 4 33 15 97 26 143 10 45 19 85 19 87
0 3 -47 5 -104 5 l-104 0 -27 -67z"/>
<path d="M12590 21850 c-41 -22 -225 -82 -355 -115 -49 -13 -91 -28 -93 -33
-4 -14 61 -26 101 -18 56 11 266 97 295 120 15 13 42 31 60 40 17 9 32 19 32
21 0 7 -1 7 -40 -15z"/>
<path d="M14900 16396 c0 -2 8 -10 18 -17 15 -13 16 -12 3 4 -13 16 -21 21
-21 13z"/>
<path d="M12323 8208 c-20 -26 -26 -41 -15 -34 12 7 36 46 29 46 -3 0 -9 -6
-14 -12z"/>
<path d="M12333 8079 c1 -35 -4 -50 -15 -43 -7 4 -8 3 -4 -4 4 -6 2 -21 -4
-32 -13 -24 -7 -25 26 -4 21 14 24 22 18 48 -6 32 -23 58 -21 35z"/>
<path d="M12290 8071 c0 -6 4 -12 8 -15 5 -3 9 1 9 9 0 8 -4 15 -9 15 -4 0 -8
-4 -8 -9z"/>
<path d="M13452 5961 c7 -21 160 -151 176 -151 23 0 42 -19 42 -42 0 -18 129
-118 317 -247 79 -53 95 -61 112 -51 25 13 26 27 6 50 -9 10 -18 26 -20 36 -2
11 -15 46 -29 79 -20 50 -32 64 -69 85 -24 14 -72 50 -105 81 -94 88 -151 121
-214 124 -60 4 -140 18 -181 34 -35 13 -40 14 -35 2z"/>
<path d="M8699 3061 c-60 -5 -71 -10 -111 -46 -52 -48 -81 -109 -86 -188 -10
-130 65 -225 247 -315 145 -72 246 -132 387 -231 l111 -78 14 46 14 46 -95
106 c-106 120 -170 218 -170 264 0 36 30 88 62 108 31 20 93 33 84 18 -4 -7
-1 -9 8 -5 24 9 56 -14 161 -116 160 -156 275 -250 307 -250 15 0 14 7 -8 74
-21 62 -38 89 -95 153 -39 43 -76 78 -84 78 -7 0 -17 4 -21 8 -11 10 -78 9
-109 -3 -24 -9 -26 -8 -19 12 22 74 67 121 152 160 34 15 62 30 62 32 0 7
-184 76 -202 76 -10 0 -18 5 -18 11 0 6 -7 8 -16 5 -8 -3 -13 -2 -10 3 16 25
-391 48 -565 32z"/>
<path d="M13063 3042 c-42 -6 -47 -49 -17 -148 35 -117 38 -229 7 -296 -27
-59 -92 -122 -149 -144 -55 -21 -54 -37 1 -76 31 -22 62 -32 139 -43 55 -8
109 -15 121 -15 l22 0 -18 103 c-10 56 -19 122 -19 147 0 25 -6 72 -14 105 -7
33 -19 125 -26 205 -7 80 -16 150 -19 155 -3 6 -16 9 -28 7z"/>
<path d="M3730 321 c0 -17 18 -21 24 -6 3 9 0 15 -9 15 -8 0 -15 -4 -15 -9z"/>
</g>
</svg>
